<?xml version="1.0" encoding="UTF-8"?>
<!-- Generator: Adobe Illustrator 23.0.1, SVG Export Plug-In . SVG Version: 6.00 Build 0) -->
<svg xmlns="http://www.w3.org/2000/svg" xmlns:xlink="http://www.w3.org/1999/xlink" version="1.1" id="Livello_1" x="0px" y="0px" viewBox="0 0 252.7 106.7" style="enable-background:new 0 0 252.7 106.7;" xml:space="preserve"> <style type="text/css"> .st0{fill:#01FAF3;} .st1{fill:#1D1D1B;} </style> <title>menu_logo_testa</title> <path class="st0" d="M0,3.3c0-1.2,0.9-2.1,2.1-2.2h26.3C50.5,1.1,68.5,19,68.5,41.1S50.7,81.2,28.6,81.2c0,0,0,0,0,0 c-0.1,0-0.2,0-0.2,0H2.1c-1.2-0.1-2.1-1-2.1-2.2V3.3z M26.8,70.4c16.8,0,29.1-12.4,29.1-29.3C55.8,24.3,43.6,12,26.8,12H11.7v58.3 H26.8z"/> <path class="st0" d="M87.8,3.3c0-1.2,0.9-2.1,2.1-2.2h26.3c22.1-0.1,40.1,17.8,40.2,39.9c0.1,22.1-17.8,40.1-39.9,40.2c0,0,0,0,0,0 c-0.1,0-0.2,0-0.2,0H89.8c-1.2,0-2.1-1-2.1-2.2L87.8,3.3L87.8,3.3z M114.5,70.4c16.8,0,29.1-12.4,29.1-29.3 c0-16.8-12.2-29.1-29.1-29.1H99.4v58.3H114.5z"/> <path class="st0" d="M211.7,0c11.6,0,19.9,3.9,27.7,10.6c0.9,0.7,1.1,2.1,0.3,3c-0.1,0.1-0.1,0.2-0.2,0.2l-5,5.1c-0.8,1-1.8,1-2.9,0 c-5.5-4.8-12.5-7.5-19.8-7.7c-16.4,0-28.7,13.7-28.7,29.8s12.5,29.6,28.8,29.6c8.4,0,14.2-3.3,19.7-7.5c0.8-0.7,1.9-0.8,2.8-0.1 l5.3,5.1c0.8,0.9,0.8,2.3-0.1,3.1l0,0l0,0c-7.4,7.2-17.4,11.2-27.8,11.1C189,82.4,170.5,64,170.4,41.3S188.7,0.1,211.5,0 C211.6,0,211.6,0,211.7,0z"/> <path class="st0" d="M251.1,106.7h-82.2c-0.9,0-1.6-0.7-1.6-1.7v-7.7c0-0.9,0.7-1.6,1.6-1.7h82.2c0.9,0,1.6,0.7,1.6,1.7v7.7 C252.7,106,252,106.7,251.1,106.7L251.1,106.7C251.1,106.7,251.1,106.7,251.1,106.7z"/> <path class="st1" d="M10,51.1c-0.1-0.7-0.4-1.3-0.9-1.7c-0.5-0.4-1.2-0.7-1.9-0.7c-1.1-0.1-2.2,0.5-2.7,1.4c-0.6,1-0.9,2.1-0.8,3.2 c0,1.1,0.3,2.2,0.8,3.1C5,57.4,6.1,58,7.2,57.9c0.8,0,1.5-0.3,2.1-0.8c0.5-0.6,0.8-1.4,0.9-2.2h2.8c-0.5,3.6-2.4,5.4-5.8,5.5 c-1.8,0.1-3.6-0.7-4.8-2.1c-1.2-1.4-1.8-3.1-1.7-5c-0.1-1.8,0.5-3.6,1.7-5.1c1.2-1.4,3-2.1,4.8-2c1.4,0,2.7,0.4,3.8,1.2 c1.1,0.9,1.8,2.2,1.9,3.6L10,51.1L10,51.1z"/> <path class="st1" d="M14.6,55.2c-0.1-1.4,0.4-2.7,1.4-3.7c0.9-0.9,2.2-1.4,3.5-1.4c1.3-0.1,2.6,0.4,3.6,1.4c0.9,1,1.4,2.4,1.3,3.7 c0.1,1.4-0.4,2.7-1.3,3.7c-0.9,1-2.2,1.5-3.6,1.4c-1.3,0.1-2.6-0.5-3.5-1.4C15,57.9,14.5,56.6,14.6,55.2z M17.2,55.2 c0,0.7,0.1,1.5,0.5,2.1c0.3,0.7,1.1,1,1.8,1c0.7,0.1,1.5-0.3,1.8-1c0.3-0.7,0.5-1.4,0.5-2.1c0-0.8-0.1-1.5-0.5-2.2 c-0.4-0.6-1.1-1-1.8-1c-0.7-0.1-1.4,0.3-1.8,1C17.3,53.7,17.1,54.5,17.2,55.2z"/> <path class="st1" d="M26.4,50.3h2.5v1.8h0c0.2-0.6,0.7-1.2,1.2-1.5c0.5-0.3,1.2-0.5,1.8-0.5c0.2,0,0.4,0,0.6,0.1v2.5 c-0.3-0.1-0.6-0.1-0.9-0.1c-0.8-0.1-1.5,0.3-2,0.9c-0.4,0.7-0.6,1.4-0.6,2.2v4.4h-2.6L26.4,50.3L26.4,50.3z"/> <path class="st1" d="M36,56.9c0,0.5,0.2,1,0.6,1.2c0.4,0.3,0.9,0.4,1.4,0.4c0.4,0,0.8-0.1,1.1-0.3c0.4-0.2,0.6-0.6,0.6-1 c0-0.4-0.3-0.7-0.8-0.9c-0.7-0.3-1.5-0.4-2.2-0.6c-0.2-0.1-0.4-0.1-0.5-0.2c-0.2,0-0.4-0.1-0.5-0.2c-0.3-0.1-0.7-0.3-1-0.5 c-0.3-0.2-0.5-0.5-0.7-0.8c-0.2-0.3-0.3-0.7-0.3-1c0-0.5,0.1-1.1,0.4-1.5c0.2-0.4,0.5-0.7,0.9-1c0.4-0.2,0.9-0.4,1.3-0.5 c0.5-0.1,1-0.1,1.5-0.1c1,0,1.9,0.2,2.8,0.6c0.8,0.5,1.4,1.5,1.4,2.5h-2.5c0-0.4-0.2-0.8-0.5-1.1c-0.4-0.2-0.8-0.3-1.2-0.2 c-0.3,0-0.6,0.1-0.9,0.2c-0.3,0.1-0.5,0.4-0.5,0.7c0,0.2,0.1,0.4,0.3,0.6c0.2,0.2,0.4,0.3,0.7,0.4c0.3,0.1,0.6,0.2,1,0.2 c0.3,0.1,0.7,0.2,1.1,0.3c0.4,0.1,0.8,0.2,1.1,0.3c0.3,0.1,0.7,0.3,1,0.5c0.3,0.2,0.5,0.5,0.7,0.8c0.2,0.4,0.2,0.8,0.2,1.1 c0.1,1.1-0.4,2.1-1.3,2.7c-0.9,0.5-1.9,0.8-3,0.7c-1.1,0-2.1-0.2-3-0.8c-0.9-0.6-1.5-1.6-1.5-2.7L36,56.9L36,56.9z"/> <path class="st1" d="M43.8,55.2c-0.1-1.4,0.4-2.7,1.4-3.7c0.9-0.9,2.2-1.4,3.5-1.4c1.3-0.1,2.6,0.4,3.6,1.4c0.9,1,1.4,2.4,1.3,3.7 c0.1,1.4-0.4,2.7-1.3,3.7c-0.9,1-2.2,1.5-3.6,1.4c-1.3,0.1-2.6-0.5-3.5-1.4C44.3,57.9,43.8,56.6,43.8,55.2z M46.4,55.2 c0,0.7,0.1,1.5,0.5,2.1c0.3,0.7,1.1,1,1.8,1c0.7,0.1,1.5-0.3,1.8-1c0.3-0.7,0.5-1.4,0.5-2.1c0-0.8-0.1-1.5-0.5-2.2 c-0.4-0.6-1.1-1-1.8-1c-0.7-0.1-1.4,0.3-1.8,1C46.6,53.7,46.4,54.5,46.4,55.2L46.4,55.2z"/> <path class="st1" d="M68.3,58.8L68.3,58.8C68,59.3,67.5,59.7,67,60c-0.5,0.2-1.1,0.4-1.7,0.4c-1.3,0.1-2.5-0.6-3.3-1.6 c-0.7-1.1-1.1-2.3-1.1-3.6c0-1.3,0.3-2.5,1.1-3.5c0.8-1,2-1.6,3.2-1.5c0.6,0,1.1,0.1,1.7,0.3c0.5,0.2,0.9,0.6,1.2,1.1h0v-4.9h2.7 v13.5h-2.6L68.3,58.8L68.3,58.8z M68.3,55.2c0-0.7-0.2-1.5-0.5-2.2c-0.4-0.6-1.1-1-1.8-0.9c-0.7,0-1.4,0.3-1.8,0.9 c-0.4,0.7-0.6,1.4-0.5,2.2c0,0.7,0.2,1.5,0.6,2.1c0.4,0.7,1,1.1,1.8,1c0.8,0.1,1.5-0.3,1.8-1C68.1,56.7,68.3,55.9,68.3,55.2z"/> <path class="st1" d="M75.8,48.8h-2.6v-2.2h2.6L75.8,48.8z M73.2,50.3h2.6v9.8h-2.6L73.2,50.3z"/> <path class="st1" d="M85.8,55.6c-0.1,0.7,0.3,1.5,0.9,1.9c0.6,0.4,1.3,0.6,2,0.6c0.3,0,0.6,0,0.8-0.1c0.3,0,0.6-0.1,0.8-0.3 c0.3-0.1,0.5-0.3,0.6-0.5c0.2-0.2,0.3-0.5,0.2-0.8c0-0.3-0.1-0.7-0.3-0.9c-0.3-0.2-0.6-0.4-0.9-0.5c-0.9-0.3-1.8-0.6-2.7-0.8 c-0.5-0.1-0.9-0.3-1.4-0.5c-0.4-0.2-0.9-0.4-1.3-0.7c-0.8-0.6-1.3-1.6-1.2-2.6c0-1.2,0.5-2.4,1.6-3.1c1-0.7,2.1-1,3.3-1 c1.3,0,2.6,0.3,3.7,1c1.1,0.8,1.7,2,1.6,3.4h-2.8c0-0.6-0.3-1.3-0.8-1.6c-0.5-0.3-1.2-0.4-1.8-0.4c-0.5,0-0.9,0.1-1.3,0.3 c-0.4,0.2-0.7,0.7-0.7,1.2c0,0.2,0,0.4,0.2,0.6c0.1,0.2,0.3,0.4,0.6,0.5c1,0.4,2.1,0.7,3.2,1c0.3,0.1,0.6,0.1,1,0.3 c0.5,0.1,0.9,0.4,1.3,0.6c0.5,0.3,0.8,0.7,1.1,1.2c0.3,0.6,0.5,1.2,0.5,1.9c0,1.2-0.5,2.3-1.4,3.1c-1.2,0.9-2.6,1.3-4.1,1.2 c-1.4,0-2.7-0.4-3.9-1.2c-1.1-0.8-1.8-2.2-1.7-3.6L85.8,55.6L85.8,55.6z"/> <path class="st1" d="M99.2,50.3h1.9v1.8h-1.9v4.8c0,0.3,0,0.6,0.2,0.9c0.2,0.2,0.6,0.3,0.9,0.2c0.3,0,0.5,0,0.8-0.1v2.1 c-0.5,0.1-1,0.1-1.5,0.1c-0.4,0-0.7,0-1.1-0.1c-0.3,0-0.7-0.2-1-0.3c-0.3-0.2-0.5-0.4-0.6-0.7c-0.2-0.4-0.3-0.8-0.3-1.2v-5.8H95 v-1.8h1.6v-2.9h2.6L99.2,50.3z"/> <path class="st1" d="M111.6,60.1h-2.5v-1.4H109c-0.3,0.5-0.7,0.9-1.3,1.2c-0.5,0.3-1.1,0.4-1.6,0.4c-1,0.1-2.1-0.3-2.8-1.1 c-0.5-0.9-0.8-1.9-0.7-2.9v-6h2.6v5.5c0,1.6,0.5,2.4,1.7,2.4c1.4,0,2-0.9,2-2.8v-5.1h2.6L111.6,60.1L111.6,60.1z"/> <path class="st1" d="M121,58.8L121,58.8c-0.3,0.5-0.8,0.9-1.3,1.2c-0.5,0.2-1.1,0.4-1.7,0.4c-1.3,0.1-2.5-0.6-3.3-1.6 c-0.7-1.1-1.1-2.3-1.1-3.6c0-1.3,0.3-2.5,1.1-3.5c0.8-1,2-1.6,3.2-1.5c0.6,0,1.1,0.1,1.7,0.3c0.5,0.2,0.9,0.6,1.2,1.1h0v-4.9h2.7 v13.5H121L121,58.8L121,58.8z M120.9,55.2c0-0.7-0.2-1.5-0.5-2.2c-0.4-0.6-1.1-1-1.8-0.9c-0.7,0-1.4,0.3-1.8,0.9 c-0.4,0.7-0.6,1.4-0.5,2.2c0,0.7,0.2,1.5,0.6,2.1c0.4,0.7,1,1.1,1.8,1c0.8,0.1,1.5-0.3,1.8-1C120.8,56.7,120.9,55.9,120.9,55.2z"/> <path class="st1" d="M128.4,48.8h-2.6v-2.2h2.6V48.8z M125.8,50.3h2.6v9.8h-2.6V50.3z"/> <path class="st1" d="M0,62.4v-0.9h130v0.9H0z"/> <path class="st1" d="M3.7,70.8H1.1v-2.2h2.6V70.8z M1.1,72.3h2.6v9.8H1.1V72.3z"/> <path class="st1" d="M6,72.3h2.5v1.4h0.1c0.3-0.5,0.8-0.9,1.3-1.2c0.5-0.2,1-0.4,1.6-0.4c1-0.1,2.1,0.3,2.8,1.1 c0.5,0.9,0.7,1.9,0.7,2.9v6h-2.6v-5.5c0-1.6-0.5-2.4-1.7-2.4c-1.4,0-2,0.9-2,2.8v5.1H6L6,72.3L6,72.3z"/> <path class="st1" d="M23.1,68.6h5.7c1.6-0.1,3.1,0.5,4.3,1.6c1.2,1.4,1.8,3.2,1.7,5c0.1,1.7-0.4,3.5-1.5,4.9c-1.1,1.3-2.8,2.1-4.5,2 h-5.7V68.6z M26,79.6h2.5c0.4,0,0.8-0.1,1.2-0.2c0.4-0.1,0.7-0.4,1-0.7c0.3-0.4,0.6-0.8,0.7-1.3c0.2-0.6,0.3-1.2,0.3-1.9 c0.1-1.1-0.2-2.3-0.8-3.2c-0.7-0.9-1.8-1.3-2.9-1.2h-2V79.6z"/> <path class="st1" d="M39,77.9c0.1,1.7,0.9,2.5,2.3,2.5c0.5,0,1-0.1,1.4-0.4c0.3-0.2,0.6-0.5,0.7-0.9h2.3c-0.5,2-2.4,3.4-4.4,3.3 c-1.3,0.1-2.6-0.5-3.5-1.4c-1.8-2.1-1.8-5.2,0-7.4c0.9-1,2.2-1.5,3.5-1.5c1.4-0.1,2.8,0.6,3.6,1.7c0.2,0.3,0.4,0.5,0.5,0.8 c0.1,0.3,0.2,0.6,0.3,1c0.2,0.7,0.2,1.5,0.2,2.2L39,77.9z M43.2,76.2c0-0.6-0.3-1.1-0.6-1.5c-0.4-0.4-0.9-0.5-1.4-0.5 c-0.3,0-0.7,0.1-1,0.2c-0.3,0.1-0.5,0.3-0.7,0.5c-0.3,0.4-0.5,0.8-0.5,1.3L43.2,76.2L43.2,76.2z"/> <path class="st1" d="M49.7,79c0,0.5,0.2,1,0.6,1.2c0.4,0.3,0.9,0.4,1.4,0.4c0.4,0,0.8-0.1,1.1-0.3c0.4-0.2,0.6-0.6,0.6-1 c0-0.4-0.3-0.7-0.8-0.9c-0.7-0.3-1.5-0.4-2.2-0.6c-0.2-0.1-0.4-0.1-0.5-0.2c-0.2,0-0.4-0.1-0.5-0.2c-0.3-0.1-0.7-0.3-1-0.5 c-0.3-0.2-0.5-0.5-0.7-0.8c-0.2-0.3-0.3-0.7-0.3-1c0-0.5,0.1-1.1,0.4-1.5c0.2-0.4,0.5-0.7,0.9-1c0.4-0.2,0.9-0.4,1.3-0.5 c0.5-0.1,1-0.1,1.5-0.1c1,0,1.9,0.2,2.8,0.6c0.8,0.5,1.4,1.5,1.4,2.5h-2.5c0-0.4-0.2-0.8-0.5-1.1c-0.4-0.2-0.8-0.3-1.2-0.2 c-0.3,0-0.6,0.1-0.9,0.2c-0.3,0.1-0.5,0.4-0.5,0.7c0,0.2,0.1,0.4,0.3,0.6c0.2,0.2,0.4,0.3,0.7,0.4c0.3,0.1,0.6,0.2,1,0.2 c0.3,0.1,0.7,0.2,1.1,0.3c0.4,0.1,0.8,0.2,1.1,0.3c0.3,0.1,0.7,0.3,1,0.5c0.3,0.2,0.5,0.5,0.7,0.8C56,78.2,56,78.6,56,79 c0.1,1.1-0.4,2.1-1.3,2.7c-0.9,0.5-1.9,0.8-3,0.7c-1.1,0-2.1-0.2-3-0.8c-0.9-0.6-1.5-1.6-1.5-2.7L49.7,79L49.7,79z"/> <path class="st1" d="M60.6,70.8H58v-2.2h2.6V70.8z M58,72.3h2.6v9.8H58V72.3z"/> <path class="st1" d="M72,81.5c0,0.4,0,0.9-0.1,1.3c-0.1,0.5-0.4,1-0.7,1.4c-0.4,0.5-0.9,0.9-1.5,1.1c-0.8,0.3-1.7,0.5-2.6,0.5 c-1,0-1.9-0.2-2.7-0.7c-0.4-0.3-0.7-0.6-1-1c-0.3-0.4-0.4-0.9-0.5-1.4h2.6c0.1,0.4,0.4,0.8,0.7,1c0.4,0.2,0.8,0.3,1.2,0.3 c0.6,0,1.2-0.2,1.6-0.7c0.3-0.5,0.5-1.1,0.5-1.7v-1.3h0c-0.3,0.5-0.7,0.9-1.2,1.1c-0.5,0.2-1.1,0.4-1.7,0.4 c-1.2,0.1-2.4-0.5-3.1-1.4c-0.7-1-1-2.2-1-3.4c0-1.2,0.3-2.4,1.1-3.4c0.7-0.9,1.8-1.5,3-1.4c1.2-0.1,2.3,0.5,2.8,1.5h0v-1.3H72 L72,81.5L72,81.5z M67.3,79.8c0.7,0,1.3-0.3,1.7-0.8c0.4-0.5,0.6-1.2,0.6-1.8c0-0.7-0.1-1.5-0.5-2.1c-0.4-0.6-1.1-0.9-1.8-0.9 c-0.6,0-1.2,0.3-1.6,0.8c-0.4,0.6-0.5,1.3-0.5,1.9c0,0.7,0.1,1.4,0.5,2C66,79.5,66.6,79.9,67.3,79.8z"/> <path class="st1" d="M74.5,72.3H77v1.4H77c0.3-0.5,0.8-0.9,1.3-1.2c0.5-0.2,1-0.4,1.6-0.4c1-0.1,2.1,0.3,2.8,1.1 c0.5,0.9,0.7,1.9,0.7,2.9v6h-2.6v-5.5c0-1.6-0.5-2.4-1.7-2.4c-1.4,0-2,0.9-2,2.8v5.1h-2.6L74.5,72.3L74.5,72.3z"/> <path class="st1" d="M0,84.5v-0.9h84.9v0.9H0z"/> <path class="st1" d="M8,102.9L8,102.9c-0.3,0.5-0.8,0.9-1.3,1.2c-0.5,0.2-1.1,0.4-1.7,0.4c-1.3,0.1-2.5-0.6-3.3-1.6 c-0.7-1.1-1.1-2.3-1.1-3.6c0-1.3,0.3-2.5,1.1-3.5c0.8-1,2-1.6,3.2-1.5c0.6,0,1.1,0.1,1.7,0.3c0.5,0.2,0.9,0.6,1.2,1.1h0v-4.9h2.7 v13.5H8L8,102.9L8,102.9z M7.9,99.2c0-0.7-0.2-1.5-0.5-2.2c-0.4-0.6-1.1-1-1.8-0.9c-0.7,0-1.4,0.3-1.8,0.9c-0.4,0.7-0.6,1.4-0.5,2.2 c0,0.7,0.2,1.5,0.6,2.1c0.4,0.7,1,1.1,1.8,1c0.8,0.1,1.5-0.3,1.8-1C7.8,100.7,8,100,7.9,99.2z"/> <path class="st1" d="M14.9,99.9c0.1,1.7,0.9,2.5,2.3,2.5c0.5,0,1-0.1,1.4-0.4c0.3-0.2,0.6-0.5,0.7-0.9h2.3c-0.5,2-2.4,3.4-4.4,3.3 c-1.3,0.1-2.6-0.5-3.5-1.4c-1.8-2.1-1.8-5.2,0-7.4c0.9-1,2.2-1.5,3.5-1.5c1.4-0.1,2.8,0.6,3.6,1.7c0.2,0.3,0.4,0.5,0.5,0.8 c0.1,0.3,0.2,0.6,0.3,1c0.2,0.7,0.2,1.5,0.2,2.2L14.9,99.9z M19.2,98.2c0-0.6-0.3-1.1-0.6-1.5c-0.4-0.4-0.9-0.5-1.4-0.5 c-0.3,0-0.7,0.1-1,0.2c-0.3,0.1-0.5,0.3-0.7,0.5c-0.3,0.4-0.5,0.8-0.5,1.3L19.2,98.2L19.2,98.2z"/> <path class="st1" d="M23.7,90.7h2.6v13.5h-2.6V90.7z"/> <path class="st1" d="M28.7,90.7h2.6v13.5h-2.6V90.7z"/> <path class="st1" d="M33.6,97.4c0-1.1,0.6-2,1.5-2.6c0.9-0.5,1.9-0.7,2.9-0.7c0.5,0,1,0,1.5,0.1c0.5,0.1,0.9,0.2,1.3,0.4 c0.4,0.2,0.7,0.5,1,0.8c0.3,0.4,0.4,0.9,0.4,1.4v5.1c0,0.4,0,0.8,0.1,1.2c0,0.3,0.1,0.6,0.2,0.9h-2.6c-0.1-0.3-0.2-0.6-0.2-0.9 c-0.4,0.4-0.9,0.7-1.5,0.9c-0.6,0.2-1.1,0.3-1.7,0.3c-0.8,0-1.6-0.2-2.3-0.7c-0.7-0.5-1-1.4-0.9-2.2c0-0.5,0.1-0.9,0.3-1.4 c0.2-0.3,0.4-0.6,0.7-0.8c0.3-0.2,0.7-0.4,1-0.5c0.4-0.1,0.8-0.2,1.2-0.2c0.4-0.1,0.8-0.1,1.2-0.2c0.3,0,0.7-0.1,1-0.1 c0.6-0.1,0.9-0.4,0.9-0.9c0.1-0.4-0.1-0.8-0.5-1.1c-0.4-0.2-0.8-0.2-1.2-0.2c-0.8-0.1-1.6,0.5-1.7,1.3c0,0.1,0,0.1,0,0.2L33.6,97.4z M39.6,99.4c-0.3,0.2-0.6,0.3-0.9,0.4c-0.4,0.1-0.8,0.1-1.2,0.2c-0.4,0.1-0.7,0.2-1.1,0.4c-0.3,0.2-0.5,0.6-0.5,1 c0,0.4,0.2,0.8,0.5,1c0.3,0.2,0.7,0.3,1.1,0.3c0.4,0,0.8-0.1,1.2-0.3c0.3-0.1,0.5-0.4,0.6-0.6c0.1-0.2,0.2-0.5,0.2-0.8 c0-0.3,0-0.5,0-0.6L39.6,99.4z"/> <path class="st1" d="M59.2,95.2c-0.1-0.7-0.4-1.3-0.9-1.7c-0.5-0.4-1.2-0.7-1.9-0.7c-1.1-0.1-2.2,0.5-2.7,1.4 c-0.6,1-0.9,2.1-0.8,3.2c0,1.1,0.3,2.2,0.8,3.1c0.6,0.9,1.6,1.5,2.7,1.4c0.8,0,1.5-0.3,2.1-0.8c0.5-0.6,0.8-1.4,0.9-2.2h2.8 c-0.5,3.6-2.4,5.4-5.8,5.5c-1.8,0.1-3.6-0.7-4.8-2.1c-1.2-1.4-1.8-3.1-1.7-5c-0.1-1.8,0.5-3.6,1.7-5.1c2.2-2.4,5.9-2.7,8.6-0.8 c1.1,0.9,1.8,2.2,1.9,3.6L59.2,95.2L59.2,95.2z"/> <path class="st1" d="M63.7,99.3c-0.1-1.4,0.4-2.7,1.4-3.7c0.9-0.9,2.2-1.4,3.5-1.4c1.3-0.1,2.6,0.4,3.6,1.4c0.9,1,1.4,2.4,1.3,3.7 c0.1,1.4-0.4,2.7-1.3,3.7c-0.9,1-2.2,1.5-3.6,1.4c-1.3,0.1-2.6-0.5-3.5-1.4C64.2,102,63.7,100.7,63.7,99.3z M66.3,99.3 c0,0.7,0.1,1.5,0.5,2.1c0.3,0.7,1.1,1,1.8,1c0.7,0.1,1.5-0.3,1.8-1c0.3-0.7,0.5-1.4,0.5-2.1c0-0.8-0.1-1.5-0.5-2.2 c-0.4-0.6-1.1-1-1.8-1c-0.7-0.1-1.4,0.3-1.8,1C66.5,97.8,66.3,98.5,66.3,99.3z"/> <path class="st1" d="M75.5,94.4H78v1.3h0c0.7-1,1.8-1.6,3-1.5c0.6,0,1.2,0.1,1.7,0.3c0.5,0.3,0.9,0.7,1.1,1.3 c0.3-0.5,0.7-0.9,1.2-1.2c0.5-0.3,1.1-0.5,1.8-0.5c0.9,0,1.8,0.2,2.6,0.8c0.7,0.7,1.1,1.7,1,2.7v6.5h-2.6v-5.5c0-0.3,0-0.6,0-0.9 c0-0.3-0.1-0.5-0.2-0.8c-0.1-0.2-0.3-0.4-0.5-0.5c-0.3-0.1-0.6-0.2-0.9-0.2c-0.3,0-0.6,0.1-0.9,0.2c-0.2,0.1-0.4,0.3-0.6,0.6 c-0.1,0.2-0.2,0.5-0.3,0.8c-0.1,0.3-0.1,0.6-0.1,0.9v5.4h-2.6v-6.3c0-0.3-0.1-0.5-0.2-0.8c-0.1-0.2-0.3-0.4-0.5-0.6 c-0.3-0.2-0.7-0.2-1-0.2c-0.2,0-0.3,0-0.5,0.1c-0.2,0.1-0.4,0.2-0.6,0.3c-0.2,0.2-0.4,0.4-0.5,0.7c-0.2,0.4-0.2,0.8-0.2,1.2v5.6 h-2.6L75.5,94.4L75.5,94.4z"/> <path class="st1" d="M101.6,104.2h-2.5v-1.4h-0.1c-0.3,0.5-0.7,0.9-1.3,1.2c-0.5,0.3-1.1,0.4-1.6,0.4c-1,0.1-2.1-0.3-2.8-1.1 c-0.5-0.9-0.8-1.9-0.7-2.9v-6h2.6v5.5c0,1.6,0.5,2.4,1.7,2.4c1.4,0,2-0.9,2-2.8v-5.1h2.6L101.6,104.2L101.6,104.2z"/> <path class="st1" d="M104,94.4h2.5v1.4h0.1c0.3-0.5,0.8-0.9,1.3-1.2c0.5-0.2,1-0.4,1.6-0.4c1-0.1,2.1,0.3,2.8,1.1 c0.5,0.9,0.7,1.9,0.7,2.9v6h-2.6v-5.5c0-1.6-0.5-2.4-1.7-2.4c-1.4,0-2,0.9-2,2.8v5.1H104L104,94.4L104,94.4z"/> <path class="st1" d="M118,92.9h-2.6v-2.2h2.6V92.9z M115.4,94.4h2.6v9.8h-2.6V94.4z"/> <path class="st1" d="M126.7,97.8c-0.1-1-0.9-1.7-1.9-1.7c0,0,0,0,0,0l0,0c-0.7,0-1.4,0.4-1.7,1c-0.3,0.7-0.5,1.4-0.5,2.1 c0,0.7,0.2,1.4,0.5,2c0.2,0.3,0.4,0.5,0.7,0.7c0.3,0.2,0.6,0.3,1,0.3c1.1,0,2-0.8,2.1-1.9c0,0,0-0.1,0-0.1h2.5c-0.4,2.6-2,4-4.6,4 c-1.3,0.1-2.6-0.5-3.4-1.4c-0.9-1-1.4-2.3-1.3-3.6c-0.1-1.4,0.4-2.7,1.3-3.8c0.9-1,2.2-1.6,3.6-1.5c1.1,0,2.1,0.3,3,0.9 c0.9,0.7,1.4,1.7,1.4,2.8L126.7,97.8L126.7,97.8z"/> <path class="st1" d="M131,97.4c0-1.1,0.6-2,1.5-2.6c0.9-0.5,1.9-0.7,2.9-0.7c0.5,0,1,0,1.5,0.1c0.5,0.1,0.9,0.2,1.3,0.4 c0.4,0.2,0.7,0.5,1,0.8c0.3,0.4,0.4,0.9,0.4,1.4v5.1c0,0.4,0,0.8,0.1,1.2c0,0.3,0.1,0.6,0.2,0.9h-2.6c-0.1-0.3-0.2-0.6-0.2-0.9 c-0.4,0.4-0.9,0.7-1.5,0.9c-0.6,0.2-1.1,0.3-1.7,0.3c-0.8,0-1.6-0.2-2.3-0.7c-0.7-0.5-1-1.4-0.9-2.2c0-0.5,0.1-0.9,0.3-1.4 c0.2-0.3,0.4-0.6,0.7-0.8c0.3-0.2,0.7-0.4,1-0.5c0.4-0.1,0.8-0.2,1.2-0.2c0.4-0.1,0.8-0.1,1.2-0.2c0.3,0,0.7-0.1,1-0.1 c0.6-0.1,0.9-0.4,0.9-0.9c0.1-0.4-0.1-0.8-0.5-1.1c-0.4-0.2-0.8-0.2-1.2-0.2c-0.8-0.1-1.6,0.5-1.7,1.3c0,0.1,0,0.1,0,0.2L131,97.4z M137,99.4c-0.3,0.2-0.6,0.3-0.9,0.4c-0.4,0.1-0.8,0.1-1.2,0.2c-0.4,0.1-0.7,0.2-1.1,0.4c-0.3,0.2-0.5,0.6-0.5,1 c0,0.4,0.2,0.8,0.5,1c0.3,0.2,0.7,0.3,1.1,0.3c0.4,0,0.8-0.1,1.2-0.3c0.3-0.1,0.5-0.4,0.6-0.6c0.1-0.2,0.2-0.5,0.2-0.8 c0-0.3,0-0.5,0-0.6L137,99.4L137,99.4z"/> <path class="st1" d="M141.5,102.1l4.9-5.7h-4.6v-2h8v2l-5.1,5.7h5.4v2h-8.7L141.5,102.1z"/> <path class="st1" d="M154.5,92.9h-2.6v-2.2h2.6V92.9z M151.9,94.4h2.6v9.8h-2.6L151.9,94.4z"/> <path class="st1" d="M156.5,99.3c-0.1-1.4,0.4-2.7,1.4-3.7c0.9-0.9,2.2-1.4,3.5-1.4c1.3-0.1,2.6,0.4,3.6,1.4c0.9,1,1.4,2.4,1.3,3.7 c0.1,1.4-0.4,2.7-1.3,3.7c-0.9,1-2.2,1.5-3.6,1.4c-1.3,0.1-2.6-0.5-3.5-1.4C157,102,156.5,100.7,156.5,99.3z M159.1,99.3 c0,0.7,0.1,1.5,0.5,2.1c0.3,0.7,1.1,1,1.8,1c0.7,0.1,1.5-0.3,1.8-1c0.3-0.7,0.5-1.4,0.5-2.1c0-0.8-0.1-1.5-0.5-2.2 c-0.4-0.6-1.1-1-1.8-1c-0.7-0.1-1.4,0.3-1.8,1C159.3,97.8,159.1,98.5,159.1,99.3L159.1,99.3z"/> <path class="st1" d="M168.4,94.4h2.5v1.4h0.1c0.3-0.5,0.8-0.9,1.3-1.2c0.5-0.2,1-0.4,1.6-0.4c1-0.1,2.1,0.3,2.8,1.1 c0.5,0.9,0.7,1.9,0.7,2.9v6h-2.6v-5.5c0-1.6-0.5-2.4-1.7-2.4c-1.4,0-2,0.9-2,2.8v5.1h-2.6L168.4,94.4L168.4,94.4z"/> <path class="st1" d="M181.8,99.9c0.1,1.7,0.9,2.5,2.3,2.5c0.5,0,1-0.1,1.4-0.4c0.3-0.2,0.6-0.5,0.7-0.9h2.3c-0.5,2-2.4,3.4-4.4,3.3 c-1.3,0.1-2.6-0.5-3.5-1.4c-1.8-2.1-1.8-5.2,0-7.4c0.9-1,2.2-1.5,3.5-1.5c1.4-0.1,2.8,0.6,3.6,1.7c0.2,0.3,0.4,0.5,0.5,0.8 c0.1,0.3,0.2,0.6,0.3,1c0.2,0.7,0.2,1.5,0.2,2.2L181.8,99.9z M186,98.2c0-0.6-0.3-1.1-0.6-1.5c-0.4-0.4-0.9-0.5-1.4-0.5 c-0.3,0-0.7,0.1-1,0.2c-0.3,0.1-0.5,0.3-0.7,0.5c-0.3,0.4-0.5,0.8-0.5,1.3L186,98.2L186,98.2z"/> <path class="st1" d="M0,106.5v-0.9h189.7v0.9H0z"/> <path d="M4.4,4.3C4,4.6,3.5,4.8,3,4.7H1.8v2H0.6V1.1H3c0.5,0,1,0.1,1.3,0.4c0.4,0.4,0.5,0.8,0.5,1.3C4.9,3.4,4.7,3.9,4.4,4.3z M3.5,2.3C3.3,2.2,3.1,2.1,2.8,2.1H1.8v1.7h1.1c0.2,0,0.4-0.1,0.6-0.2c0.2-0.2,0.2-0.4,0.2-0.6C3.7,2.7,3.6,2.5,3.5,2.3L3.5,2.3z"/> <path d="M10.3,6.2C9.8,6.7,9.1,6.9,8.4,6.9c-0.7,0-1.3-0.2-1.8-0.7C6,5.6,5.7,4.8,5.8,3.9C5.7,3.1,6,2.2,6.6,1.6 C7.1,1.2,7.8,0.9,8.4,1c0.7,0,1.3,0.2,1.8,0.7c0.6,0.6,0.9,1.5,0.8,2.3C11.2,4.8,10.9,5.6,10.3,6.2z M9.5,5.4c0.5-0.9,0.5-2,0-2.9 C9.3,2.1,8.9,1.9,8.4,2C8,1.9,7.6,2.1,7.3,2.5c-0.6,0.9-0.6,2,0,2.9C7.6,5.7,8,5.9,8.4,5.9C8.9,5.9,9.3,5.7,9.5,5.4L9.5,5.4z"/> <path d="M12.3,1.1h1.2v4.6h2.8v1h-4V1.1z"/> <path d="M18.3,6.7h-1.2V1.1h1.2V6.7z"/> <path d="M23.7,1.1v1H22v4.6h-1.2V2.1h-1.7v-1H23.7z"/> <path d="M28.7,2.1h-3v1.2h2.7v1h-2.7v1.4h3.1v1h-4.2V1.1h4.1L28.7,2.1z"/> <path d="M30.4,1.7c1.1-1,2.7-0.9,3.7,0.1c0,0,0,0,0,0c0,0,0.1,0.1,0.1,0.1c0.2,0.3,0.4,0.7,0.4,1h-1.2c-0.1-0.2-0.1-0.4-0.3-0.6 c-0.5-0.5-1.3-0.5-1.8,0c0,0-0.1,0.1-0.1,0.1C30.9,3,30.8,3.5,30.8,4c0,0.5,0.1,1,0.4,1.4c0.2,0.3,0.6,0.5,1,0.5 c0.4,0,0.7-0.1,0.9-0.4c0.1-0.2,0.2-0.4,0.3-0.7h1.2c-0.1,0.6-0.4,1.1-0.8,1.5c-0.4,0.4-1,0.6-1.6,0.6c-0.7,0-1.4-0.2-1.9-0.8 c-0.5-0.6-0.7-1.4-0.7-2.1C29.6,3.2,29.9,2.3,30.4,1.7z"/> <path d="M35.7,1.1h1.2L39.1,5V1.1h1.1v5.6h-1.2l-2.3-4v4h-1.1V1.1z"/> <path d="M42.7,6.7h-1.2V1.1h1.2L42.7,6.7z"/> <path d="M44.6,1.7c1.1-1,2.7-0.9,3.7,0.1c0,0,0.1,0.1,0.1,0.1c0.2,0.3,0.4,0.7,0.4,1h-1.2c-0.1-0.2-0.1-0.4-0.3-0.6 c-0.5-0.5-1.3-0.5-1.8,0c0,0-0.1,0.1-0.1,0.1C45.1,3,45,3.5,45,4c0,0.5,0.1,1,0.4,1.4c0.2,0.3,0.6,0.5,1,0.5c0.4,0,0.7-0.1,0.9-0.4 c0.1-0.2,0.2-0.4,0.3-0.7h1.2c-0.1,0.6-0.4,1.1-0.8,1.5c-0.4,0.4-1,0.6-1.6,0.6c-0.7,0-1.4-0.2-1.9-0.8C44,5.5,43.7,4.8,43.8,4 C43.7,3.2,44,2.3,44.6,1.7z"/> <path d="M54.1,6.2c-1.1,0.9-2.6,0.9-3.7,0c-0.6-0.6-0.9-1.5-0.9-2.3c-0.1-0.9,0.2-1.7,0.9-2.3c1.1-0.9,2.6-0.9,3.7,0 c0.6,0.6,0.9,1.5,0.8,2.3C55.1,4.8,54.7,5.6,54.1,6.2z M53.4,5.4c0.5-0.9,0.5-2,0-2.9c-0.3-0.3-0.7-0.5-1.1-0.5 c-0.4,0-0.8,0.2-1.1,0.5c-0.6,0.9-0.6,2,0,2.9c0.3,0.3,0.7,0.5,1.1,0.5C52.7,5.9,53.1,5.7,53.4,5.4L53.4,5.4z"/> <path d="M61.3,1.3c0.4,0.1,0.7,0.4,1,0.7c0.2,0.3,0.3,0.6,0.4,0.9c0.1,0.3,0.1,0.6,0.1,0.9c0,0.7-0.1,1.3-0.4,1.9 c-0.4,0.7-1.1,1.1-1.9,1h-2.4V1.1h2.4C60.8,1.1,61.1,1.2,61.3,1.3z M59.2,2.1v3.7h1.1c0.5,0,1-0.3,1.2-0.8c0.1-0.3,0.2-0.7,0.2-1.1 c0-0.5-0.1-0.9-0.3-1.3c-0.2-0.3-0.7-0.5-1.1-0.5L59.2,2.1z"/> <path d="M65,6.7h-1.2V1.1H65V6.7z"/> <path d="M72,1.1h1.7v5.6h-1.1V3c0-0.1,0-0.3,0-0.5c0-0.2,0-0.3,0-0.5l-1.1,4.7h-1.1L69.4,2c0,0.1,0,0.3,0,0.5c0,0.2,0,0.3,0,0.5v3.8 h-1.1V1.1H70l1,4.4L72,1.1z"/> <path d="M76.1,6.7H75V1.1h1.2L76.1,6.7z"/> <path d="M77.5,1.1h1.2v4.6h2.8v1h-4V1.1z"/> <path d="M84.2,1.1h1.3l2,5.6h-1.3l-0.4-1.2h-2.1l-0.4,1.2h-1.2L84.2,1.1z M84.1,4.6h1.4l-0.7-2.2L84.1,4.6z"/> <path d="M88.4,1.1h1.2L91.8,5V1.1h1.1v5.6h-1.2l-2.3-4v4h-1.1V1.1z"/> <path d="M98.6,6.2c-1.1,0.9-2.6,0.9-3.7,0c-0.6-0.6-0.9-1.5-0.9-2.3c-0.1-0.9,0.2-1.7,0.9-2.3c1.1-0.9,2.6-0.9,3.7,0 c0.6,0.6,0.9,1.5,0.8,2.3C99.5,4.8,99.2,5.6,98.6,6.2z M97.9,5.4c0.5-0.9,0.5-2,0-2.9c-0.3-0.3-0.7-0.5-1.1-0.5 c-0.4,0-0.8,0.2-1.1,0.5c-0.6,0.9-0.6,2,0,2.9c0.3,0.3,0.7,0.5,1.1,0.5C97.2,5.9,97.6,5.7,97.9,5.4L97.9,5.4z"/> <path d="M1.4,14.4c0,0.2,0.1,0.4,0.2,0.6c0.3,0.3,0.6,0.4,1,0.3c0.2,0,0.5,0,0.7-0.1c0.3-0.1,0.5-0.3,0.5-0.7c0-0.2-0.1-0.3-0.2-0.4 c-0.2-0.1-0.5-0.2-0.8-0.3l-0.6-0.1c-0.4-0.1-0.8-0.2-1.2-0.4c-0.4-0.3-0.6-0.7-0.6-1.2c0-0.5,0.2-0.9,0.6-1.3 c0.5-0.4,1-0.5,1.6-0.5c0.5,0,1.1,0.1,1.5,0.5c0.4,0.3,0.7,0.8,0.7,1.4H3.7c0-0.3-0.2-0.6-0.5-0.7c-0.2-0.1-0.5-0.1-0.7-0.1 c-0.3,0-0.5,0.1-0.7,0.2c-0.2,0.1-0.3,0.3-0.3,0.5c0,0.2,0.1,0.4,0.3,0.4c0.2,0.1,0.5,0.2,0.7,0.2l1,0.2c0.3,0.1,0.7,0.2,1,0.4 C4.8,13.6,5,14,5,14.5c0,0.5-0.2,1-0.6,1.3c-0.5,0.4-1.1,0.5-1.7,0.5c-0.6,0-1.2-0.1-1.7-0.5c-0.4-0.3-0.7-0.8-0.6-1.4H1.4z"/> <path d="M6.6,11.1c0.5-0.5,1.1-0.7,1.7-0.7c0.8-0.1,1.6,0.3,2,0.9c0.2,0.3,0.4,0.7,0.4,1H9.5c-0.1-0.2-0.1-0.4-0.3-0.6 c-0.2-0.3-0.6-0.4-0.9-0.4c-0.4,0-0.8,0.2-1,0.5c-0.3,0.4-0.4,0.9-0.4,1.5c0,0.5,0.1,1,0.4,1.4c0.2,0.3,0.6,0.5,1,0.5 c0.4,0,0.7-0.1,0.9-0.4c0.1-0.2,0.2-0.4,0.3-0.7h1.2c-0.1,0.6-0.4,1.1-0.8,1.5c-0.4,0.4-1,0.6-1.6,0.6c-0.7,0-1.4-0.2-1.9-0.8 C5.5,14.1,5.6,12.4,6.6,11.1z"/> <path d="M11.8,10.5H13v3.4c0,0.3,0,0.6,0.1,0.8c0.2,0.3,0.5,0.5,0.9,0.5c0.4,0.1,0.7-0.1,0.9-0.5c0.1-0.3,0.2-0.6,0.1-0.8v-3.4h1.2 v3.4c0,0.5-0.1,1-0.3,1.4c-0.4,0.7-1.2,1-2,0.9c-0.8,0.1-1.5-0.3-2-0.9c-0.2-0.4-0.3-0.9-0.3-1.4L11.8,10.5z"/> <path d="M21.9,15.6c-0.5,0.5-1.2,0.7-1.8,0.7c-0.7,0-1.3-0.2-1.8-0.7c-0.6-0.6-0.9-1.5-0.9-2.3c-0.1-0.9,0.2-1.7,0.9-2.3 c0.5-0.5,1.2-0.7,1.8-0.7c0.7,0,1.3,0.2,1.8,0.7c0.6,0.6,0.9,1.5,0.8,2.3C22.8,14.1,22.5,15,21.9,15.6z M21.2,14.7 c0.5-0.9,0.5-2,0-2.9c-0.3-0.3-0.7-0.5-1.1-0.5c-0.4,0-0.8,0.2-1.1,0.5c-0.6,0.9-0.6,2,0,2.9c0.3,0.3,0.7,0.5,1.1,0.5 C20.5,15.3,20.9,15.1,21.2,14.7L21.2,14.7z"/> <path d="M23.9,10.5h1.2v4.6h2.8v1h-4V10.5z"/> <path d="M30.6,10.5h1.3l2,5.6h-1.3l-0.4-1.2h-2.1l-0.4,1.2h-1.2L30.6,10.5z M30.5,14H32l-0.7-2.2L30.5,14z"/> <path d="M40.1,10.6c0.4,0.1,0.7,0.4,1,0.7c0.2,0.3,0.3,0.6,0.4,0.9c0.1,0.3,0.1,0.6,0.1,0.9c0,0.7-0.1,1.3-0.4,1.9 c-0.4,0.7-1.1,1.1-1.9,1h-2.4v-5.6h2.4C39.5,10.5,39.8,10.5,40.1,10.6z M37.9,11.5v3.7H39c0.5,0,1-0.3,1.2-0.8 c0.1-0.3,0.2-0.7,0.2-1.1c0-0.5-0.1-0.9-0.3-1.3c-0.2-0.3-0.7-0.5-1.1-0.5L37.9,11.5z"/> <path d="M46.8,11.5h-3v1.2h2.7v1h-2.7v1.4h3.1v1h-4.2v-5.6h4.1L46.8,11.5z"/> <path d="M48,10.5h1.2v4.6H52v1h-4V10.5z"/> <path d="M58.3,10.6c0.4,0.1,0.7,0.4,1,0.7c0.2,0.3,0.3,0.6,0.4,0.9c0.1,0.3,0.1,0.6,0.1,0.9c0,0.7-0.1,1.3-0.4,1.9 c-0.4,0.7-1.1,1.1-1.9,1H55v-5.6h2.4C57.7,10.5,58,10.5,58.3,10.6z M56.1,11.5v3.7h1.1c0.5,0,1-0.3,1.2-0.8c0.1-0.3,0.2-0.7,0.2-1.1 c0-0.5-0.1-0.9-0.3-1.3c-0.2-0.3-0.7-0.5-1.1-0.5L56.1,11.5z"/> <path d="M65,11.5h-3v1.2h2.7v1H62v1.4h3.1v1h-4.2v-5.6H65L65,11.5z"/> <path d="M67,14.4c0,0.2,0.1,0.4,0.2,0.6c0.3,0.3,0.6,0.4,1,0.3c0.2,0,0.5,0,0.7-0.1c0.3-0.1,0.5-0.3,0.5-0.7c0-0.2-0.1-0.3-0.2-0.4 c-0.2-0.1-0.5-0.2-0.8-0.3l-0.6-0.1c-0.4-0.1-0.8-0.2-1.2-0.4C66.2,13,66,12.5,66,12.1c0-0.5,0.2-0.9,0.6-1.3c0.5-0.4,1-0.5,1.6-0.5 c0.5,0,1.1,0.1,1.5,0.5c0.4,0.3,0.7,0.8,0.7,1.4h-1.1c0-0.3-0.2-0.6-0.5-0.7c-0.2-0.1-0.5-0.1-0.7-0.1c-0.3,0-0.5,0.1-0.7,0.2 c-0.2,0.1-0.3,0.3-0.3,0.5c0,0.2,0.1,0.4,0.3,0.4c0.2,0.1,0.5,0.2,0.7,0.2l1,0.2c0.3,0.1,0.7,0.2,1,0.4c0.3,0.3,0.5,0.7,0.5,1.1 c0,0.5-0.2,1-0.6,1.3c-0.5,0.4-1.1,0.5-1.7,0.5c-0.6,0-1.2-0.1-1.7-0.5c-0.4-0.3-0.7-0.8-0.6-1.4L67,14.4z"/> <path d="M72.8,16.1h-1.2v-5.6h1.2V16.1z"/> <path d="M77.9,12.2c-0.1-0.4-0.3-0.7-0.7-0.8c-0.2-0.1-0.4-0.1-0.6-0.1c-0.4,0-0.8,0.2-1.1,0.5c-0.3,0.4-0.5,1-0.4,1.5 c-0.1,0.5,0.1,1.1,0.5,1.5c0.3,0.3,0.7,0.4,1.1,0.4c0.4,0,0.7-0.1,1-0.3c0.3-0.2,0.4-0.5,0.5-0.9h-1.3v-0.9h2.3v3h-0.8l-0.1-0.7 c-0.2,0.2-0.4,0.4-0.6,0.6c-0.3,0.2-0.7,0.3-1.1,0.3c-0.7,0-1.4-0.3-1.8-0.8c-0.5-0.6-0.8-1.3-0.7-2.1c0-0.8,0.2-1.6,0.7-2.2 c0.5-0.6,1.2-0.9,2-0.8c0.6,0,1.2,0.2,1.7,0.5c0.4,0.3,0.7,0.8,0.7,1.4L77.9,12.2z"/> <path d="M80.4,10.5h1.2l2.2,3.9v-3.9h1.1v5.6h-1.2l-2.3-4v4h-1.1L80.4,10.5z"/> </svg>