<svg width="1857" height="375" viewBox="0 0 1857 375" fill="none" xmlns="http://www.w3.org/2000/svg">
<g clip-path="url(#clip0_1_2)">
<path d="M184 123.9C187.258 123.9 189.9 121.258 189.9 118C189.9 114.742 187.258 112.1 184 112.1C180.742 112.1 178.1 114.742 178.1 118C178.1 121.258 180.742 123.9 184 123.9Z" fill="#3D82FF" stroke="white" stroke-miterlimit="10"/>
<path d="M184 120.5C185.381 120.5 186.5 119.381 186.5 118C186.5 116.619 185.381 115.5 184 115.5C182.619 115.5 181.5 116.619 181.5 118C181.5 119.381 182.619 120.5 184 120.5Z" fill="#3D82FF" stroke="white" stroke-miterlimit="10"/>
<path d="M175 159.9C178.258 159.9 180.9 157.258 180.9 154C180.9 150.742 178.258 148.1 175 148.1C171.742 148.1 169.1 150.742 169.1 154C169.1 157.258 171.742 159.9 175 159.9Z" fill="#3D82FF" stroke="white" stroke-miterlimit="10"/>
<path d="M175 156.5C176.381 156.5 177.5 155.381 177.5 154C177.5 152.619 176.381 151.5 175 151.5C173.619 151.5 172.5 152.619 172.5 154C172.5 155.381 173.619 156.5 175 156.5Z" fill="#3D82FF" stroke="white" stroke-miterlimit="10"/>
<path d="M127 228.9C130.258 228.9 132.9 226.258 132.9 223C132.9 219.742 130.258 217.1 127 217.1C123.742 217.1 121.1 219.742 121.1 223C121.1 226.258 123.742 228.9 127 228.9Z" fill="#3D82FF" stroke="white" stroke-miterlimit="10"/>
<path d="M127 225.5C128.381 225.5 129.5 224.381 129.5 223C129.5 221.619 128.381 220.5 127 220.5C125.619 220.5 124.5 221.619 124.5 223C124.5 224.381 125.619 225.5 127 225.5Z" fill="#3D82FF" stroke="white" stroke-miterlimit="10"/>
<path d="M157 166.9C160.258 166.9 162.9 164.258 162.9 161C162.9 157.742 160.258 155.1 157 155.1C153.742 155.1 151.1 157.742 151.1 161C151.1 164.258 153.742 166.9 157 166.9Z" fill="#3D82FF" stroke="white" stroke-miterlimit="10"/>
<path d="M157 163.5C158.381 163.5 159.5 162.381 159.5 161C159.5 159.619 158.381 158.5 157 158.5C155.619 158.5 154.5 159.619 154.5 161C154.5 162.381 155.619 163.5 157 163.5Z" fill="#3D82FF" stroke="white" stroke-miterlimit="10"/>
<path d="M230.5 0.5H220.5V10.5H230.5V0.5Z" fill="#3D82FF" stroke="white" stroke-miterlimit="10"/>
<path d="M237.5 0.5H227.5V10.5H237.5V0.5Z" fill="#3D82FF" stroke="white" stroke-miterlimit="10"/>
<path d="M198.5 76.5H188.5V86.5H198.5V76.5Z" fill="#3D82FF" stroke="white" stroke-miterlimit="10"/>
<path d="M204.5 169.5H194.5V179.5H204.5V169.5Z" fill="#3D82FF" stroke="white" stroke-miterlimit="10"/>
<path d="M115.5 190.5H105.5V200.5H115.5V190.5Z" fill="#3D82FF" stroke="white" stroke-miterlimit="10"/>
<path d="M204.5 190.5H194.5V200.5H204.5V190.5Z" fill="#3D82FF" stroke="white" stroke-miterlimit="10"/>
<path d="M219.5 190.5H209.5V200.5H219.5V190.5Z" fill="#3D82FF" stroke="white" stroke-miterlimit="10"/>
<path d="M209.5 238.5H199.5V248.5H209.5V238.5Z" fill="#3D82FF" stroke="white" stroke-miterlimit="10"/>
<path d="M182.5 258.5H172.5V268.5H182.5V258.5Z" fill="#3D82FF" stroke="white" stroke-miterlimit="10"/>
<path d="M174.5 276.5H164.5V286.5H174.5V276.5Z" fill="#3D82FF" stroke="white" stroke-miterlimit="10"/>
<path d="M271.5 276.5H261.5V286.5H271.5V276.5Z" fill="#3D82FF" stroke="white" stroke-miterlimit="10"/>
<path d="M276.5 260.5H266.5V270.5H276.5V260.5Z" fill="#3D82FF" stroke="white" stroke-miterlimit="10"/>
<path d="M336.5 20.5H326.5V30.5H336.5V20.5Z" fill="#3D82FF" stroke="white" stroke-miterlimit="10"/>
<path d="M354.5 29.5H344.5V39.5H354.5V29.5Z" fill="#3D82FF" stroke="white" stroke-miterlimit="10"/>
<path d="M361.5 49.5H351.5V59.5H361.5V49.5Z" fill="#3D82FF" stroke="white" stroke-miterlimit="10"/>
<path d="M287.5 238.5H277.5V248.5H287.5V238.5Z" fill="#3D82FF" stroke="white" stroke-miterlimit="10"/>
<path d="M340.5 246.5H330.5V256.5H340.5V246.5Z" fill="#3D82FF" stroke="white" stroke-miterlimit="10"/>
<path d="M308.5 278.5H298.5V288.5H308.5V278.5Z" fill="#3D82FF" stroke="white" stroke-miterlimit="10"/>
<path d="M370.5 221.5H360.5V231.5H370.5V221.5Z" fill="#3D82FF" stroke="white" stroke-miterlimit="10"/>
<path d="M475.5 93.5H465.5V103.5H475.5V93.5Z" fill="#3D82FF" stroke="white" stroke-miterlimit="10"/>
<path d="M478.5 115.5H468.5V125.5H478.5V115.5Z" fill="#3D82FF" stroke="white" stroke-miterlimit="10"/>
<path d="M520.5 105.5H510.5V115.5H520.5V105.5Z" fill="#3D82FF" stroke="white" stroke-miterlimit="10"/>
<path d="M570.5 82.5H560.5V92.5H570.5V82.5Z" fill="#3D82FF" stroke="white" stroke-miterlimit="10"/>
<path d="M588.5 105.5H578.5V115.5H588.5V105.5Z" fill="#3D82FF" stroke="white" stroke-miterlimit="10"/>
<path d="M565.5 130.5H555.5V140.5H565.5V130.5Z" fill="#3D82FF" stroke="white" stroke-miterlimit="10"/>
<path d="M550.5 118.5H540.5V128.5H550.5V118.5Z" fill="#3D82FF" stroke="white" stroke-miterlimit="10"/>
<path d="M550.5 103.5H540.5V113.5H550.5V103.5Z" fill="#3D82FF" stroke="white" stroke-miterlimit="10"/>
<path d="M548.5 151.5H538.5V161.5H548.5V151.5Z" fill="#3D82FF" stroke="white" stroke-miterlimit="10"/>
<path d="M508.5 144.5H498.5V154.5H508.5V144.5Z" fill="#3D82FF" stroke="white" stroke-miterlimit="10"/>
<path d="M439.5 178.5H429.5V188.5H439.5V178.5Z" fill="#3D82FF" stroke="white" stroke-miterlimit="10"/>
<path d="M399.5 169.5H389.5V179.5H399.5V169.5Z" fill="#3D82FF" stroke="white" stroke-miterlimit="10"/>
<path d="M420.5 214.5H410.5V224.5H420.5V214.5Z" fill="#3D82FF" stroke="white" stroke-miterlimit="10"/>
<path d="M468.5 208.5H458.5V218.5H468.5V208.5Z" fill="#3D82FF" stroke="white" stroke-miterlimit="10"/>
<path d="M470.5 230.5H460.5V240.5H470.5V230.5Z" fill="#3D82FF" stroke="white" stroke-miterlimit="10"/>
<path d="M444.5 225.5H434.5V235.5H444.5V225.5Z" fill="#3D82FF" stroke="white" stroke-miterlimit="10"/>
<path d="M420.5 241.5H410.5V251.5H420.5V241.5Z" fill="#3D82FF" stroke="white" stroke-miterlimit="10"/>
<path d="M444.5 255.5H434.5V265.5H444.5V255.5Z" fill="#3D82FF" stroke="white" stroke-miterlimit="10"/>
<path d="M498.5 263.5H488.5V273.5H498.5V263.5Z" fill="#3D82FF" stroke="white" stroke-miterlimit="10"/>
<path d="M541.5 299.5H531.5V309.5H541.5V299.5Z" fill="#3D82FF" stroke="white" stroke-miterlimit="10"/>
<path d="M383.5 256.5H373.5V266.5H383.5V256.5Z" fill="#3D82FF" stroke="white" stroke-miterlimit="10"/>
<path d="M395.5 282.5H385.5V292.5H395.5V282.5Z" fill="#3D82FF" stroke="white" stroke-miterlimit="10"/>
<path d="M410.5 292.5H400.5V302.5H410.5V292.5Z" fill="#3D82FF" stroke="white" stroke-miterlimit="10"/>
<path d="M425.5 294.5H415.5V304.5H425.5V294.5Z" fill="#3D82FF" stroke="white" stroke-miterlimit="10"/>
<path d="M485.5 304.5H475.5V314.5H485.5V304.5Z" fill="#3D82FF" stroke="white" stroke-miterlimit="10"/>
<path d="M503.5 314.5H493.5V324.5H503.5V314.5Z" fill="#3D82FF" stroke="white" stroke-miterlimit="10"/>
<path d="M444.5 343.5H434.5V353.5H444.5V343.5Z" fill="#3D82FF" stroke="white" stroke-miterlimit="10"/>
<path d="M390.5 319.5H380.5V329.5H390.5V319.5Z" fill="#3D82FF" stroke="white" stroke-miterlimit="10"/>
<path d="M354.5 333.5H344.5V343.5H354.5V333.5Z" fill="#3D82FF" stroke="white" stroke-miterlimit="10"/>
<path d="M439.5 364.5H429.5V374.5H439.5V364.5Z" fill="#3D82FF" stroke="white" stroke-miterlimit="10"/>
<path d="M672.5 93.5H662.5V103.5H672.5V93.5Z" fill="#3D82FF" stroke="white" stroke-miterlimit="10"/>
<path d="M741.5 107.5H731.5V117.5H741.5V107.5Z" fill="#3D82FF" stroke="white" stroke-miterlimit="10"/>
<path d="M827.5 90.5H817.5V100.5H827.5V90.5Z" fill="#3D82FF" stroke="white" stroke-miterlimit="10"/>
<path d="M809.5 130.5H799.5V140.5H809.5V130.5Z" fill="#3D82FF" stroke="white" stroke-miterlimit="10"/>
<path d="M758.5 116.5H748.5V126.5H758.5V116.5Z" fill="#3D82FF" stroke="white" stroke-miterlimit="10"/>
<path d="M767.5 137.5H757.5V147.5H767.5V137.5Z" fill="#3D82FF" stroke="white" stroke-miterlimit="10"/>
<path d="M713.5 276.5H703.5V286.5H713.5V276.5Z" fill="#3D82FF" stroke="white" stroke-miterlimit="10"/>
<path d="M753.5 276.5H743.5V286.5H753.5V276.5Z" fill="#3D82FF" stroke="white" stroke-miterlimit="10"/>
<path d="M790.5 183.5H780.5V193.5H790.5V183.5Z" fill="#3D82FF" stroke="white" stroke-miterlimit="10"/>
<path d="M853.5 118.5H843.5V128.5H853.5V118.5Z" fill="#3D82FF" stroke="white" stroke-miterlimit="10"/>
<path d="M847.5 135.5H837.5V145.5H847.5V135.5Z" fill="#3D82FF" stroke="white" stroke-miterlimit="10"/>
<path d="M867.5 151.5H857.5V161.5H867.5V151.5Z" fill="#3D82FF" stroke="white" stroke-miterlimit="10"/>
<path d="M893.5 123.5H883.5V133.5H893.5V123.5Z" fill="#3D82FF" stroke="white" stroke-miterlimit="10"/>
<path d="M858.5 95.5H848.5V105.5H858.5V95.5Z" fill="#3D82FF" stroke="white" stroke-miterlimit="10"/>
<path d="M894.5 108.5H884.5V118.5H894.5V108.5Z" fill="#3D82FF" stroke="white" stroke-miterlimit="10"/>
<path d="M981.5 89.5H971.5V99.5H981.5V89.5Z" fill="#3D82FF" stroke="white" stroke-miterlimit="10"/>
<path d="M947.5 62.5H937.5V72.5H947.5V62.5Z" fill="#3D82FF" stroke="white" stroke-miterlimit="10"/>
<path d="M1662.5 61.5H1652.5V71.5H1662.5V61.5Z" fill="#3D82FF" stroke="white" stroke-miterlimit="10"/>
<path d="M993.5 62.5H983.5V72.5H993.5V62.5Z" fill="#3D82FF" stroke="white" stroke-miterlimit="10"/>
<path d="M1708.5 61.5H1698.5V71.5H1708.5V61.5Z" fill="#3D82FF" stroke="white" stroke-miterlimit="10"/>
<path d="M1814.5 129.5H1804.5V139.5H1814.5V129.5Z" fill="#3D82FF" stroke="white" stroke-miterlimit="10"/>
<path d="M1824.5 129.5H1814.5V139.5H1824.5V129.5Z" fill="#3D82FF" stroke="white" stroke-miterlimit="10"/>
<path d="M1829.5 162.5H1819.5V172.5H1829.5V162.5Z" fill="#3D82FF" stroke="white" stroke-miterlimit="10"/>
<path d="M1856.5 137.5H1846.5V147.5H1856.5V137.5Z" fill="#3D82FF" stroke="white" stroke-miterlimit="10"/>
<path d="M1794.5 94.5H1784.5V104.5H1794.5V94.5Z" fill="#3D82FF" stroke="white" stroke-miterlimit="10"/>
<path d="M1794.5 116.5H1784.5V126.5H1794.5V116.5Z" fill="#3D82FF" stroke="white" stroke-miterlimit="10"/>
<path d="M1742.5 210.5H1732.5V220.5H1742.5V210.5Z" fill="#3D82FF" stroke="white" stroke-miterlimit="10"/>
<path d="M1701.5 220.5H1691.5V230.5H1701.5V220.5Z" fill="#3D82FF" stroke="white" stroke-miterlimit="10"/>
<path d="M1763.5 278.5H1753.5V288.5H1763.5V278.5Z" fill="#3D82FF" stroke="white" stroke-miterlimit="10"/>
<path d="M1779.5 249.5H1769.5V259.5H1779.5V249.5Z" fill="#3D82FF" stroke="white" stroke-miterlimit="10"/>
<path d="M1828.5 223.5H1818.5V233.5H1828.5V223.5Z" fill="#3D82FF" stroke="white" stroke-miterlimit="10"/>
<path d="M1835.5 227.5H1825.5V237.5H1835.5V227.5Z" fill="#3D82FF" stroke="white" stroke-miterlimit="10"/>
<path d="M1010.5 18.5H1000.5V28.5H1010.5V18.5Z" fill="#3D82FF" stroke="white" stroke-miterlimit="10"/>
<path d="M1725.5 17.5H1715.5V27.5H1725.5V17.5Z" fill="#3D82FF" stroke="white" stroke-miterlimit="10"/>
<path d="M1110.5 18.5H1100.5V28.5H1110.5V18.5Z" fill="#3D82FF" stroke="white" stroke-miterlimit="10"/>
<path d="M1081.5 96.5H1071.5V106.5H1081.5V96.5Z" fill="#3D82FF" stroke="white" stroke-miterlimit="10"/>
<path d="M1130.5 96.5H1120.5V106.5H1130.5V96.5Z" fill="#3D82FF" stroke="white" stroke-miterlimit="10"/>
<path d="M1120.5 118.5H1110.5V128.5H1120.5V118.5Z" fill="#3D82FF" stroke="white" stroke-miterlimit="10"/>
<path d="M1062.5 118.5H1052.5V128.5H1062.5V118.5Z" fill="#3D82FF" stroke="white" stroke-miterlimit="10"/>
<path d="M1149.5 20.5H1139.5V30.5H1149.5V20.5Z" fill="#3D82FF" stroke="white" stroke-miterlimit="10"/>
<path d="M1236.5 5.5H1226.5V15.5H1236.5V5.5Z" fill="#3D82FF" stroke="white" stroke-miterlimit="10"/>
<path d="M1169.5 30.5H1159.5V40.5H1169.5V30.5Z" fill="#3D82FF" stroke="white" stroke-miterlimit="10"/>
<path d="M1177.5 47.5H1167.5V57.5H1177.5V47.5Z" fill="#3D82FF" stroke="white" stroke-miterlimit="10"/>
<path d="M1088.5 276.5H1078.5V286.5H1088.5V276.5Z" fill="#3D82FF" stroke="white" stroke-miterlimit="10"/>
<path d="M1130.5 276.5H1120.5V286.5H1130.5V276.5Z" fill="#3D82FF" stroke="white" stroke-miterlimit="10"/>
<path d="M1164.5 185.5H1154.5V195.5H1164.5V185.5Z" fill="#3D82FF" stroke="white" stroke-miterlimit="10"/>
<path d="M1231.5 121.5H1221.5V131.5H1231.5V121.5Z" fill="#3D82FF" stroke="white" stroke-miterlimit="10"/>
<path d="M1241.5 140.5H1231.5V150.5H1241.5V140.5Z" fill="#3D82FF" stroke="white" stroke-miterlimit="10"/>
<path d="M1320.5 107.5H1310.5V117.5H1320.5V107.5Z" fill="#3D82FF" stroke="white" stroke-miterlimit="10"/>
<path d="M1339.5 119.5H1329.5V129.5H1339.5V119.5Z" fill="#3D82FF" stroke="white" stroke-miterlimit="10"/>
<path d="M1344.5 137.5H1334.5V147.5H1344.5V137.5Z" fill="#3D82FF" stroke="white" stroke-miterlimit="10"/>
<path d="M1289.5 276.5H1279.5V286.5H1289.5V276.5Z" fill="#3D82FF" stroke="white" stroke-miterlimit="10"/>
<path d="M1329.5 276.5H1319.5V286.5H1329.5V276.5Z" fill="#3D82FF" stroke="white" stroke-miterlimit="10"/>
<path d="M1366.5 184.5H1356.5V194.5H1366.5V184.5Z" fill="#3D82FF" stroke="white" stroke-miterlimit="10"/>
<path d="M1424.5 124.5H1414.5V134.5H1424.5V124.5Z" fill="#3D82FF" stroke="white" stroke-miterlimit="10"/>
<path d="M1439.5 140.5H1429.5V150.5H1439.5V140.5Z" fill="#3D82FF" stroke="white" stroke-miterlimit="10"/>
<path d="M1387.5 276.5H1377.5V286.5H1387.5V276.5Z" fill="#3D82FF" stroke="white" stroke-miterlimit="10"/>
<path d="M1427.5 276.5H1417.5V286.5H1427.5V276.5Z" fill="#3D82FF" stroke="white" stroke-miterlimit="10"/>
<path d="M1464.5 181.5H1454.5V191.5H1464.5V181.5Z" fill="#3D82FF" stroke="white" stroke-miterlimit="10"/>
<path d="M1523.5 124.5H1513.5V134.5H1523.5V124.5Z" fill="#3D82FF" stroke="white" stroke-miterlimit="10"/>
<path d="M1537.5 140.5H1527.5V150.5H1537.5V140.5Z" fill="#3D82FF" stroke="white" stroke-miterlimit="10"/>
<path d="M1476.5 140.5H1466.5V150.5H1476.5V140.5Z" fill="#3D82FF" stroke="white" stroke-miterlimit="10"/>
<path d="M1481.5 132.5H1471.5V142.5H1481.5V132.5Z" fill="#3D82FF" stroke="white" stroke-miterlimit="10"/>
<path d="M1444.5 94.5H1434.5V104.5H1444.5V94.5Z" fill="#3D82FF" stroke="white" stroke-miterlimit="10"/>
<path d="M1542.5 94.5H1532.5V104.5H1542.5V94.5Z" fill="#3D82FF" stroke="white" stroke-miterlimit="10"/>
<path d="M1575.5 147.5H1565.5V157.5H1575.5V147.5Z" fill="#3D82FF" stroke="white" stroke-miterlimit="10"/>
<path d="M1538.5 235.5H1528.5V245.5H1538.5V235.5Z" fill="#3D82FF" stroke="white" stroke-miterlimit="10"/>
<path d="M1498.5 235.5H1488.5V245.5H1498.5V235.5Z" fill="#3D82FF" stroke="white" stroke-miterlimit="10"/>
<path d="M1523.5 278.5H1513.5V288.5H1523.5V278.5Z" fill="#3D82FF" stroke="white" stroke-miterlimit="10"/>
<path d="M1547.5 249.5H1537.5V259.5H1547.5V249.5Z" fill="#3D82FF" stroke="white" stroke-miterlimit="10"/>
<path d="M1580.5 220.5H1570.5V230.5H1580.5V220.5Z" fill="#3D82FF" stroke="white" stroke-miterlimit="10"/>
<path d="M1612.5 107.5H1602.5V117.5H1612.5V107.5Z" fill="#3D82FF" stroke="white" stroke-miterlimit="10"/>
<path d="M1696.5 90.5H1686.5V100.5H1696.5V90.5Z" fill="#3D82FF" stroke="white" stroke-miterlimit="10"/>
<path d="M1628.5 116.5H1618.5V126.5H1628.5V116.5Z" fill="#3D82FF" stroke="white" stroke-miterlimit="10"/>
<path d="M1638.5 136.5H1628.5V146.5H1638.5V136.5Z" fill="#3D82FF" stroke="white" stroke-miterlimit="10"/>
<path d="M1586.5 225.5H1576.5V235.5H1586.5V225.5Z" fill="#3D82FF" stroke="white" stroke-miterlimit="10"/>
<path d="M1385.5 132.5H1375.5V142.5H1385.5V132.5Z" fill="#3D82FF" stroke="white" stroke-miterlimit="10"/>
<path d="M1402.5 90.5H1392.5V100.5H1402.5V90.5Z" fill="#3D82FF" stroke="white" stroke-miterlimit="10"/>
<path d="M1204.5 234.5H1194.5V244.5H1204.5V234.5Z" fill="#3D82FF" stroke="white" stroke-miterlimit="10"/>
<path d="M1231.5 278.5H1221.5V288.5H1231.5V278.5Z" fill="#3D82FF" stroke="white" stroke-miterlimit="10"/>
<path d="M1251.5 249.5H1241.5V259.5H1251.5V249.5Z" fill="#3D82FF" stroke="white" stroke-miterlimit="10"/>
<path d="M1284.5 220.5H1274.5V230.5H1284.5V220.5Z" fill="#3D82FF" stroke="white" stroke-miterlimit="10"/>
<path d="M1291.5 225.5H1281.5V235.5H1291.5V225.5Z" fill="#3D82FF" stroke="white" stroke-miterlimit="10"/>
<path d="M1279.5 150.5H1269.5V160.5H1279.5V150.5Z" fill="#3D82FF" stroke="white" stroke-miterlimit="10"/>
<path d="M1243.5 94.5H1233.5V104.5H1243.5V94.5Z" fill="#3D82FF" stroke="white" stroke-miterlimit="10"/>
<path d="M1185.5 132.5H1175.5V142.5H1185.5V132.5Z" fill="#3D82FF" stroke="white" stroke-miterlimit="10"/>
<path d="M1243.5 236.5H1233.5V246.5H1243.5V236.5Z" fill="#3D82FF" stroke="white" stroke-miterlimit="10"/>
<path d="M1074.5 118.5H1064.5V128.5H1074.5V118.5Z" fill="#3D82FF" stroke="white" stroke-miterlimit="10"/>
<path d="M1031.5 118.5H1021.5V128.5H1031.5V118.5Z" fill="#3D82FF" stroke="white" stroke-miterlimit="10"/>
<path d="M995.5 212.5H985.5V222.5H995.5V212.5Z" fill="#3D82FF" stroke="white" stroke-miterlimit="10"/>
<path d="M1033.5 222.5H1023.5V232.5H1033.5V222.5Z" fill="#3D82FF" stroke="white" stroke-miterlimit="10"/>
<path d="M1040.5 244.5H1030.5V254.5H1040.5V244.5Z" fill="#3D82FF" stroke="white" stroke-miterlimit="10"/>
<path d="M1076.5 218.5H1066.5V228.5H1076.5V218.5Z" fill="#3D82FF" stroke="white" stroke-miterlimit="10"/>
<path d="M1083.5 223.5H1073.5V233.5H1083.5V223.5Z" fill="#3D82FF" stroke="white" stroke-miterlimit="10"/>
<path d="M1017.5 278.5H1007.5V288.5H1017.5V278.5Z" fill="#3D82FF" stroke="white" stroke-miterlimit="10"/>
<path d="M987.5 118.5H977.5V128.5H987.5V118.5Z" fill="#3D82FF" stroke="white" stroke-miterlimit="10"/>
<path d="M966.5 18.5H956.5V28.5H966.5V18.5Z" fill="#3D82FF" stroke="white" stroke-miterlimit="10"/>
<path d="M1681.5 17.5H1671.5V27.5H1681.5V17.5Z" fill="#3D82FF" stroke="white" stroke-miterlimit="10"/>
<path d="M911.5 116.5H901.5V126.5H911.5V116.5Z" fill="#3D82FF" stroke="white" stroke-miterlimit="10"/>
<path d="M922.5 135.5H912.5V145.5H922.5V135.5Z" fill="#3D82FF" stroke="white" stroke-miterlimit="10"/>
<path d="M880.5 237.5H870.5V247.5H880.5V237.5Z" fill="#3D82FF" stroke="white" stroke-miterlimit="10"/>
<path d="M1596.5 237.5H1586.5V247.5H1596.5V237.5Z" fill="#3D82FF" stroke="white" stroke-miterlimit="10"/>
<path d="M923.5 232.5H913.5V242.5H923.5V232.5Z" fill="#3D82FF" stroke="white" stroke-miterlimit="10"/>
<path d="M1639.5 232.5H1629.5V242.5H1639.5V232.5Z" fill="#3D82FF" stroke="white" stroke-miterlimit="10"/>
<path d="M929.5 249.5H919.5V259.5H929.5V249.5Z" fill="#3D82FF" stroke="white" stroke-miterlimit="10"/>
<path d="M1645.5 249.5H1635.5V259.5H1645.5V249.5Z" fill="#3D82FF" stroke="white" stroke-miterlimit="10"/>
<path d="M961.5 222.5H951.5V232.5H961.5V222.5Z" fill="#3D82FF" stroke="white" stroke-miterlimit="10"/>
<path d="M1677.5 222.5H1667.5V232.5H1677.5V222.5Z" fill="#3D82FF" stroke="white" stroke-miterlimit="10"/>
<path d="M970.5 227.5H960.5V237.5H970.5V227.5Z" fill="#3D82FF" stroke="white" stroke-miterlimit="10"/>
<path d="M1686.5 227.5H1676.5V237.5H1686.5V227.5Z" fill="#3D82FF" stroke="white" stroke-miterlimit="10"/>
<path d="M898.5 278.5H888.5V288.5H898.5V278.5Z" fill="#3D82FF" stroke="white" stroke-miterlimit="10"/>
<path d="M1614.5 278.5H1604.5V288.5H1614.5V278.5Z" fill="#3D82FF" stroke="white" stroke-miterlimit="10"/>
<path d="M694.5 151.5H684.5V161.5H694.5V151.5Z" fill="#3D82FF" stroke="white" stroke-miterlimit="10"/>
<path d="M605.5 226.5H595.5V236.5H605.5V226.5Z" fill="#3D82FF" stroke="white" stroke-miterlimit="10"/>
<path d="M630.5 257.5H620.5V267.5H630.5V257.5Z" fill="#3D82FF" stroke="white" stroke-miterlimit="10"/>
<path d="M625.5 280.5H615.5V290.5H625.5V280.5Z" fill="#3D82FF" stroke="white" stroke-miterlimit="10"/>
<path d="M734.5 159.5H724.5V169.5H734.5V159.5Z" fill="#3D82FF" stroke="white" stroke-miterlimit="10"/>
<path d="M565.5 216.5H555.5V226.5H565.5V216.5Z" fill="#3D82FF" stroke="white" stroke-miterlimit="10"/>
<path d="M667.5 115.5H657.5V125.5H667.5V115.5Z" fill="#3D82FF" stroke="white" stroke-miterlimit="10"/>
<path d="M389.5 276.5H379.5V286.5H389.5V276.5Z" fill="#3D82FF" stroke="white" stroke-miterlimit="10"/>
<path d="M533.5 115.5H523.5V125.5H533.5V115.5Z" fill="#3D82FF" stroke="white" stroke-miterlimit="10"/>
<path d="M378.5 226.5H368.5V236.5H378.5V226.5Z" fill="#3D82FF" stroke="white" stroke-miterlimit="10"/>
<path d="M331.5 233.5H321.5V243.5H331.5V233.5Z" fill="#3D82FF" stroke="white" stroke-miterlimit="10"/>
<path d="M420.5 5.5H410.5V15.5H420.5V5.5Z" fill="#3D82FF" stroke="white" stroke-miterlimit="10"/>
<path d="M255.5 238.5H245.5V248.5H255.5V238.5Z" fill="#3D82FF" stroke="white" stroke-miterlimit="10"/>
<path d="M82.5 233.5H72.5V243.5H82.5V233.5Z" fill="#3D82FF" stroke="white" stroke-miterlimit="10"/>
<path d="M15.5 260.5H5.5V270.5H15.5V260.5Z" fill="#3D82FF" stroke="white" stroke-miterlimit="10"/>
<path d="M97.5 260.5H87.5V270.5H97.5V260.5Z" fill="#3D82FF" stroke="white" stroke-miterlimit="10"/>
<path d="M91.5 258.5H81.5V268.5H91.5V258.5Z" fill="#3D82FF" stroke="white" stroke-miterlimit="10"/>
<path d="M10.5 276.5H0.5V286.5H10.5V276.5Z" fill="#3D82FF" stroke="white" stroke-miterlimit="10"/>
<path d="M92.5 276.5H82.5V286.5H92.5V276.5Z" fill="#3D82FF" stroke="white" stroke-miterlimit="10"/>
<path d="M50.5 238.5H40.5V248.5H50.5V238.5Z" fill="#3D82FF" stroke="white" stroke-miterlimit="10"/>
<path d="M132.5 169.5H122.5V179.5H132.5V169.5Z" fill="#3D82FF" stroke="white" stroke-miterlimit="10"/>
<path d="M1057.5 123.57H1073.5" stroke="white" stroke-width="1.85"/>
<path d="M208 196.9C211.258 196.9 213.9 194.258 213.9 191C213.9 187.742 211.258 185.1 208 185.1C204.742 185.1 202.1 187.742 202.1 191C202.1 194.258 204.742 196.9 208 196.9Z" fill="#3D82FF" stroke="white" stroke-width="1.2"/>
<path d="M208 193.5C209.381 193.5 210.5 192.381 210.5 191C210.5 189.619 209.381 188.5 208 188.5C206.619 188.5 205.5 189.619 205.5 191C205.5 192.381 206.619 193.5 208 193.5Z" fill="#3D82FF" stroke="white" stroke-miterlimit="10"/>
<path d="M213 212.9C216.258 212.9 218.9 210.258 218.9 207C218.9 203.742 216.258 201.1 213 201.1C209.742 201.1 207.1 203.742 207.1 207C207.1 210.258 209.742 212.9 213 212.9Z" fill="#3D82FF" stroke="white" stroke-width="1.2"/>
<path d="M213 209.5C214.381 209.5 215.5 208.381 215.5 207C215.5 205.619 214.381 204.5 213 204.5C211.619 204.5 210.5 205.619 210.5 207C210.5 208.381 211.619 209.5 213 209.5Z" fill="#3D82FF" stroke="white" stroke-miterlimit="10"/>
<path d="M186 277.9C189.258 277.9 191.9 275.258 191.9 272C191.9 268.742 189.258 266.1 186 266.1C182.742 266.1 180.1 268.742 180.1 272C180.1 275.258 182.742 277.9 186 277.9Z" fill="#3D82FF" stroke="white" stroke-width="1.2"/>
<path d="M186 274.5C187.381 274.5 188.5 273.381 188.5 272C188.5 270.619 187.381 269.5 186 269.5C184.619 269.5 183.5 270.619 183.5 272C183.5 273.381 184.619 274.5 186 274.5Z" fill="#3D82FF" stroke="white" stroke-miterlimit="10"/>
<path d="M20 277.9C23.2585 277.9 25.9 275.258 25.9 272C25.9 268.742 23.2585 266.1 20 266.1C16.7415 266.1 14.1 268.742 14.1 272C14.1 275.258 16.7415 277.9 20 277.9Z" fill="#3D82FF" stroke="white" stroke-width="1.2"/>
<path d="M20 274.5C21.3807 274.5 22.5 273.381 22.5 272C22.5 270.619 21.3807 269.5 20 269.5C18.6193 269.5 17.5 270.619 17.5 272C17.5 273.381 18.6193 274.5 20 274.5Z" fill="#3D82FF" stroke="white" stroke-miterlimit="10"/>
<path d="M184 279.9C187.258 279.9 189.9 277.258 189.9 274C189.9 270.742 187.258 268.1 184 268.1C180.742 268.1 178.1 270.742 178.1 274C178.1 277.258 180.742 279.9 184 279.9Z" fill="#3D82FF" stroke="white" stroke-width="1.2"/>
<path d="M184 276.5C185.381 276.5 186.5 275.381 186.5 274C186.5 272.619 185.381 271.5 184 271.5C182.619 271.5 181.5 272.619 181.5 274C181.5 275.381 182.619 276.5 184 276.5Z" fill="#3D82FF" stroke="white" stroke-miterlimit="10"/>
<path d="M18 279.9C21.2585 279.9 23.9 277.258 23.9 274C23.9 270.742 21.2585 268.1 18 268.1C14.7415 268.1 12.1 270.742 12.1 274C12.1 277.258 14.7415 279.9 18 279.9Z" fill="#3D82FF" stroke="white" stroke-width="1.2"/>
<path d="M18 276.5C19.3807 276.5 20.5 275.381 20.5 274C20.5 272.619 19.3807 271.5 18 271.5C16.6193 271.5 15.5 272.619 15.5 274C15.5 275.381 16.6193 276.5 18 276.5Z" fill="#3D82FF" stroke="white" stroke-miterlimit="10"/>
<path d="M79 267.9C82.2585 267.9 84.9 265.258 84.9 262C84.9 258.742 82.2585 256.1 79 256.1C75.7415 256.1 73.1 258.742 73.1 262C73.1 265.258 75.7415 267.9 79 267.9Z" fill="#3D82FF" stroke="white" stroke-width="1.2"/>
<path d="M79 264.5C80.3807 264.5 81.5 263.381 81.5 262C81.5 260.619 80.3807 259.5 79 259.5C77.6193 259.5 76.5 260.619 76.5 262C76.5 263.381 77.6193 264.5 79 264.5Z" fill="#3D82FF" stroke="white" stroke-miterlimit="10"/>
<path d="M81 276.9C84.2585 276.9 86.9 274.258 86.9 271C86.9 267.742 84.2585 265.1 81 265.1C77.7415 265.1 75.1 267.742 75.1 271C75.1 274.258 77.7415 276.9 81 276.9Z" fill="#3D82FF" stroke="white" stroke-width="1.2"/>
<path d="M81 273.5C82.3807 273.5 83.5 272.381 83.5 271C83.5 269.619 82.3807 268.5 81 268.5C79.6193 268.5 78.5 269.619 78.5 271C78.5 272.381 79.6193 273.5 81 273.5Z" fill="#3D82FF" stroke="white" stroke-miterlimit="10"/>
<path d="M257 270.9C260.258 270.9 262.9 268.258 262.9 265C262.9 261.742 260.258 259.1 257 259.1C253.742 259.1 251.1 261.742 251.1 265C251.1 268.258 253.742 270.9 257 270.9Z" fill="#3D82FF" stroke="white" stroke-width="1.2"/>
<path d="M257 267.5C258.381 267.5 259.5 266.381 259.5 265C259.5 263.619 258.381 262.5 257 262.5C255.619 262.5 254.5 263.619 254.5 265C254.5 266.381 255.619 267.5 257 267.5Z" fill="#3D82FF" stroke="white" stroke-miterlimit="10"/>
<path d="M349 32.9C352.258 32.9 354.9 30.2585 354.9 27C354.9 23.7415 352.258 21.1 349 21.1C345.742 21.1 343.1 23.7415 343.1 27C343.1 30.2585 345.742 32.9 349 32.9Z" fill="#3D82FF" stroke="white" stroke-width="1.2"/>
<path d="M349 29.5C350.381 29.5 351.5 28.3807 351.5 27C351.5 25.6193 350.381 24.5 349 24.5C347.619 24.5 346.5 25.6193 346.5 27C346.5 28.3807 347.619 29.5 349 29.5Z" fill="#3D82FF" stroke="white" stroke-miterlimit="10"/>
<path d="M383 42.9C386.258 42.9 388.9 40.2585 388.9 37C388.9 33.7415 386.258 31.1 383 31.1C379.742 31.1 377.1 33.7415 377.1 37C377.1 40.2585 379.742 42.9 383 42.9Z" fill="#3D82FF" stroke="white" stroke-width="1.2"/>
<path d="M383 39.5C384.381 39.5 385.5 38.3807 385.5 37C385.5 35.6193 384.381 34.5 383 34.5C381.619 34.5 380.5 35.6193 380.5 37C380.5 38.3807 381.619 39.5 383 39.5Z" fill="#3D82FF" stroke="white" stroke-miterlimit="10"/>
<path d="M510 85.9C513.258 85.9 515.9 83.2585 515.9 80C515.9 76.7415 513.258 74.1 510 74.1C506.742 74.1 504.1 76.7415 504.1 80C504.1 83.2585 506.742 85.9 510 85.9Z" fill="#3D82FF" stroke="white" stroke-width="1.2"/>
<path d="M510 82.5C511.381 82.5 512.5 81.3807 512.5 80C512.5 78.6193 511.381 77.5 510 77.5C508.619 77.5 507.5 78.6193 507.5 80C507.5 81.3807 508.619 82.5 510 82.5Z" fill="#3D82FF" stroke="white" stroke-miterlimit="10"/>
<path d="M757 120.9C760.258 120.9 762.9 118.258 762.9 115C762.9 111.742 760.258 109.1 757 109.1C753.742 109.1 751.1 111.742 751.1 115C751.1 118.258 753.742 120.9 757 120.9Z" fill="#3D82FF" stroke="white" stroke-width="1.2"/>
<path d="M757 117.5C758.381 117.5 759.5 116.381 759.5 115C759.5 113.619 758.381 112.5 757 112.5C755.619 112.5 754.5 113.619 754.5 115C754.5 116.381 755.619 117.5 757 117.5Z" fill="#3D82FF" stroke="white" stroke-miterlimit="10"/>
<path d="M789 126.9C792.258 126.9 794.9 124.258 794.9 121C794.9 117.742 792.258 115.1 789 115.1C785.742 115.1 783.1 117.742 783.1 121C783.1 124.258 785.742 126.9 789 126.9Z" fill="#3D82FF" stroke="white" stroke-width="1.2"/>
<path d="M789 123.5C790.381 123.5 791.5 122.381 791.5 121C791.5 119.619 790.381 118.5 789 118.5C787.619 118.5 786.5 119.619 786.5 121C786.5 122.381 787.619 123.5 789 123.5Z" fill="#3D82FF" stroke="white" stroke-miterlimit="10"/>
<path d="M764 118.9C767.258 118.9 769.9 116.258 769.9 113C769.9 109.742 767.258 107.1 764 107.1C760.742 107.1 758.1 109.742 758.1 113C758.1 116.258 760.742 118.9 764 118.9Z" fill="#3D82FF" stroke="white" stroke-width="1.2"/>
<path d="M764 115.5C765.381 115.5 766.5 114.381 766.5 113C766.5 111.619 765.381 110.5 764 110.5C762.619 110.5 761.5 111.619 761.5 113C761.5 114.381 762.619 115.5 764 115.5Z" fill="#3D82FF" stroke="white" stroke-miterlimit="10"/>
<path d="M817 176.9C820.258 176.9 822.9 174.258 822.9 171C822.9 167.742 820.258 165.1 817 165.1C813.742 165.1 811.1 167.742 811.1 171C811.1 174.258 813.742 176.9 817 176.9Z" fill="#3D82FF" stroke="white" stroke-width="1.2"/>
<path d="M817 173.5C818.381 173.5 819.5 172.381 819.5 171C819.5 169.619 818.381 168.5 817 168.5C815.619 168.5 814.5 169.619 814.5 171C814.5 172.381 815.619 173.5 817 173.5Z" fill="#3D82FF" stroke="white" stroke-miterlimit="10"/>
<path d="M837 130.9C840.258 130.9 842.9 128.258 842.9 125C842.9 121.742 840.258 119.1 837 119.1C833.742 119.1 831.1 121.742 831.1 125C831.1 128.258 833.742 130.9 837 130.9Z" fill="#3D82FF" stroke="white" stroke-width="1.2"/>
<path d="M837 127.5C838.381 127.5 839.5 126.381 839.5 125C839.5 123.619 838.381 122.5 837 122.5C835.619 122.5 834.5 123.619 834.5 125C834.5 126.381 835.619 127.5 837 127.5Z" fill="#3D82FF" stroke="white" stroke-miterlimit="10"/>
<path d="M841 136.9C844.258 136.9 846.9 134.258 846.9 131C846.9 127.742 844.258 125.1 841 125.1C837.742 125.1 835.1 127.742 835.1 131C835.1 134.258 837.742 136.9 841 136.9Z" fill="#3D82FF" stroke="white" stroke-width="1.2"/>
<path d="M841 133.5C842.381 133.5 843.5 132.381 843.5 131C843.5 129.619 842.381 128.5 841 128.5C839.619 128.5 838.5 129.619 838.5 131C838.5 132.381 839.619 133.5 841 133.5Z" fill="#3D82FF" stroke="white" stroke-miterlimit="10"/>
<path d="M849 146.9C852.258 146.9 854.9 144.258 854.9 141C854.9 137.742 852.258 135.1 849 135.1C845.742 135.1 843.1 137.742 843.1 141C843.1 144.258 845.742 146.9 849 146.9Z" fill="#3D82FF" stroke="white" stroke-width="1.2"/>
<path d="M849 143.5C850.381 143.5 851.5 142.381 851.5 141C851.5 139.619 850.381 138.5 849 138.5C847.619 138.5 846.5 139.619 846.5 141C846.5 142.381 847.619 143.5 849 143.5Z" fill="#3D82FF" stroke="white" stroke-miterlimit="10"/>
<path d="M905 119.9C908.258 119.9 910.9 117.258 910.9 114C910.9 110.742 908.258 108.1 905 108.1C901.742 108.1 899.1 110.742 899.1 114C899.1 117.258 901.742 119.9 905 119.9Z" fill="#3D82FF" stroke="white" stroke-width="1.2"/>
<path d="M905 116.5C906.381 116.5 907.5 115.381 907.5 114C907.5 112.619 906.381 111.5 905 111.5C903.619 111.5 902.5 112.619 902.5 114C902.5 115.381 903.619 116.5 905 116.5Z" fill="#3D82FF" stroke="white" stroke-miterlimit="10"/>
<path d="M970 53.9C973.258 53.9 975.9 51.2585 975.9 48C975.9 44.7415 973.258 42.1 970 42.1C966.742 42.1 964.1 44.7415 964.1 48C964.1 51.2585 966.742 53.9 970 53.9Z" fill="#3D82FF" stroke="white" stroke-width="1.2"/>
<path d="M970 50.5C971.381 50.5 972.5 49.3807 972.5 48C972.5 46.6193 971.381 45.5 970 45.5C968.619 45.5 967.5 46.6193 967.5 48C967.5 49.3807 968.619 50.5 970 50.5Z" fill="#3D82FF" stroke="white" stroke-miterlimit="10"/>
<path d="M979 47.9C982.258 47.9 984.9 45.2585 984.9 42C984.9 38.7415 982.258 36.1 979 36.1C975.742 36.1 973.1 38.7415 973.1 42C973.1 45.2585 975.742 47.9 979 47.9Z" fill="#3D82FF" stroke="white" stroke-width="1.2"/>
<path d="M979 44.5C980.381 44.5 981.5 43.3807 981.5 42C981.5 40.6193 980.381 39.5 979 39.5C977.619 39.5 976.5 40.6193 976.5 42C976.5 43.3807 977.619 44.5 979 44.5Z" fill="#3D82FF" stroke="white" stroke-miterlimit="10"/>
<path d="M967 38.9C970.258 38.9 972.9 36.2585 972.9 33C972.9 29.7415 970.258 27.1 967 27.1C963.742 27.1 961.1 29.7415 961.1 33C961.1 36.2585 963.742 38.9 967 38.9Z" fill="#3D82FF" stroke="white" stroke-width="1.2"/>
<path d="M967 35.5C968.381 35.5 969.5 34.3807 969.5 33C969.5 31.6193 968.381 30.5 967 30.5C965.619 30.5 964.5 31.6193 964.5 33C964.5 34.3807 965.619 35.5 967 35.5Z" fill="#3D82FF" stroke="white" stroke-miterlimit="10"/>
<path d="M982 62.9C985.258 62.9 987.9 60.2585 987.9 57C987.9 53.7415 985.258 51.1 982 51.1C978.742 51.1 976.1 53.7415 976.1 57C976.1 60.2585 978.742 62.9 982 62.9Z" fill="#3D82FF" stroke="white" stroke-width="1.2"/>
<path d="M982 59.5C983.381 59.5 984.5 58.3807 984.5 57C984.5 55.6193 983.381 54.5 982 54.5C980.619 54.5 979.5 55.6193 979.5 57C979.5 58.3807 980.619 59.5 982 59.5Z" fill="#3D82FF" stroke="white" stroke-miterlimit="10"/>
<path d="M1621 119.9C1624.26 119.9 1626.9 117.258 1626.9 114C1626.9 110.742 1624.26 108.1 1621 108.1C1617.74 108.1 1615.1 110.742 1615.1 114C1615.1 117.258 1617.74 119.9 1621 119.9Z" fill="#3D82FF" stroke="white" stroke-width="1.2"/>
<path d="M1621 116.5C1622.38 116.5 1623.5 115.381 1623.5 114C1623.5 112.619 1622.38 111.5 1621 111.5C1619.62 111.5 1618.5 112.619 1618.5 114C1618.5 115.381 1619.62 116.5 1621 116.5Z" fill="#3D82FF" stroke="white" stroke-miterlimit="10"/>
<path d="M1686 53.9C1689.26 53.9 1691.9 51.2585 1691.9 48C1691.9 44.7415 1689.26 42.1 1686 42.1C1682.74 42.1 1680.1 44.7415 1680.1 48C1680.1 51.2585 1682.74 53.9 1686 53.9Z" fill="#3D82FF" stroke="white" stroke-width="1.2"/>
<path d="M1686 50.5C1687.38 50.5 1688.5 49.3807 1688.5 48C1688.5 46.6193 1687.38 45.5 1686 45.5C1684.62 45.5 1683.5 46.6193 1683.5 48C1683.5 49.3807 1684.62 50.5 1686 50.5Z" fill="#3D82FF" stroke="white" stroke-miterlimit="10"/>
<path d="M1695 47.9C1698.26 47.9 1700.9 45.2585 1700.9 42C1700.9 38.7415 1698.26 36.1 1695 36.1C1691.74 36.1 1689.1 38.7415 1689.1 42C1689.1 45.2585 1691.74 47.9 1695 47.9Z" fill="#3D82FF" stroke="white" stroke-width="1.2"/>
<path d="M1695 44.5C1696.38 44.5 1697.5 43.3807 1697.5 42C1697.5 40.6193 1696.38 39.5 1695 39.5C1693.62 39.5 1692.5 40.6193 1692.5 42C1692.5 43.3807 1693.62 44.5 1695 44.5Z" fill="#3D82FF" stroke="white" stroke-miterlimit="10"/>
<path d="M1683 38.9C1686.26 38.9 1688.9 36.2585 1688.9 33C1688.9 29.7415 1686.26 27.1 1683 27.1C1679.74 27.1 1677.1 29.7415 1677.1 33C1677.1 36.2585 1679.74 38.9 1683 38.9Z" fill="#3D82FF" stroke="white" stroke-width="1.2"/>
<path d="M1683 35.5C1684.38 35.5 1685.5 34.3807 1685.5 33C1685.5 31.6193 1684.38 30.5 1683 30.5C1681.62 30.5 1680.5 31.6193 1680.5 33C1680.5 34.3807 1681.62 35.5 1683 35.5Z" fill="#3D82FF" stroke="white" stroke-miterlimit="10"/>
<path d="M1698 62.9C1701.26 62.9 1703.9 60.2585 1703.9 57C1703.9 53.7415 1701.26 51.1 1698 51.1C1694.74 51.1 1692.1 53.7415 1692.1 57C1692.1 60.2585 1694.74 62.9 1698 62.9Z" fill="#3D82FF" stroke="white" stroke-width="1.2"/>
<path d="M1698 59.5C1699.38 59.5 1700.5 58.3807 1700.5 57C1700.5 55.6193 1699.38 54.5 1698 54.5C1696.62 54.5 1695.5 55.6193 1695.5 57C1695.5 58.3807 1696.62 59.5 1698 59.5Z" fill="#3D82FF" stroke="white" stroke-miterlimit="10"/>
<path d="M1085 64.9C1088.26 64.9 1090.9 62.2585 1090.9 59C1090.9 55.7415 1088.26 53.1 1085 53.1C1081.74 53.1 1079.1 55.7415 1079.1 59C1079.1 62.2585 1081.74 64.9 1085 64.9Z" fill="#3D82FF" stroke="white" stroke-width="1.2"/>
<path d="M1085 61.5C1086.38 61.5 1087.5 60.3807 1087.5 59C1087.5 57.6193 1086.38 56.5 1085 56.5C1083.62 56.5 1082.5 57.6193 1082.5 59C1082.5 60.3807 1083.62 61.5 1085 61.5Z" fill="#3D82FF" stroke="white" stroke-miterlimit="10"/>
<path d="M1023 119.9C1026.26 119.9 1028.9 117.258 1028.9 114C1028.9 110.742 1026.26 108.1 1023 108.1C1019.74 108.1 1017.1 110.742 1017.1 114C1017.1 117.258 1019.74 119.9 1023 119.9Z" fill="#3D82FF" stroke="white" stroke-width="1.2"/>
<path d="M1023 116.5C1024.38 116.5 1025.5 115.381 1025.5 114C1025.5 112.619 1024.38 111.5 1023 111.5C1021.62 111.5 1020.5 112.619 1020.5 114C1020.5 115.381 1021.62 116.5 1023 116.5Z" fill="#3D82FF" stroke="white" stroke-miterlimit="10"/>
<path d="M1109 84.9C1112.26 84.9 1114.9 82.2585 1114.9 79C1114.9 75.7415 1112.26 73.1 1109 73.1C1105.74 73.1 1103.1 75.7415 1103.1 79C1103.1 82.2585 1105.74 84.9 1109 84.9Z" fill="#3D82FF" stroke="white" stroke-width="1.2"/>
<path d="M1109 81.5C1110.38 81.5 1111.5 80.3807 1111.5 79C1111.5 77.6193 1110.38 76.5 1109 76.5C1107.62 76.5 1106.5 77.6193 1106.5 79C1106.5 80.3807 1107.62 81.5 1109 81.5Z" fill="#3D82FF" stroke="white" stroke-miterlimit="10"/>
<path d="M1107 101.9C1110.26 101.9 1112.9 99.2585 1112.9 96C1112.9 92.7415 1110.26 90.1 1107 90.1C1103.74 90.1 1101.1 92.7415 1101.1 96C1101.1 99.2585 1103.74 101.9 1107 101.9Z" fill="#3D82FF" stroke="white" stroke-width="1.2"/>
<path d="M1107 98.5C1108.38 98.5 1109.5 97.3807 1109.5 96C1109.5 94.6193 1108.38 93.5 1107 93.5C1105.62 93.5 1104.5 94.6193 1104.5 96C1104.5 97.3807 1105.62 98.5 1107 98.5Z" fill="#3D82FF" stroke="white" stroke-miterlimit="10"/>
<path d="M1104 125.9C1107.26 125.9 1109.9 123.258 1109.9 120C1109.9 116.742 1107.26 114.1 1104 114.1C1100.74 114.1 1098.1 116.742 1098.1 120C1098.1 123.258 1100.74 125.9 1104 125.9Z" fill="#3D82FF" stroke="white" stroke-width="1.2"/>
<path d="M1104 122.5C1105.38 122.5 1106.5 121.381 1106.5 120C1106.5 118.619 1105.38 117.5 1104 117.5C1102.62 117.5 1101.5 118.619 1101.5 120C1101.5 121.381 1102.62 122.5 1104 122.5Z" fill="#3D82FF" stroke="white" stroke-miterlimit="10"/>
<path d="M1061 131.9C1064.26 131.9 1066.9 129.258 1066.9 126C1066.9 122.742 1064.26 120.1 1061 120.1C1057.74 120.1 1055.1 122.742 1055.1 126C1055.1 129.258 1057.74 131.9 1061 131.9Z" fill="#3D82FF" stroke="white" stroke-width="1.2"/>
<path d="M1061 128.5C1062.38 128.5 1063.5 127.381 1063.5 126C1063.5 124.619 1062.38 123.5 1061 123.5C1059.62 123.5 1058.5 124.619 1058.5 126C1058.5 127.381 1059.62 128.5 1061 128.5Z" fill="#3D82FF" stroke="white" stroke-miterlimit="10"/>
<path d="M1069 137.9C1072.26 137.9 1074.9 135.258 1074.9 132C1074.9 128.742 1072.26 126.1 1069 126.1C1065.74 126.1 1063.1 128.742 1063.1 132C1063.1 135.258 1065.74 137.9 1069 137.9Z" fill="#3D82FF" stroke="white" stroke-width="1.2"/>
<path d="M1069 134.5C1070.38 134.5 1071.5 133.381 1071.5 132C1071.5 130.619 1070.38 129.5 1069 129.5C1067.62 129.5 1066.5 130.619 1066.5 132C1066.5 133.381 1067.62 134.5 1069 134.5Z" fill="#3D82FF" stroke="white" stroke-miterlimit="10"/>
<path d="M993 148.9C996.258 148.9 998.9 146.258 998.9 143C998.9 139.742 996.258 137.1 993 137.1C989.742 137.1 987.1 139.742 987.1 143C987.1 146.258 989.742 148.9 993 148.9Z" fill="#3D82FF" stroke="white" stroke-width="1.2"/>
<path d="M993 145.5C994.381 145.5 995.5 144.381 995.5 143C995.5 141.619 994.381 140.5 993 140.5C991.619 140.5 990.5 141.619 990.5 143C990.5 144.381 991.619 145.5 993 145.5Z" fill="#3D82FF" stroke="white" stroke-miterlimit="10"/>
<path d="M1164 33.9C1167.26 33.9 1169.9 31.2585 1169.9 28C1169.9 24.7415 1167.26 22.1 1164 22.1C1160.74 22.1 1158.1 24.7415 1158.1 28C1158.1 31.2585 1160.74 33.9 1164 33.9Z" fill="#3D82FF" stroke="white" stroke-width="1.2"/>
<path d="M1164 30.5C1165.38 30.5 1166.5 29.3807 1166.5 28C1166.5 26.6193 1165.38 25.5 1164 25.5C1162.62 25.5 1161.5 26.6193 1161.5 28C1161.5 29.3807 1162.62 30.5 1164 30.5Z" fill="#3D82FF" stroke="white" stroke-miterlimit="10"/>
<path d="M1198 41.9C1201.26 41.9 1203.9 39.2585 1203.9 36C1203.9 32.7415 1201.26 30.1 1198 30.1C1194.74 30.1 1192.1 32.7415 1192.1 36C1192.1 39.2585 1194.74 41.9 1198 41.9Z" fill="#3D82FF" stroke="white" stroke-width="1.2"/>
<path d="M1198 38.5C1199.38 38.5 1200.5 37.3807 1200.5 36C1200.5 34.6193 1199.38 33.5 1198 33.5C1196.62 33.5 1195.5 34.6193 1195.5 36C1195.5 37.3807 1196.62 38.5 1198 38.5Z" fill="#3D82FF" stroke="white" stroke-miterlimit="10"/>
<path d="M1195 176.9C1198.26 176.9 1200.9 174.258 1200.9 171C1200.9 167.742 1198.26 165.1 1195 165.1C1191.74 165.1 1189.1 167.742 1189.1 171C1189.1 174.258 1191.74 176.9 1195 176.9Z" fill="#3D82FF" stroke="white" stroke-width="1.2"/>
<path d="M1195 173.5C1196.38 173.5 1197.5 172.381 1197.5 171C1197.5 169.619 1196.38 168.5 1195 168.5C1193.62 168.5 1192.5 169.619 1192.5 171C1192.5 172.381 1193.62 173.5 1195 173.5Z" fill="#3D82FF" stroke="white" stroke-miterlimit="10"/>
<path d="M1398 176.9C1401.26 176.9 1403.9 174.258 1403.9 171C1403.9 167.742 1401.26 165.1 1398 165.1C1394.74 165.1 1392.1 167.742 1392.1 171C1392.1 174.258 1394.74 176.9 1398 176.9Z" fill="#3D82FF" stroke="white" stroke-width="1.2"/>
<path d="M1398 173.5C1399.38 173.5 1400.5 172.381 1400.5 171C1400.5 169.619 1399.38 168.5 1398 168.5C1396.62 168.5 1395.5 169.619 1395.5 171C1395.5 172.381 1396.62 173.5 1398 173.5Z" fill="#3D82FF" stroke="white" stroke-miterlimit="10"/>
<path d="M1438 135.9C1441.26 135.9 1443.9 133.258 1443.9 130C1443.9 126.742 1441.26 124.1 1438 124.1C1434.74 124.1 1432.1 126.742 1432.1 130C1432.1 133.258 1434.74 135.9 1438 135.9Z" fill="#3D82FF" stroke="white" stroke-width="1.2"/>
<path d="M1438 132.5C1439.38 132.5 1440.5 131.381 1440.5 130C1440.5 128.619 1439.38 127.5 1438 127.5C1436.62 127.5 1435.5 128.619 1435.5 130C1435.5 131.381 1436.62 132.5 1438 132.5Z" fill="#3D82FF" stroke="white" stroke-miterlimit="10"/>
<path d="M1495 176.9C1498.26 176.9 1500.9 174.258 1500.9 171C1500.9 167.742 1498.26 165.1 1495 165.1C1491.74 165.1 1489.1 167.742 1489.1 171C1489.1 174.258 1491.74 176.9 1495 176.9Z" fill="#3D82FF" stroke="white" stroke-width="1.2"/>
<path d="M1495 173.5C1496.38 173.5 1497.5 172.381 1497.5 171C1497.5 169.619 1496.38 168.5 1495 168.5C1493.62 168.5 1492.5 169.619 1492.5 171C1492.5 172.381 1493.62 173.5 1495 173.5Z" fill="#3D82FF" stroke="white" stroke-miterlimit="10"/>
<path d="M1189 205.9C1192.26 205.9 1194.9 203.258 1194.9 200C1194.9 196.742 1192.26 194.1 1189 194.1C1185.74 194.1 1183.1 196.742 1183.1 200C1183.1 203.258 1185.74 205.9 1189 205.9Z" fill="#3D82FF" stroke="white" stroke-width="1.2"/>
<path d="M1189 202.5C1190.38 202.5 1191.5 201.381 1191.5 200C1191.5 198.619 1190.38 197.5 1189 197.5C1187.62 197.5 1186.5 198.619 1186.5 200C1186.5 201.381 1187.62 202.5 1189 202.5Z" fill="#3D82FF" stroke="white" stroke-miterlimit="10"/>
<path d="M944 126.9C947.258 126.9 949.9 124.258 949.9 121C949.9 117.742 947.258 115.1 944 115.1C940.742 115.1 938.1 117.742 938.1 121C938.1 124.258 940.742 126.9 944 126.9Z" fill="#3D82FF" stroke="white" stroke-width="1.2"/>
<path d="M944 123.5C945.381 123.5 946.5 122.381 946.5 121C946.5 119.619 945.381 118.5 944 118.5C942.619 118.5 941.5 119.619 941.5 121C941.5 122.381 942.619 123.5 944 123.5Z" fill="#3D82FF" stroke="white" stroke-miterlimit="10"/>
<path d="M1392 205.9C1395.26 205.9 1397.9 203.258 1397.9 200C1397.9 196.742 1395.26 194.1 1392 194.1C1388.74 194.1 1386.1 196.742 1386.1 200C1386.1 203.258 1388.74 205.9 1392 205.9Z" fill="#3D82FF" stroke="white" stroke-width="1.2"/>
<path d="M1392 202.5C1393.38 202.5 1394.5 201.381 1394.5 200C1394.5 198.619 1393.38 197.5 1392 197.5C1390.62 197.5 1389.5 198.619 1389.5 200C1389.5 201.381 1390.62 202.5 1392 202.5Z" fill="#3D82FF" stroke="white" stroke-miterlimit="10"/>
<path d="M1489 205.9C1492.26 205.9 1494.9 203.258 1494.9 200C1494.9 196.742 1492.26 194.1 1489 194.1C1485.74 194.1 1483.1 196.742 1483.1 200C1483.1 203.258 1485.74 205.9 1489 205.9Z" fill="#3D82FF" stroke="white" stroke-width="1.2"/>
<path d="M1489 202.5C1490.38 202.5 1491.5 201.381 1491.5 200C1491.5 198.619 1490.38 197.5 1489 197.5C1487.62 197.5 1486.5 198.619 1486.5 200C1486.5 201.381 1487.62 202.5 1489 202.5Z" fill="#3D82FF" stroke="white" stroke-miterlimit="10"/>
<path d="M1099 249.9C1102.26 249.9 1104.9 247.258 1104.9 244C1104.9 240.742 1102.26 238.1 1099 238.1C1095.74 238.1 1093.1 240.742 1093.1 244C1093.1 247.258 1095.74 249.9 1099 249.9Z" fill="#3D82FF" stroke="white" stroke-width="1.2"/>
<path d="M1099 246.5C1100.38 246.5 1101.5 245.381 1101.5 244C1101.5 242.619 1100.38 241.5 1099 241.5C1097.62 241.5 1096.5 242.619 1096.5 244C1096.5 245.381 1097.62 246.5 1099 246.5Z" fill="#3D82FF" stroke="white" stroke-miterlimit="10"/>
<path d="M1122 266.9C1125.26 266.9 1127.9 264.258 1127.9 261C1127.9 257.742 1125.26 255.1 1122 255.1C1118.74 255.1 1116.1 257.742 1116.1 261C1116.1 264.258 1118.74 266.9 1122 266.9Z" fill="#3D82FF" stroke="white" stroke-width="1.2"/>
<path d="M1122 263.5C1123.38 263.5 1124.5 262.381 1124.5 261C1124.5 259.619 1123.38 258.5 1122 258.5C1120.62 258.5 1119.5 259.619 1119.5 261C1119.5 262.381 1120.62 263.5 1122 263.5Z" fill="#3D82FF" stroke="white" stroke-miterlimit="10"/>
<path d="M1338 120.9C1341.26 120.9 1343.9 118.258 1343.9 115C1343.9 111.742 1341.26 109.1 1338 109.1C1334.74 109.1 1332.1 111.742 1332.1 115C1332.1 118.258 1334.74 120.9 1338 120.9Z" fill="#3D82FF" stroke="white" stroke-width="1.2"/>
<path d="M1338 117.5C1339.38 117.5 1340.5 116.381 1340.5 115C1340.5 113.619 1339.38 112.5 1338 112.5C1336.62 112.5 1335.5 113.619 1335.5 115C1335.5 116.381 1336.62 117.5 1338 117.5Z" fill="#3D82FF" stroke="white" stroke-miterlimit="10"/>
<path d="M1660 126.9C1663.26 126.9 1665.9 124.258 1665.9 121C1665.9 117.742 1663.26 115.1 1660 115.1C1656.74 115.1 1654.1 117.742 1654.1 121C1654.1 124.258 1656.74 126.9 1660 126.9Z" fill="#3D82FF" stroke="white" stroke-width="1.2"/>
<path d="M1660 123.5C1661.38 123.5 1662.5 122.381 1662.5 121C1662.5 119.619 1661.38 118.5 1660 118.5C1658.62 118.5 1657.5 119.619 1657.5 121C1657.5 122.381 1658.62 123.5 1660 123.5Z" fill="#3D82FF" stroke="white" stroke-miterlimit="10"/>
<path d="M1811 132.9C1814.26 132.9 1816.9 130.258 1816.9 127C1816.9 123.742 1814.26 121.1 1811 121.1C1807.74 121.1 1805.1 123.742 1805.1 127C1805.1 130.258 1807.74 132.9 1811 132.9Z" fill="#3D82FF" stroke="white" stroke-width="1.2"/>
<path d="M1811 129.5C1812.38 129.5 1813.5 128.381 1813.5 127C1813.5 125.619 1812.38 124.5 1811 124.5C1809.62 124.5 1808.5 125.619 1808.5 127C1808.5 128.381 1809.62 129.5 1811 129.5Z" fill="#3D82FF" stroke="white" stroke-miterlimit="10"/>
<path d="M1820 149.9C1823.26 149.9 1825.9 147.258 1825.9 144C1825.9 140.742 1823.26 138.1 1820 138.1C1816.74 138.1 1814.1 140.742 1814.1 144C1814.1 147.258 1816.74 149.9 1820 149.9Z" fill="#3D82FF" stroke="white" stroke-width="1.2"/>
<path d="M1820 146.5C1821.38 146.5 1822.5 145.381 1822.5 144C1822.5 142.619 1821.38 141.5 1820 141.5C1818.62 141.5 1817.5 142.619 1817.5 144C1817.5 145.381 1818.62 146.5 1820 146.5Z" fill="#3D82FF" stroke="white" stroke-miterlimit="10"/>
<path d="M820 119.9C823.258 119.9 825.9 117.258 825.9 114C825.9 110.742 823.258 108.1 820 108.1C816.742 108.1 814.1 110.742 814.1 114C814.1 117.258 816.742 119.9 820 119.9Z" fill="#3D82FF" stroke="white" stroke-width="1.2"/>
<path d="M820 116.5C821.381 116.5 822.5 115.381 822.5 114C822.5 112.619 821.381 111.5 820 111.5C818.619 111.5 817.5 112.619 817.5 114C817.5 115.381 818.619 116.5 820 116.5Z" fill="#3D82FF" stroke="white" stroke-miterlimit="10"/>
<path d="M747 264.9C750.258 264.9 752.9 262.258 752.9 259C752.9 255.742 750.258 253.1 747 253.1C743.742 253.1 741.1 255.742 741.1 259C741.1 262.258 743.742 264.9 747 264.9Z" fill="#3D82FF" stroke="white" stroke-width="1.2"/>
<path d="M747 261.5C748.381 261.5 749.5 260.381 749.5 259C749.5 257.619 748.381 256.5 747 256.5C745.619 256.5 744.5 257.619 744.5 259C744.5 260.381 745.619 261.5 747 261.5Z" fill="#3D82FF" stroke="white" stroke-miterlimit="10"/>
<path d="M723 254.9C726.258 254.9 728.9 252.258 728.9 249C728.9 245.742 726.258 243.1 723 243.1C719.742 243.1 717.1 245.742 717.1 249C717.1 252.258 719.742 254.9 723 254.9Z" fill="#3D82FF" stroke="white" stroke-width="1.2"/>
<path d="M723 251.5C724.381 251.5 725.5 250.381 725.5 249C725.5 247.619 724.381 246.5 723 246.5C721.619 246.5 720.5 247.619 720.5 249C720.5 250.381 721.619 251.5 723 251.5Z" fill="#3D82FF" stroke="white" stroke-miterlimit="10"/>
<path d="M540 115.9C543.258 115.9 545.9 113.258 545.9 110C545.9 106.742 543.258 104.1 540 104.1C536.742 104.1 534.1 106.742 534.1 110C534.1 113.258 536.742 115.9 540 115.9Z" fill="#3D82FF" stroke="white" stroke-width="1.2"/>
<path d="M540 112.5C541.381 112.5 542.5 111.381 542.5 110C542.5 108.619 541.381 107.5 540 107.5C538.619 107.5 537.5 108.619 537.5 110C537.5 111.381 538.619 112.5 540 112.5Z" fill="#3D82FF" stroke="white" stroke-miterlimit="10"/>
<path d="M544 119.9C547.258 119.9 549.9 117.258 549.9 114C549.9 110.742 547.258 108.1 544 108.1C540.742 108.1 538.1 110.742 538.1 114C538.1 117.258 540.742 119.9 544 119.9Z" fill="#3D82FF" stroke="white" stroke-width="1.2"/>
<path d="M544 116.5C545.381 116.5 546.5 115.381 546.5 114C546.5 112.619 545.381 111.5 544 111.5C542.619 111.5 541.5 112.619 541.5 114C541.5 115.381 542.619 116.5 544 116.5Z" fill="#3D82FF" stroke="white" stroke-miterlimit="10"/>
<path d="M551 135.9C554.258 135.9 556.9 133.258 556.9 130C556.9 126.742 554.258 124.1 551 124.1C547.742 124.1 545.1 126.742 545.1 130C545.1 133.258 547.742 135.9 551 135.9Z" fill="#3D82FF" stroke="white" stroke-width="1.2"/>
<path d="M551 132.5C552.381 132.5 553.5 131.381 553.5 130C553.5 128.619 552.381 127.5 551 127.5C549.619 127.5 548.5 128.619 548.5 130C548.5 131.381 549.619 132.5 551 132.5Z" fill="#3D82FF" stroke="white" stroke-miterlimit="10"/>
<path d="M422 199.9C425.258 199.9 427.9 197.258 427.9 194C427.9 190.742 425.258 188.1 422 188.1C418.742 188.1 416.1 190.742 416.1 194C416.1 197.258 418.742 199.9 422 199.9Z" fill="#3D82FF" stroke="white" stroke-width="1.2"/>
<path d="M422 196.5C423.381 196.5 424.5 195.381 424.5 194C424.5 192.619 423.381 191.5 422 191.5C420.619 191.5 419.5 192.619 419.5 194C419.5 195.381 420.619 196.5 422 196.5Z" fill="#3D82FF" stroke="white" stroke-miterlimit="10"/>
<path d="M399 224.9C402.258 224.9 404.9 222.258 404.9 219C404.9 215.742 402.258 213.1 399 213.1C395.742 213.1 393.1 215.742 393.1 219C393.1 222.258 395.742 224.9 399 224.9Z" fill="#3D82FF" stroke="white" stroke-width="1.2"/>
<path d="M399 221.5C400.381 221.5 401.5 220.381 401.5 219C401.5 217.619 400.381 216.5 399 216.5C397.619 216.5 396.5 217.619 396.5 219C396.5 220.381 397.619 221.5 399 221.5Z" fill="#3D82FF" stroke="white" stroke-miterlimit="10"/>
<path d="M413 229.9C416.258 229.9 418.9 227.258 418.9 224C418.9 220.742 416.258 218.1 413 218.1C409.742 218.1 407.1 220.742 407.1 224C407.1 227.258 409.742 229.9 413 229.9Z" fill="#3D82FF" stroke="white" stroke-width="1.2"/>
<path d="M413 226.5C414.381 226.5 415.5 225.381 415.5 224C415.5 222.619 414.381 221.5 413 221.5C411.619 221.5 410.5 222.619 410.5 224C410.5 225.381 411.619 226.5 413 226.5Z" fill="#3D82FF" stroke="white" stroke-miterlimit="10"/>
<path d="M441 244.1C444.26 244.1 446.9 246.74 446.9 250C446.9 253.26 444.26 255.9 441 255.9C437.74 255.9 435.1 253.26 435.1 250C435.1 246.74 437.74 244.1 441 244.1Z" fill="#3D82FF" stroke="white" stroke-width="1.2"/>
<path d="M441 252.5C442.381 252.5 443.5 251.381 443.5 250C443.5 248.619 442.381 247.5 441 247.5C439.619 247.5 438.5 248.619 438.5 250C438.5 251.381 439.619 252.5 441 252.5Z" fill="#3D82FF" stroke="white" stroke-miterlimit="10"/>
<path d="M383 289.9C386.258 289.9 388.9 287.258 388.9 284C388.9 280.742 386.258 278.1 383 278.1C379.742 278.1 377.1 280.742 377.1 284C377.1 287.258 379.742 289.9 383 289.9Z" fill="#3D82FF" stroke="white" stroke-width="1.2"/>
<path d="M383 286.5C384.381 286.5 385.5 285.381 385.5 284C385.5 282.619 384.381 281.5 383 281.5C381.619 281.5 380.5 282.619 380.5 284C380.5 285.381 381.619 286.5 383 286.5Z" fill="#3D82FF" stroke="white" stroke-miterlimit="10"/>
<path d="M402 318.9C405.258 318.9 407.9 316.258 407.9 313C407.9 309.742 405.258 307.1 402 307.1C398.742 307.1 396.1 309.742 396.1 313C396.1 316.258 398.742 318.9 402 318.9Z" fill="#3D82FF" stroke="white" stroke-width="1.2"/>
<path d="M402 315.5C403.381 315.5 404.5 314.381 404.5 313C404.5 311.619 403.381 310.5 402 310.5C400.619 310.5 399.5 311.619 399.5 313C399.5 314.381 400.619 315.5 402 315.5Z" fill="#3D82FF" stroke="white" stroke-miterlimit="10"/>
<path d="M416 330.9C419.258 330.9 421.9 328.258 421.9 325C421.9 321.742 419.258 319.1 416 319.1C412.742 319.1 410.1 321.742 410.1 325C410.1 328.258 412.742 330.9 416 330.9Z" fill="#3D82FF" stroke="white" stroke-width="1.2"/>
<path d="M416 327.5C417.381 327.5 418.5 326.381 418.5 325C418.5 323.619 417.381 322.5 416 322.5C414.619 322.5 413.5 323.619 413.5 325C413.5 326.381 414.619 327.5 416 327.5Z" fill="#3D82FF" stroke="white" stroke-miterlimit="10"/>
<path d="M416 330.9C419.258 330.9 421.9 328.258 421.9 325C421.9 321.742 419.258 319.1 416 319.1C412.742 319.1 410.1 321.742 410.1 325C410.1 328.258 412.742 330.9 416 330.9Z" fill="#3D82FF" stroke="white" stroke-width="1.2"/>
<path d="M416 327.5C417.381 327.5 418.5 326.381 418.5 325C418.5 323.619 417.381 322.5 416 322.5C414.619 322.5 413.5 323.619 413.5 325C413.5 326.381 414.619 327.5 416 327.5Z" fill="#3D82FF" stroke="white" stroke-miterlimit="10"/>
<path d="M257 277.9C260.258 277.9 262.9 275.258 262.9 272C262.9 268.742 260.258 266.1 257 266.1C253.742 266.1 251.1 268.742 251.1 272C251.1 275.258 253.742 277.9 257 277.9Z" fill="#3D82FF" stroke="white" stroke-width="1.2"/>
<path d="M257 274.5C258.381 274.5 259.5 273.381 259.5 272C259.5 270.619 258.381 269.5 257 269.5C255.619 269.5 254.5 270.619 254.5 272C254.5 273.381 255.619 274.5 257 274.5Z" fill="#3D82FF" stroke="white" stroke-miterlimit="10"/>
<path d="M208 203.9C211.258 203.9 213.9 201.258 213.9 198C213.9 194.742 211.258 192.1 208 192.1C204.742 192.1 202.1 194.742 202.1 198C202.1 201.258 204.742 203.9 208 203.9Z" fill="#3D82FF" stroke="white" stroke-width="1.2"/>
<path d="M208 200.5C209.381 200.5 210.5 199.381 210.5 198C210.5 196.619 209.381 195.5 208 195.5C206.619 195.5 205.5 196.619 205.5 198C205.5 199.381 206.619 200.5 208 200.5Z" fill="#3D82FF" stroke="white" stroke-miterlimit="10"/>
<path d="M1065 127.9C1068.26 127.9 1070.9 125.258 1070.9 122C1070.9 118.742 1068.26 116.1 1065 116.1C1061.74 116.1 1059.1 118.742 1059.1 122C1059.1 125.258 1061.74 127.9 1065 127.9Z" fill="#3D82FF" stroke="white" stroke-width="1.2"/>
<path d="M1065 124.5C1066.38 124.5 1067.5 123.381 1067.5 122C1067.5 120.619 1066.38 119.5 1065 119.5C1063.62 119.5 1062.5 120.619 1062.5 122C1062.5 123.381 1063.62 124.5 1065 124.5Z" fill="#3D82FF" stroke="white" stroke-miterlimit="10"/>
<path d="M1328 119.9C1331.26 119.9 1333.9 117.258 1333.9 114C1333.9 110.742 1331.26 108.1 1328 108.1C1324.74 108.1 1322.1 110.742 1322.1 114C1322.1 117.258 1324.74 119.9 1328 119.9Z" fill="#3D82FF" stroke="white" stroke-width="1.2"/>
<path d="M1328 116.5C1329.38 116.5 1330.5 115.381 1330.5 114C1330.5 112.619 1329.38 111.5 1328 111.5C1326.62 111.5 1325.5 112.619 1325.5 114C1325.5 115.381 1326.62 116.5 1328 116.5Z" fill="#3D82FF" stroke="white" stroke-miterlimit="10"/>
<path d="M1373 120.9C1376.26 120.9 1378.9 118.258 1378.9 115C1378.9 111.742 1376.26 109.1 1373 109.1C1369.74 109.1 1367.1 111.742 1367.1 115C1367.1 118.258 1369.74 120.9 1373 120.9Z" fill="#3D82FF" stroke="white" stroke-width="1.2"/>
<path d="M1373 117.5C1374.38 117.5 1375.5 116.381 1375.5 115C1375.5 113.619 1374.38 112.5 1373 112.5C1371.62 112.5 1370.5 113.619 1370.5 115C1370.5 116.381 1371.62 117.5 1373 117.5Z" fill="#3D82FF" stroke="white" stroke-miterlimit="10"/>
<path d="M1298 255.9C1301.26 255.9 1303.9 253.258 1303.9 250C1303.9 246.742 1301.26 244.1 1298 244.1C1294.74 244.1 1292.1 246.742 1292.1 250C1292.1 253.258 1294.74 255.9 1298 255.9Z" fill="#3D82FF" stroke="white" stroke-width="1.2"/>
<path d="M1298 252.5C1299.38 252.5 1300.5 251.381 1300.5 250C1300.5 248.619 1299.38 247.5 1298 247.5C1296.62 247.5 1295.5 248.619 1295.5 250C1295.5 251.381 1296.62 252.5 1298 252.5Z" fill="#3D82FF" stroke="white" stroke-miterlimit="10"/>
<path d="M1396 255.9C1399.26 255.9 1401.9 253.258 1401.9 250C1401.9 246.742 1399.26 244.1 1396 244.1C1392.74 244.1 1390.1 246.742 1390.1 250C1390.1 253.258 1392.74 255.9 1396 255.9Z" fill="#3D82FF" stroke="white" stroke-width="1.2"/>
<path d="M1396 252.5C1397.38 252.5 1398.5 251.381 1398.5 250C1398.5 248.619 1397.38 247.5 1396 247.5C1394.62 247.5 1393.5 248.619 1393.5 250C1393.5 251.381 1394.62 252.5 1396 252.5Z" fill="#3D82FF" stroke="white" stroke-miterlimit="10"/>
<path d="M1323 268.9C1326.26 268.9 1328.9 266.258 1328.9 263C1328.9 259.742 1326.26 257.1 1323 257.1C1319.74 257.1 1317.1 259.742 1317.1 263C1317.1 266.258 1319.74 268.9 1323 268.9Z" fill="#3D82FF" stroke="white" stroke-width="1.2"/>
<path d="M1323 265.5C1324.38 265.5 1325.5 264.381 1325.5 263C1325.5 261.619 1324.38 260.5 1323 260.5C1321.62 260.5 1320.5 261.619 1320.5 263C1320.5 264.381 1321.62 265.5 1323 265.5Z" fill="#3D82FF" stroke="white" stroke-miterlimit="10"/>
<path d="M1421 268.9C1424.26 268.9 1426.9 266.258 1426.9 263C1426.9 259.742 1424.26 257.1 1421 257.1C1417.74 257.1 1415.1 259.742 1415.1 263C1415.1 266.258 1417.74 268.9 1421 268.9Z" fill="#3D82FF" stroke="white" stroke-width="1.2"/>
<path d="M1421 265.5C1422.38 265.5 1423.5 264.381 1423.5 263C1423.5 261.619 1422.38 260.5 1421 260.5C1419.62 260.5 1418.5 261.619 1418.5 263C1418.5 264.381 1419.62 265.5 1421 265.5Z" fill="#3D82FF" stroke="white" stroke-miterlimit="10"/>
</g>
<defs>
<clipPath id="clip0_1_2">
<rect width="1857" height="375" fill="white"/>
</clipPath>
</defs>
</svg>
