<?xml version="1.0" encoding="UTF-8"?>
<svg id="Livello_1" data-name="Livello 1" xmlns="http://www.w3.org/2000/svg" viewBox="0 0 198.43 87.92">
  <defs>
    <style>
      .cls-1 {
        fill: #e2281f;
      }

      .cls-1, .cls-2, .cls-3, .cls-4, .cls-5, .cls-6, .cls-7 {
        stroke-width: 0px;
      }

      .cls-2 {
        fill: #009440;
      }

      .cls-3 {
        fill: #de1f25;
      }

      .cls-4 {
        fill: #848685;
      }

      .cls-5 {
        fill: #70706f;
      }

      .cls-6 {
        fill: #4f4e4e;
      }

      .cls-7 {
        fill: #049540;
      }
    </style>
  </defs>
  <g>
    <g>
      <g>
        <path class="cls-5" d="M144.67,66.24c-.17.1-.19.34-.19.54-.02,1.35-.4,2.67-.68,3.99-.28,1.32-.45,2.72-.04,4.01.21.67.57,1.3.75,1.97-.28-1.05-.69-2.08-.79-3.16-.24-2.47,1.13-4.87.95-7.35Z"/>
        <path class="cls-5" d="M186.88,35.61c-1.14-5.42-3.21-10.46-6.29-15.07-.12-.18-.17-.35-.17-.57,0-1.05,0-2.1,0-3.15v-.43c-.42,0-.78-.02-1.15,0-.59.04-1.19.12-1.73-.22-.27.02-.4-.17-.55-.34-4.37-4.88-9.57-8.57-15.61-11.1-3.04-1.27-6.18-2.17-9.42-2.69-1.37-.22-2.76-.35-4.14-.5-1.45-.16-2.91-.19-4.36-.1-2.26.13-4.51.39-6.74.81-3.41.64-6.71,1.62-9.85,3.09-5.49,2.58-10.27,6.1-14.27,10.68-.26.3-.55.42-.93.4-.09,0-.18-.02-.26-.02-.63,0-1.26,0-1.94,0,0,.12-.02.22-.02.31,0,.92-.02,1.85,0,2.77.01.46-.13.84-.4,1.19-.21.28-.43.57-.6.88-.7,1.26-1.43,2.51-2.07,3.8-2.66,5.3-4.11,10.92-4.35,16.84-.09,2.15-.03,4.3.19,6.45.27,2.66.79,5.28,1.57,7.84,1.23,4.01,3.08,7.72,5.36,11.23.2.31.29.62.29.99,0,5.82,0,11.64,0,17.46,0,.16.01.32.02.51h.49c5.42,0,10.83,0,16.25,0,3.81,0,7.62-.02,11.43-.01,1.75,0,3.49.04,5.24.12.73.03,1.46.05,2.2,0,.03,0,.05,0,.08,0,2.7-.04,5.39-.11,8.09-.12,4.13-.02,8.25,0,12.38,0,4.78,0,9.57,0,14.35,0,.15,0,.29-.01.47-.02v-.49c0-5.14,0-10.28,0-15.41,0-.68-.03-1.37-.06-2.05-.03-.52.12-.96.44-1.37.26-.33.48-.68.7-1.04,1.78-2.89,3.18-5.95,4.21-9.19,1.19-3.72,1.88-7.53,2.02-11.43.12-3.39-.16-6.75-.86-10.07ZM109.38,67.78c-1.55-2.26-2.83-4.63-3.89-7.12-2.16-5.12-3.3-10.45-3.35-16.01-.05-5.62.89-11.05,3-16.27,1.12-2.76,2.53-5.36,4.19-7.87.13.49.17,46.75.05,47.28ZM178.27,16.56h1.94v3.29c-.06-.03-.09-.03-.1-.05-.62-.83-1.24-1.66-1.86-2.49-.07-.1-.18-.32-.34-.33.13-.16.23-.28.35-.43ZM177.05,16.67q.39-.09.59.25c-.11.04-.22.06-.31.11-.33.17-.66.36-1,.52-.2.1-.25.23-.16.43.28-.41.74-.55,1.16-.75.14-.06.28-.11.46-.18.09.1.19.22.3.35-.31.09-.64,0-.86.28.15-.04.3-.1.44-.09.28,0,.58-.01.78.25.57.76,1.14,1.52,1.69,2.29.09.12.11.31.11.46,0,1.62,0,3.24,0,4.86,0,.65,0,1.29,0,1.94,0,.22-.02.44-.04.67,0,.02-.24.04-.26.04.05.03.12.06.18.08-.04.1-.3.05-.66-.12-.02,0,.03-.1.04-.11.02-.03.06-.04.09-.05.09-.02-.1-.15-.1-.16.04-.08.07-.14.09-.17-.4-.23-.92-.06-1.3-.42-.07-.06-.18-.08-.27-.1-.11-.02-.23-.04-.34-.05-.06,0-.13-.02-.19,0-.06.03-.11.09-.17.12-.09.05-.18.08-.28.11-.18.05-.39.07-.56,0-.05-.02-.99-.07-1.35,0-.43.08-.74.34-1.11.56-.39.24-.83.39-1.27.49-.43.09-.86.14-1.3.17-.41.03-.8.01-1.21.03-.74.04-1.46-.16-2.2-.21-.63-.05-1.26-.05-1.89,0-.3.02-.58.06-.88.05-.33-.02-.65-.05-.98-.01-.53.06-1.02.31-1.55.38s-1.14-.07-1.69-.12c-.62-.06-1.25-.13-1.88-.15-.09,0-.24.04-.24-.08,0-.07.19-.17.24-.2.19-.1.41-.13.62-.2.51-.17.89-.57,1.36-.83.85-.49,1.87-.51,2.83-.7,2.19-.45,4.04-1.82,5.97-2.95.71-.42,1.45-.81,2.19-1.16.3-.14.61-.28.94-.38.47-.13.97-.17,1.4-.4.42-.22.75-.7.55-1.19.01.39-.26.74-.59.95s-.72.29-1.1.39c-1.11.3-2.15.82-3.16,1.37-1.71.93-3.27,2.17-5.12,2.79-1.09.37-2.25.52-3.35.89-.7.24-1.36.54-2.02.87-.33.17-.66.34-.99.52-.27.14-.59.38-.9.36-.11,0-.21-.05-.32-.09-.46-.18-.92-.35-1.38-.53-.22-.08-.45-.21-.68-.26-.18-.04-.36-.05-.54-.09-.18-.04-.37-.08-.55-.1-.16-.02-.32,0-.5,0,.11-.17.19-.31.27-.44-.16.12-.32.23-.48.35-.38.07-.77.14-1.17.21-.07.01-.15.03-.22.03-.47-.04-.93-.09-1.4-.12-.14,0-.3.03-.44.06-.14.04-.28.1-.43.16-.16-.18-.3-.35-.48-.56.32-.08.5-.34.82-.44.26-.08.52-.16.79-.21.08-.04.17-.09.25-.14.06-.06.12-.08.21-.12.02-.03.06-.04.07-.07.19-.16.34-.34.58-.39.51-.1,1.04-.18,1.54-.31.4-.1.78-.06,1.15.06.26.08.51.18.77.28-.21.29-.24.3-.5.3v.17s.06.03.08.02c.24-.11.47-.19.64-.42.13-.18.38-.29.59-.39.5-.23,1.01-.43,1.52-.63.36-.14.72-.29,1.09-.4.54-.15,1.11-.12,1.64-.29.3-.09.54-.31.76-.53s.47-.42.73-.6c.4-.27.83-.5,1.27-.69.21-.09.43-.15.62-.27.21-.13.41-.28.64-.37.36-.14.74-.23,1.11-.33.47-.13.95-.24,1.43-.34.11-.02,1.33-.19,1.33-.29,0-.05,1.08-.47,1.19-.52.51-.22,1.03-.41,1.55-.61.14-.05.28-.09.5-.16.18-.29.35-.69.63-.98.23-.24.57-.41.89-.51.4-.12.73-.29,1.02-.6.3-.31.65-.57,1.14-.54.18,0,.37-.08.55-.12.2-.05.41-.1.69-.18-.04.19-.02.34-.09.41-.1.1-.25.2-.38.2-.15,0-.27.01-.37.12,0,0-.02.01-.03.02-.31.19-.7.06-.62.19-.11.13-.22.26-.34.4.16.12.27-.3.71-.38.05,0,.11,0,.15-.04.32-.26.75-.19,1.11-.43.03-.09.08-.21.12-.32ZM176.8,29.78c-.06.24-.12.47-.17.7.02,0,.03.01.05.02.05-.08.09-.15.13-.23.39-.02.78-.09,1.16-.06.36.02.74-.16,1.1.07-.26.33-.31.35-.67.24-.05-.02-.12-.02-.17,0-.38.08-.76.17-1.14.26-.02,0-.05.02-.07.01-.21-.09-.43-.09-.65-.05-.16.03-.46.17-.59.03.07-.12.16-.26.27-.36.23-.21.25-.49.24-.75,0-.16.02-.29.07-.43.1-.3.19-.36.5-.25.35.13.7.15,1.06.07.16-.03.33-.03.48,0,.2.05.39-.19.57,0,.27-.13.4.13.62.18-.07.26-.27.28-.45.29-.41.03-.83.02-1.24.06-.37.04-.74.12-1.11.18ZM177.43,29.97c-.19.15-.33.16-.52.06.17-.2.31-.1.52-.06ZM175.6,30.69c-.05.08-.18.13-.29.17-.18.07-.36.12-.54.17-.11.03-.17.01-.27-.1-.11-.12-.37-.12-.57-.16-.1-.02-.2,0-.33,0,.12-.43.33-.54.7-.51.21.02.46.02.62-.2.05-.06.13-.11.21-.14.33-.13.61-.34.82-.62.09-.12.09-.29.14-.46.06.04.13.08.22.13-.11.2-.21.38-.31.57-.03.05-.07.12-.06.17.13.42-.17.68-.35.99ZM179.45,28.8c-.26-.14-.52-.06-.78-.03-.03,0-.05.02-.07.02-.57-.16-1.14.08-1.7-.02-.44-.08-.88-.1-1.34-.05-.23.03-.47-.02-.73.03.16.07.32.16.48.19.18.03.37,0,.56,0-.06.33-.1.38-.36.38-.15,0-.27.05-.41.1-.23.08-.49.09-.74.07-.09,0-.24-.16-.25-.26-.03-.24-.19-.2-.35-.24-.1-.03,0-.28.02-.33.03-.14-.04-.29,0-.37.06-.13.34-.3.46-.39.17-.13.34-.25.53-.34.8-.39,1.66.03,2.5-.16.15-.03.29-.07.44-.1.23-.04.43-.05.64.11.15.11.38.1.57.14.11.02.24.02.32.07.07.04.13.16.13.25,0,.06-.1.16-.17.17-.2.03-.4.02-.6.01-.14,0-.27-.05-.4-.07,0-.1-.23,0-.36-.06-.15-.08-.28.05-.38-.02-.09-.06-.3-.17-.33-.1-.62-.12-1.62-.14-1.93-.01.25.02.46,0,.66.05.22.06.41.04.62,0,.31-.07.47.04.57.33.1.28.18.32.48.25.02,0,.05-.02.07-.02.02,0,.05,0,.1,0-.01.07.19.18.24-.26.74.08,1.49.17,2.22.25.03.03.05.05.05.06,0,.07,0,.15,0,.23-.17.03-.34.07-.51.09-.09.01-.19.05-.26.01ZM173.37,29.09q-.22-.08-.2-.57c.11-.05.23-.11.36-.17-.19.23-.16.49-.16.74ZM162.39,31.17c-.04.11-.07.19-.11.3-.06,0-.1.03-.13.02-.33-.09-.68-.03-1,.04s-.63.05-.96.07c-.7.02-1.4.05-2.09-.07-.33-.06-.67-.15-.98-.03.15.04.31.08.46.12-.22.21-.53.28-.83.32-.44.06-1.11.11-1.53-.09.05-.05.59-.19.65-.15-.27-.17-.48-.09-.64-.02-.2.08-.39.08-.58.08-.25,0-.5,0-.72.15-.09.06-.21.07-.32.11-.11-.33-.13-.68.02-.94.1-.19.16-.41.28-.59s.31-.3.49-.41c.14-.09.28-.18.42-.26.54-.29,1.15-.43,1.73-.61.46-.15.9-.31,1.39-.35.83-.07,1.64-.26,2.48-.15.4.05,1.29.36,1.51.36.26,0,.25.34.5.36-.03.55-.05,1.08.03,1.62.02-.06.04-.12.04-.18.02-.39.04-.78.06-1.17,0-.17.13-.5.08-.65.45-.15.91-.36,1.37-.45.67-.13,1.39-.12,2.07-.16.76-.04,1.48-.02,2.22.13s1.52.15,2.28.15c.42,0,.84,0,1.26-.07.39-.06.75-.18,1.12.02.02.61.05,1.25.07,1.88-.06.02-.11.04-.17.06.01.02.02.04.03.05.18.14.19.24.01.3-.19.07-.42.04-.62.04-.26.01-.52.03-.78.05-.28.03-.55.06-.83.09-.55.06-1.1.1-1.64.25-.25.07-.49.19-.74.26-.31.09-.62.14-.93.22-.23.06-.47.11-.7.16-.06.01-.12.04-.19.04-.55,0-1.1,0-1.65-.04-.38-.02-.76-.15-1.12-.11-.41.05-.76-.09-1.12-.21-.13-.14.06-.38-.16-.53ZM153.63,30.3c0-.38,0-.75,0-1.13,0-.41.03-.82.02-1.23,0-.28.03-.35.31-.34.58,0,1.22.11,1.77.27.14.04.27.1.4.15.14.06,1.19.56.91.77-.06.05-.22.06-.3.08-.24.05-.46.16-.7.23-.27.07-.53.16-.79.28-.3.13-.58.28-.85.46-.26.17-.47.4-.78.46ZM147.85,27.91c-.1.03-.21.09-.31.1-.43.02-.86.02-1.29.02-.09,0-.17-.09-.27-.14-.1.06-.21.12-.36.2-.17-.5.26-.91.07-1.38-.28.15-.21.45-.31.66-.11.22-.18.45-.27.71-.2-.03-.42-.06-.61-.09.03-.16.06-.3.08-.44.02-.1,0-.21.03-.3.11-.21.06-.36-.09-.51-.06-.06-.22-.17,0-.28.03-.01-.05-.22-.08-.32.29-.08.53-.15.78-.21,0,.02.02.05.03.07-.08.03-.15.06-.23.09.02.02.04.05.05.04.05,0,.11-.03.14-.01.35.15.55.09.75-.24.05-.09.11-.17.18-.24.13-.15.24-.15.49-.01-.13.31-.25.63-.39.97.05.02.12.04.22.07.11-.38.22-.75.34-1.18.03.1.05.15.05.2-.01.4-.03.81-.04,1.21,0,.13,0,.26-.28.21.16.1.23.15.33.21v.42c.4-.2,0-.5.14-.73.2.18.4.36.59.53.36-.14.38-.19.15-.43-.05-.05-.12-.1-.16-.16-.1-.14-.22-.2-.41-.14.05-.04.09-.08.14-.13-.02-.09-.05-.19-.07-.29-.08-.03-.16-.06-.25-.09v-.51c.25.5.83.59,1.16.97.01.02.05.02.07.02.39-.05.64.24.98.4-.11.14-.2.26-.34.44.14-.02.25-.01.26-.04.05-.14.12-.3.27-.25.13.04.22.18.32.29.02.02.02.07.03.11-.41.24-.91.32-1.56.23.28-.04.55-.09.91-.14-.47-.14-.85-.03-1.22.09ZM144.29,28.02c-.26.11-.49.08-.61-.11-.06-.09-.14-.21-.17-.31-.06-.18-.16-.26-.31-.34-.06-.04-.09-.14-.15-.25-.25.31.09.45.14.73-.18-.1-.33-.17-.47-.25.02-.17.03-.32.04-.5.08-.02.16-.05.26-.07-.02-.06-.03-.11-.05-.17.05-.02.11-.04.16-.06-.17-.21-.37-.4-.49-.63-.12-.23-.15-.51-.23-.8.22.05.43.1.65.15,0,.03,0,.05-.01.08-.09,0-.19-.01-.32-.02.05.05.08.09.1.09.3-.01.52.09.66.39.05.1.25.13.4.2-.55.28.02.57-.07.86.11.03.19.05.27.07.02.1-.13.3.22.21-.22.27-.1.48-.03.73ZM139.13,21.42c.26-.39.5-.42.8-.14-.26.05-.5.09-.8.14ZM139.9,21.83q-.41,0-.32-.36c.11.13.2.23.32.36ZM138.65,22.26c.16.07.28.12.4.17-.02.04-.04.08-.07.14.07.04.13.08.2.12-.02.04-.03.08-.05.08-.11.02-.22.03-.34.05-.02-.05-.05-.11-.09-.21-.09.15-.17.27-.25.39-.02,0-.04-.02-.06-.02.02-.14.1-.3.06-.4-.12-.26.26-.12.2-.3ZM139.38,24.15c-.33-.01-.52-.12-.66-.32.21.06.43.1.66.32ZM139.02,21.09c-.1-.07-.19-.13-.3-.2.16-.15.29-.28.5-.3.15.24-.1.33-.2.5ZM139.69,19.8c-.04-.21-.06-.35-.09-.5.11-.06.21-.11.36-.19-.1.24-.17.43-.27.68ZM139.6,19.02c.29-.31.36-.32.46-.07-.14.02-.28.04-.46.07ZM140.5,19.08s.05.03.07.05c0,.09.01.18.02.37-.21-.31-.39-.2-.59-.09.1-.25.36-.17.49-.32ZM140.46,19.98c.04.18.09.36-.14.48-.15-.22.18-.3.14-.48ZM140.47,19.98c.11-.08.22-.15.4-.27-.21.05-.35.08-.5.11,0-.01-.02-.03-.02-.04.19-.12.39-.23.59-.36.24.25.51.41.9.37-.07.12-.13.21-.18.3-.02,0-.05.02-.07.01-.32-.15-.64-.2-.99-.08-.03.01-.08-.03-.13-.04ZM141.21,19.43c.21-.05.4,0,.65.05-.28.27-.45.02-.65-.05ZM141.68,19.26c-.26-.17-.5-.09-.76-.05-.08-.12-.05-.19.07-.23.12-.05.23-.11.34-.17.24-.05.37.31.7.16-.04.25-.23.36-.35.29ZM141.1,18.13c.17-.27.46-.05.64-.22-.02.09-.03.18-.06.32.13.01.26.02.4.03.02.16.05.34.07.52-.06-.01-.13-.05-.16-.03-.18.1-.32.09-.48-.05-.17-.14-.35-.07-.54.16.12-.39.18-.44.43-.41.14.02.29.11.43-.03-.24-.1-.47-.19-.73-.29ZM142.33,19.44c-.12.1-.22.18-.33.28.02-.32.03-.32.33-.28ZM142.16,18.79c.03-.13.06-.27.11-.4.02-.04.09-.06.14-.08.05.25-.04.47-.22.71-.02-.12-.02-.17-.03-.23,0,0,0,0,0,0ZM142.44,20.92c.02.11.04.18.04.25,0,.18.08.3.26.37.29.12.59.11.89.06.03,0,.09-.04.09-.06,0-.3.33-.24.44-.42.02-.03.2-.03.22,0,.04.08.06.17-.11.2-.09.02-.15.21-.22.33l-.07-.04c.05.13.09.26.14.39-.11.22-.37.39-.24.76-.22-.02-.4-.04-.62-.06.01-.09.02-.17.03-.27-.25-.09-.35.22-.59.21-.03-.07-.05-.16-.08-.23-.21-.08-.4-.15-.6-.23-.02-.48-.28-.99.42-1.26ZM142.76,21c.18.14.29.23.4.31-.08.03-.17.07-.27.11-.04-.13-.07-.23-.13-.42ZM143.82,21.12s.01.02.02.03c-.15.1-.29.21-.44.3-.12.07-.21.02-.22-.13.21-.07.43-.13.64-.19ZM143.26,20.74c.13.22.26.26.4.02.08.21.02.29-.12.31-.17.03-.25-.06-.27-.33ZM143.88,22.9c-.17.13-.36.23-.5.38-.14.16-.21.36-.35.6-.14-.29-.11-.54-.09-.79.01-.14.12-.18.24-.19.22-.02.45-.03.69,0ZM142.61,24.4c-.09-.17-.19-.33-.27-.5-.03-.05-.07-.14-.05-.18.12-.23.12-.48.14-.73.36.86.43.88.18,1.4ZM142.29,27.85c.1,0,.17-.01.24-.02-.05.24-.27.3-.4.24-.26-.1-.56-.15-.76-.4.24-.14.47-.28.71-.42.2.13.17.36.21.59ZM143.95,25.1c-.02-.17-.05-.35-.08-.52.14-.09.25-.17.36-.24.23-.14.5-.04.75-.11.05-.01.16.03.17.06.07.27.32.12.45.24.2-.28-.07-.4-.13-.67-.06.16-.08.24-.13.35-.23-.34-.53-.35-.85-.26-.18.05-.34,0-.57-.11.76-.1,1.45-.24,2.07.27.05-.3-.12-.48-.26-.7-.12.14-.26.13-.41.12-.45-.04-.9-.06-1.34.07-.18.05-.33.21-.55.35.1-.3.04-.6.3-.87.18.4.43.26.7.16.06.04.12.11.2.14.09.03.2.04.28,0,.04-.02.08-.15.06-.22-.04-.18.04-.22.19-.24.21-.02.41-.06.65-.09.07.21.19.44.52.46,0-.14.03-.25.02-.37,0-.04-.03-.12-.07-.12-.33-.09-.45-.38-.64-.61-.02-.03-.06-.05-.1-.08-.15.13-.02.28-.04.45-.27-.1-.5-.03-.7.2-.11-.07-.21-.16-.32-.2-.09-.03-.21,0-.31,0q.08-.18.27-.16c.04-.09.09-.18.15-.29-.06-.02-.11-.03-.15-.05.06-.42.13-.84.18-1.26,0-.09-.07-.18-.11-.29.07-.04.14-.08.21-.13-.01-.02-.03-.05-.04-.05-.54-.02-1.08.05-1.62-.06-.17-.03-.36.05-.55.08.1-.46.17-.5.87-.49-.2-.18-.39-.35-.42-.65.08.03.12.05.17.07-.03-.11-.05-.22-.09-.36-.06-.03-.16-.08-.29-.14.07-.1.12-.17.18-.25-.09-.02-.17-.03-.28-.05,0-.14-.01-.28-.02-.42-.07.08-.14.16-.2.23,0,0,0,0,0,0-.19-.07-.38-.14-.59-.22-.04-.19.45-.05.27-.36-.35-.11-.68.05-1.03.14-.01-.03-.02-.05-.03-.08.27-.16.55-.31.86-.49,0,.12,0,.19.01.28.04-.02.08-.02.1-.05.07-.13.1-.28.19-.4.15-.21.38-.31.65-.35-.1-.01-.2-.02-.33-.03.36-.24,1.15-.28,1.44-.08.24-.21.75-.09.96.24.09-.36.38-.36.65-.35.36,0,.73.03,1.09.04.06,0,.12-.01.18-.03.13-.03.23-.01.33.1.16.19.2.18.5.15.15.23.31.45.6.54.14.05.25.19.37.3.13.12.19.33.43.29.01,0,.05.1.09.2h-.79s0,.05,0,.08c.14,0,.28.02.46.03.02.14.03.28.05.43-.04.06-.11.12-.11.16.03.18-.05.3-.22.43.2.02.35.03.49.06.12.02.25.01.3.17.06.23.24.45.01.68-.02.02-.04.03-.05.06-.08.15-.1.32.03.41.08.06.26.05.34,0,.15-.11.28-.11.42-.04.13.06.1.14.03.23-.24-.05-.46-.06-.69.05-.11.05-.24.05-.36.07q.2.14.74,0,.3.2.25.38c-.18-.05-.27-.33-.52-.19-.18.1-.38.15-.41.39-.11-.02-.21-.04-.32-.05-.25-.02-.34-.09-.37-.34-.02-.16,0-.33.01-.49.01-.14.04-.28.05-.41.01-.37-.01-.39-.39-.51-.06-.02-.13-.07-.16-.13-.09-.18-.08-.18-.23-.27-.06.11-.11.22-.18.35.18.2.35.39.66.28.05-.02.13.05.18.11-.43.11-.79,0-1.11-.27,0,0-.03,0-.05.01.06.08.12.17.2.25.08.08.17.13.31.23-.12.04-.19.09-.25.09-.21,0-.43-.01-.64-.05-.32-.05-.62-.04-.94.03-.21.05-.45-.02-.68,0,.04.01.08.03.14.05-.07.07-.15.14-.24.23.36.23.43.54.22.93.22-.09.39-.14.52.07-.04.03-.07.05-.11.08q.2.29.53.18c-.06-.1-.11-.19-.2-.34.19-.03.35-.05.54-.07.05-.09.07-.24.26-.32.25-.1.28-.41.42-.69.08,0,.21-.02.35-.03-.14.31-.35.55-.21.91.05.14-.06.34-.1.53.07-.03.12-.05.18-.07.08.35-.4.36-.41.69.04,0,.08,0,.12,0,.04-.01.08-.04.16-.08,0,.13-.01.21-.02.31-.26,0-.53.12-.68-.22-.06.12-.11.22-.16.32.06.08.13.16.2.26.13-.22.31-.27.55-.08-.48.34-.46.91-.68,1.37-.07-.1-.12-.22-.21-.27-.04-.03-.16.08-.22.11-.01.06-.02.08-.02.08.05.03.11.06.19.1-.3.29-.61.56-.99.69-.14.05-.32-.04-.48-.09-.27.07-.54.19-.88.08ZM168.34,20.57s-.05,0-.07,0c0-.02.04,0,.04.01s-.02.03-.04.04c-.54.22-1.09.32-1.66.42-.4.07-.79.1-1.19.21-.59.18-1.15.44-1.69.74s-1.09.49-1.61.79c-.29.17-.49.43-.73.67s-.53.41-.85.52c-.46.17-.95.19-1.43.32-.59.16-1.18.41-1.75.62-.36.13-.73.28-1.05.5-.01-.03-.25.08-.41.21-.19-.05-.38-.1-.6-.16.01-.02,0-.03-.03-.04-.03,0-.05-.02-.08-.02-.03.01-.07.01-.11-.03-.17-.05-.34-.1-.51-.15-.07,0-.14.01-.22,0-.31-.04-.6.02-.89.08-.32.11-.63.22-.97.28-.13.02-.27.03-.41.03-.04.02-.08.04-.12.05-.02,0-.04.02-.07.02-.16.11-.29.2-.43.27-.09.05-.15.09-.21.18-.05.08-.21.11-.33.13-.38.04-.7.18-1.04.34-.31.14-.71.23-1.15.05.18-.09.32-.15.3-.32.11-.07.23-.12.31-.21.2-.22.35-.48.64-.6.07-.03.14-.15.16-.24.03-.25.11-.48.25-.63.03-.03.08-.05.12-.08-.2-.18-.2-.2.06-.31-.03-.03-.06-.07-.12-.13.25-.2.5-.41.75-.61,0,0,.02-.01.02-.03,0-.01,0-.02,0-.04-.06-.12-.13-.24-.16-.37-.05-.16-.09-.29-.29-.29-.13-.1-.27-.19-.2-.41.02-.07-.07-.18-.11-.27-.04-.09-.08-.17-.14-.31.19-.01.33-.02.47-.02,0,.02,0,.04,0,.06-.05.02-.11.05-.2.08.17.05.3.09.48.14-.02.17-.03.35-.05.54.34-.07.27-.45.48-.56-.04-.17-.07-.31-.11-.46-.08-.26-.2-.32-.45-.21-.05.02-.09.06-.14.06-.08,0-.19.01-.24-.03-.09-.07,0-.12.07-.16-.22-.22.18-.33.1-.56-.01-.03,0-.06.02-.11,0-.07.02-.14.05-.21-.04-.12-.07-.24-.11-.35-.18.02-.37.06-.51-.04.12-.16.26-.3.33-.47.11-.25.04-.49-.1-.74-.1-.03-.23-.05-.34-.09-.15-.05-.3.03-.32.12-.06.24-.21.15-.34.15-.06-.11-.13-.21-.2-.33.05-.07.1-.14.15-.21-.14-.34-.2-.71-.49-1.01-.1-.03-.23-.07-.37-.09-.14-.02-.21-.08-.27-.22-.06-.13-.19-.22-.31-.32-.08-.07-.18-.11-.26-.23.12,0,.24,0,.36,0,7.4,0,14.8.01,22.2.02,1.08,0,2.15-.01,3.23-.02.2,0,.42-.05.59.01.41.14.81.03,1.3-.03-.2.26-.51.3-.78.45-.03.02-.06.04-.09.06-.38.26-.73.5-1.16.69-.37.16-.77.33-1.03.66-.18.23-.28.52-.5.71-.25.22-.6.28-.91.4-.46.18-.91.39-1.35.6-.35.17-.8.49-1.21.48ZM148.49,21.81c.21,0,.42-.07.6.09-.3.29-.47.27-.6-.09ZM148.62,26.35q-.1.22-.56.08c.24-.04.4-.06.56-.08ZM149.59,19.62c-.02-.13-.12-.24-.19-.37.15,0,.31-.03.48-.02.06,0,.14.06.18.11.02.04,0,.15-.02.17-.07.03-.15.02-.28.02.03.11.06.25.1.43-.02.02-.09.06-.16.11.04.21.17.24.34.21.14-.02.27-.06.41-.05.17,0,.21.11.13.26-.4-.12-.79-.12-1.17.14-.11-.12-.05-.23.03-.33.17-.2.17-.45.14-.68ZM149.43,18.95s0,0,0,0c.13.05.26.1.43.16-.28.02-.52.04-.76.04-.12,0-.21-.07-.23-.21-.01-.09,0-.17,0-.26,0,0,0,0-.01.01l.25-.39s.04,0,.06.01c-.03.15-.07.3-.11.51.13.04.26.09.39.13ZM150.44,20.91c-.09-.15-.14-.24-.2-.34q.25,0,.2.34ZM150.37,21.33c.06.1.09.16.15.25-.15.07-.23.28-.45.1.1-.11.18-.21.3-.35ZM150.41,22.4c-.13.1-.25.19-.43.32-.06-.06-.12-.11-.18-.17.02-.03.04-.05.06-.08.06.01.12.02.22.04-.08-.2-.16-.37-.23-.55.28-.18.44-.06.55.44ZM150.07,23.39c-.21.04-.31-.06-.42-.19.07-.19.19-.32.35-.35.24.2.45.38.69.57-.23-.01-.43-.06-.61-.03ZM150.17,23.94c-.22-.12-.42-.23-.61-.34.59.01.63.04.61.34ZM149.76,21.78c-.16-.1-.31-.18-.48-.29.33-.3.41-.28.7.1-.07.06-.15.12-.22.19ZM149.38,22.28c-.08-.09-.09-.2.02-.3.33.15.41.3.38.67-.02.18-.26.43-.51.49.05-.09.09-.17.13-.24.11-.21.19-.41-.01-.62ZM149.46,23.83c.21,0,.23.06.18.28q-.09.38-.29.5c-.05-.17-.06-.36-.15-.5-.1-.15-.28-.24-.44-.38.09-.16.18-.31.29-.5.03.15.05.25.08.35.06.14.12.26.32.25ZM148.74,24.82c-.05-.34.37-.38.38-.66.16.34.04.53-.38.66ZM148.77,23.2v-.46c.28.15.28.18,0,.46ZM150.72,21.61c.17-.07.27-.1.4-.15.04.13.06.22.1.37-.19-.08-.31-.13-.51-.22ZM147.72,22.04h.29c.02.32-.12.51-.39.64-.03-.14-.08-.26-.06-.36.03-.15.16-.14.34-.03-.09-.13-.12-.18-.18-.25ZM147.27,23.24c0,.36-.11.6-.36.85.06-.33.05-.61.36-.85ZM115.98,12.83c3.67-3.38,7.81-6.05,12.42-7.98,4.58-1.92,9.38-2.95,14.33-3.18,15.38-.72,27.4,6.45,34.24,14.47-.43.21-.85.27-1.3.27-20.49,0-40.98,0-61.46,0-.42,0-.83.01-1.25.01-.13,0-.27-.01-.5-.02,1.13-1.32,2.32-2.45,3.52-3.56ZM112.4,16.69s0,0,0,0c.38.18.75.36,1.13.54.07.03.17.03.21.07.22.28.54.34.84.48.17.08.27.3.41.47-.33.2-.59-.2-.94,0,.04-.16.06-.26.08-.38-.03,0-.08-.02-.1,0-.22.2-.44.14-.65-.02-.14-.12-.28-.24-.45-.4-.25.03-.49-.07-.62-.36-.07-.15-.08-.29.09-.4ZM113.92,17.27c.27-.2.44-.25.73-.18.19.05.36.06.55,0,.24-.06.27-.04.46.23-.09.08-.17.15-.21.18-.14-.05-.24-.1-.35-.12-.38-.05-.77-.08-1.18-.13ZM114.67,18.46c-.27.2-.28.2-.55-.03.18-.09.33-.03.55.03ZM113.68,19.3c-.19-.02-.27-.11-.33-.24-.02-.04,0-.12-.03-.12-.3-.12-.6-.22-.9-.33v-.51c.18-.08.34-.04.43.07.18.21.42.27.66.35.17.06.33.11.43.3-.14.03-.26.05-.41.08.05.14.09.25.15.4ZM109.69,16.56h2.39c-.8,1.04-1.58,2.05-2.36,3.07-.1-.38-.12-2.57-.03-3.07ZM109.71,86.46c-.09-.33-.09-17.5,0-17.85,7.29,9.99,17.01,15.96,29.26,17.85h-29.26ZM121.89,79.26s-.15.04-.26.07c.12.13.41.12.26.39-.07-.04-.15-.09-.23-.13-.09-.04-.18-.07-.28-.1.02-.08.04-.13.06-.19-.18-.03-.36-.02-.51-.09-.14-.06-.24-.21-.4-.35.29-.18.63-.09.95-.13.32-.04.64-.1.96.03-.19.15-.48.2-.56.5ZM122.52,79.13s.14-.14.16-.13c.07.04.19.16.17.19-.1.21-.23.4-.36.59-.02.02-.09,0-.18,0,.02-.11.01-.18.04-.22.1-.13.19-.25.17-.44ZM143.01,85.96c-.15.1-.28.18-.44.28-.19-.18-.11-.45-.12-.71.18-.12.35-.2.56-.11v.53ZM148.16,86.45s-.11-.04-.14-.11c.37-.07.65-.34,1.11-.19-.37.12-.67.22-.97.3ZM151.4,86.17c-.21.03-.39.05-.6-.09-.26-.17-.6-.08-.9-.09-.68-.03-1.88.03-1.78.08-.03.03-.05.06-.08.07-.31.07-.63.13-.94.2-.16.03-.35.06-.51.02-.2-.05-.37-.14-.57-.16.08.05.16.1.24.16-.11.07-.29.02-.33-.11-.03-.26-.1-.52-.12-.78-.03-.67.31-1.32.29-1.99-.03-.7-.45-1.32-.72-1.97-.52-1.27-.44-2.71-.7-4.06-.02-.12-.06-.23-.09-.34.11.6.06,1.22.1,1.83.05.85.27,1.69.54,2.5.26.76.66,1.5.69,2.32,0,.19,0,.38-.06.56-.09.29-.34.54-.64.57-.22.02-.44-.08-.6-.24s-.26-.36-.33-.57c-.09-.28-.13-.57-.12-.86.06-.33-.11-.58-.26-.84-.18-.3-.35-.6-.51-.91-.19-.34-.37-.7-.42-1.09-.05-.38.02-.77.03-1.15.02-.66-.15-1.3-.23-1.95-.12-.95-.06-1.92,0-2.88-.24.78-.49,1.6-.37,2.41.06.43.23.85.3,1.28.21,1.14-.17,2.4.37,3.43.18.34.43.63.64.95.08.13.49.86.25.97-.02,0-.04,0-.06.01-.24.03.05.35.1.43.2.29.37.6.55.89.17.27.44.59.74.49.02.12.05.23.07.35-.15.16-.4.12-.6.19s-.35.39-.15.46c.05.02.1.01.15,0,.15-.04.26-.16.41-.21.14-.05.35-.02.38.13.03.16-.15.27-.3.32-.26.08-.57.1-.78-.06-.22-.16-.24-.56,0-.68-.21-.22-.51-.34-.82-.33.13.27.29.52.47.75-.22-.05-.45-.03-.66.06.2.05.41.1.61.15-.25.14-.65.23-.76-.03-.03-.07-.03-.15-.03-.23,0-.14.08-.49,0-.61-.08-.13-.29-.03-.34-.22-.25.08-.53-.09-.79-.02-.02,0-.04.01-.05.03-.01.02,0,.04,0,.07.09.31.17.63.26.94-.01-.04-.21-.15-.25-.19-.07-.07-.14-.14-.19-.23-.11-.18-.14-.41-.03-.59-.12.02-.23.03-.35.05.04.26.09.52.13.77-.11,0-.24,0-.29-.1-.02-.04-.02-.08-.03-.12-.01-.15-.02-.29-.04-.44-.1.07-.16.19-.19.31-.02.12-.02.25,0,.37-.1-.17-.2-.39-.2-.59,0-.09.02-.19.04-.28.01-.05.03-.27.07-.3-.1.08-.16.13-.22.19-.12-.5,0-.77.32-.84-.01-.28-.03-.57-.03-.85,0-.11.01-.23.05-.34.19-.51.04-.96-.23-1.4-.25-.42-.52-.83-.78-1.24-.49-.76-.75-1.61-.99-2.47-.15-.54-.28-1.08-.5-1.6-.43-1.04-.68-2.13-.62-3.25.04-.62.04-1.25.26-1.86.13-.37.17-.78.25-1.18.06-.3.13-.6.19-.91.02-.11.04-.22.05-.33,0-.09,0-.18.02-.26.14-.62.14-1.24.17-1.87,0-.22.1-.43.13-.65.1-.58.2-1.17.3-1.75,0-.22.01-.44.04-.66-.11-.26-.19-.52-.21-.82-.02-.24-.14-.48-.23-.71-.04-.1-.03-.18.04-.24-.01-.06-.02-.12-.02-.18-.1-.06-.14-.16-.17-.27-.19-.62-.16-1.26-.31-1.88-.03-.14,0-.28.08-.39.49-.63.98-1.25,1.66-1.69.18-.12.32-.3.48-.45-.36.16-.7.34-.95.66-.02.03-.04.07-.07.08-.42.24-.7.63-1.02.98-.02.02-.05.04-.13.1.05-.45-.21-.82-.11-1.23-.23-.36,0-.82-.3-1.17,0,.16.01.32.03.48.02.25.05.5.06.75.02.34.02.68.03,1.02.03.49,0,.95-.26,1.39-.18.31-.26.68-.42,1-.14.28-.3.56-.5.8-.21.24-.47.43-.68.66-.37.4-.6.91-.94,1.34-.45.57-1.08.98-1.59,1.5-1.09,1.12-1.59,2.67-1.96,4.19.25-.6.49-1.2.74-1.81.12-.28.23-.57.38-.83.28-.5.66-.93,1.04-1.36.32-.35.58-.75.9-1.09.33-.36.69-.69,1.02-1.06.42-.48.78-1.01,1.2-1.49.32-.36.75-.95,1.3-.81.04.18.08.35.12.54,0,0,.53,1.96.63,2.24-.13.01-.08.45-.07.61-.03.15-.13.88-.16,1.04-.03.21-.09.42-.13.63-.04.22-.27,1.72-.27,1.72.05.13.03.21,0,.42-.07.44-.71,2.98-.65,3.02-.05.06.04.3-.13,1.11-.06.71-.02,2.05.07,2.4.03.1.11.53.2.69,0,0,.24.64.29.83.17.45.37.89.51,1.35.1.32.19.65.28.97.01.05.47,1.55.99,2.42.05.08.1.14.16.21.21.25.71.93.47,1.64-.14.04-.07.67-.07.67.02.09-.27.43.08.44-.16.22-.45.91-.41,1.02h-1.18s-.17-.05-.22-.02c-.37.18-.2.11-.34.16-.15.05-.29.12-.46.19,0-.08-.47-.13-.48-.03-.15.01-.24.32-.06.32.65-.02,1.24.21,1.85.51-.18.1-.34.05-.48.02-1.07-.17-2.15-.32-3.21-.54-3-.62-5.87-1.6-8.66-2.87-.16-.07-.29-.18-.44-.28-.14-.06-.27-.12-.41-.18-.41-.17-.81-.34-1.24-.52.04-.05.05-.06.06-.07.01,0,.03,0,.04,0,.02,0,.04-.01.06-.02-.12-.1-.24-.21-.37-.3-.35-.23-.36-.24-.2-.64,0-.02.02-.05.03-.07-.09-.14-.16-.31-.28-.39-.11-.07-.3-.04-.47-.06.2-.17.37-.31.53-.45,0-.01-.02-.03-.03-.04-.36.14-.71.28-1.08.42.11.07.23.15.35.23.13-.23.26.01.39.02.11,0,.23.14.32.24.1.12-.02.36-.17.33-.13-.02-.27-.08-.38-.15-.09-.06-.15-.17-.25-.29-.02,0-.1.06-.15.03-.13-.06-.28-.13-.35-.24-.04-.06.06-.22.12-.32.08-.14.18-.28.3-.38.11-.1.27-.14.41-.22-.11-.18-.38.08-.48-.22-.05.16-.07.24-.1.32-.02.06-.02.16-.05.17-.24.11-.28.36-.41.59-.23-.24-.2-.49-.11-.72.08-.21.23-.4.37-.62.28.03.52-.08.74-.3.23-.23.13-.44.56-.46-.13-.07.1-.3.03-.2.17-.24.18-.55.53-.67.1-.27.22-.54.31-.81.1-.32.18-.64.27-.96.03-.09.01-.69.03-.75.22-.81.24-1.68.59-2.46.12-.27.22-.55.31-.83.08-.23.19-.46.23-.7.05-.26.01-.53.1-.79.07-.23.17-.45.21-.68.06-.31.83-1.89,1.03-2.19.23-.35.5-.67.75-1,.25-.33.48-.67.74-.99.16-.2.34-.39.52-.58.35-.4.71-.81,1.06-1.21.05-.06.48-.52.63-.75.41-.64.77-1.27,1.32-1.79.01-.01.04,0,.08-.01-.03.11-.05.22-.09.38.08-.05.12-.06.13-.08.16-.34.31-.68.47-1.01.02-.03.08-.04.11-.07.11-.12.19-.23.15-.43-.05-.28,0-.57,0-.86,0-.24,0-.47,0-.72-.47.03-.1,0-.59.03.2.18.03.1.22.09.2-.01-.06.01.15,0,.03.2,0,1.11-.02,1.3-.01.11-.24.49-.26.61-.04.18-.23.34-.62.84-.13.08-.14.16-.45.42-.13.19-.27.53-.47.78-.32.4-.85,1.14-.85,1.14-.08.1-.42.44-.47.55-.13.28-1.69,2.01-1.9,2.24-.12.13-.46.63-.57.74-.33.49-.46.76-.63.99-.17.27-1.78,5.16-1.73,5.19-.03.19-.41,1.73-.46,2.75.03.12-.01.17-.07.4-.16.42-.29.77-.43,1.13-.43.27-1.02,1.2-1.1,1.3-.17.22-.35.35-.65.21-.08-.04-.19.01-.29,0-.1,0-.21-.02-.31-.03.06-.04.11-.09.18-.14-.13-.09-.28-.06-.42-.05-.59.04-1.18.08-1.77.12-.11,0-.23-.02-.34,0-.14.03-.23-.04-.28-.14-.14-.3-.43-.41-.68-.57-.2-.12-.42-.22-.61-.36-3.11-2.35-5.77-5.15-8.1-8.27-.18-.24-.34-.48-.52-.71-.17-.23-.29-.49-.29-.78,0-4.15,0-8.3,0-12.46v-25.27c.14-.12.28-.14.4-.05.29.22.59.38,1,.32-.07.05-.14.1-.2.16.08.42.17.48.57.45.51-.03,1.02,0,1.52-.05.28-.03.56.01.83.07.14.03.28.07.42.1.07.02.14.03.21.04.04,0,.14,0,.17.04.3.09.63.16.95.16.22,0,.45.02.67,0,.23-.03.44-.18.67-.16.08,0,.19-.03.28-.03.11,0,.21.02.32.03.2.03.4.04.6.05.43,0,.84.08,1.26.15.27.05.53.09.8.14.26.05.66.16.91.24.3.1.62.18.93.22.28.03.56.09.84.14.74.16,1.53-.07,2.28-.07.73,0,1.44.05,2.12-.24.13-.06.26-.09.4-.12.12-.03.23-.02.32,0,.05-.03.1-.05.16-.05.07-.01.13-.01.22,0,.32.15.67.07,1,.12.07,0,.17.01.22-.03.27-.18.56-.11.85-.08.14.01.29,0,.45-.07-.06-.03-.11-.08-.17-.08-.38,0-.75.03-1.13.04-.29,0-.58,0-.86-.03-.32-.04-.64-.14-.97-.03-.01,0-.03,0-.04,0-.06.03-.11.06-.17.08-.08.02-.16.03-.24.04-.04,0-.08,0-.11,0,0,.02-.01.03-.02.04-.23.06-.44.15-.66.17-.3.03-.6.02-.9,0-.35-.03-.69-.05-1.05.03-.35.08-.73.06-1.1.06-.57.01-1.14-.01-1.69-.16-.38-.1-.74-.22-1.11-.33-.16-.05-.32-.11-.48-.14-.17-.04-.35-.05-.52-.07-.26-.04-.53-.07-.79-.09-.12,0-.25,0-.37-.02-.13-.02-.26-.05-.39-.05-.02,0-.04,0-.08,0-.03,0-.07,0-.1,0-.15,0-.34-.03-.49-.09-.07-.02-.12-.05-.14-.09-.07-.06-.12-.13-.14-.24-.01-.09,0-.18.01-.27,0-.08,0-.16.02-.24.1-.44.06-.9.03-1.35.72-.15,1.47.09,2.21.06.58-.02,1.15-.22,1.73-.31.67-.1,1.36-.06,2.03.04.31.05.63.11.95.1.42,0,.83-.14,1.25-.15.74-.02,1.44.33,2.15.54.71.21,1.58.25,2.11-.27-.48-.03-.91.33-1.39.31-.39-.02-.71-.27-1.06-.45-.69-.35-1.51-.36-2.27-.23-.33.06-.66.14-.99.12-.28-.02-.55-.12-.82-.17-1.36-.29-2.77.34-4.15.19-.23-.03-.46-.07-.69-.07-.39,0-.78.16-1.17.1-.61-.1-1.03-.69-1.62-.88-.44-.14-.93-.04-1.35-.22-.27-.12-.49-.37-.79-.44-.34-.08-.69.08-1.04.08-.22,0-.43-.07-.65-.08-.22,0-.47.08-.55.28.1.41.61.53,1.03.57l1.58.17c-.34-.26-.81-.27-1.24-.29-.43-.03-.91-.12-1.16-.47.62-.02,1.24-.05,1.86-.07.09,0,.19,0,.28.02.17.05.29.2.44.31.45.31,1.07.15,1.58.33.3.11.54.33.79.52.12.09.25.18.4.24.07.03.14.05.21.07.09.02.14.04.22.08-.03.67-.06,1.33-.09,2.02-.36.28-.79.41-1.23.38-.34-.02-.67-.15-1.01-.23-.11-.02-.22-.03-.32-.05-.2-.04-.39-.07-.58-.13-.07-.02-.13-.08-.17-.14-.14-.23-.27-.47-.39-.69.2.02.44.04.71.06.05.07.41.12.52,0,.08.04.17.07.25.13.3.19.63.31.98.35.18.02.35.03.53.02.29-.01.59-.1.66-.42-.13.08-.23.19-.36.26-.17.08-.37.08-.56.06,0-.02-.02-.03-.04-.03-.05,0-.14.02-.18-.02-.06-.08-.15-.15-.18-.23-.11-.31-.42-.27-.64-.38-.07-.03-.22.1-.36.17-.13-.05-.11-.15,0-.26-.09-.06-.18-.11-.31-.19.22-.05.39-.08.56-.12.01-.04.03-.07.05-.08-.02-.05-.04-.09-.04-.12-.07,0-.15-.01-.28-.02v-.23c-.32-.05-.64-.11-.99-.16-.08.08-.15.19-.33.16-.45-.09-.71-.21-.91-.47.09-.29.45.02.57-.27-.21-.13-.41-.06-.62,0-.1.03-.19.07-.29.07-.17.02-1,.1-1.35-.08-.07-.04-.17,0-.26,0-.21,0-.42,0-.65,0,0-.14-.02-.26-.02-.39,0-1.64,0-3.29-.02-4.93,0-.67-.02-1.34-.06-2.01-.03-.53.11-.98.46-1.4.58-.69,1.11-1.41,1.66-2.12.08-.1.16-.19.23-.27.12.13.23.25.35.37-.03.02-.08.05-.15.09.09.02.16.04.23.05.34,0,.61.14.86.38.17.17.41.26.66.41-.42.11-.68.02-.64-.15-.14-.06-.28-.1-.41-.17-.19-.1-.22-.1-.67.07-.04.23,0,.42.24.52.01.03.02.07.04.13-.07.01-.14.02-.2.03,0,.02.01.05.02.05.08.03.17.07.25.07.43.02.71.27.99.61h-.28c.16.17.36.25.58.31.14.04.27.12.41.17.17.06.34.11.53.18-.04.04-.07.08-.11.1-.23.13-.23.13-.02.29.03.02.04.06.05.09,0,.02,0,.05,0,.13-.16-.07-.31-.12-.44-.21-.26-.18-.53-.29-.84-.29.37.19.74.42,1.08.64.38.25.87.37,1.15.79,0,.01,0,.03.02.03.45.18.84.51,1.35.51.04,0,.09-.03.21-.06-.41-.17-.84-.11-1.17-.48.18.04.29.07.4.1.09-.2-.06-.24-.19-.27-.13-.03-.25-.06-.37-.16.07.01.14.02.26.04-.17-.15-.3-.26-.49-.44.47.02.77.27,1.15.37-.03-.14-.34-.17-.12-.37.14.08.29.16.46.25.05-.09.09-.16.16-.29-.12-.03-.24-.1-.32-.07-.31.12-.53-.02-.74-.21-.12-.11-.25-.21-.4-.33.07-.15.14-.3.21-.45-.15-.08-.34-.11-.42-.32-.03-.08-.22-.1-.33-.16-.13-.07-.25-.15-.35-.26-.1-.1-.21-.13-.34-.12-.2,0-.37-.06-.48-.26.15.12.31.15.46.05.13-.09.23-.21.4-.36.23.12.52.26.8.41,0-.01.02-.02.02-.04-.12-.11-.24-.23-.4-.37.16-.03.27-.05.38-.07,0-.02,0-.04.01-.06-.08-.03-.16-.06-.26-.1.06-.18.11-.37.18-.56.08-.19.2-.21.33-.03.21.3.49.52.82.66.39.16.57.46.69.83.08.24.16.48.42.66-.05-.03-.08-.33-.09-.4-.04-.14-.08-.29-.13-.43-.06-.17-.12-.34-.23-.48-.13-.17-.3-.25-.48-.35-.04-.03-.5-.32-.5-.31.04-.04-.31-.07-.32-.42-.08-.18-.25-.28-.45-.35-.1-.04.12-.26-.1-.27-.05.04-.09.12-.14.12-.24.02-.47.06-.71.09-.43.05-.88,0-1.32,0-.12,0-.23-.04-.34-.06,0-.03,0-.06,0-.09h.75s.01-.06.02-.09c-.08-.02-.17-.06-.25-.06-.32,0-.64.04-.95.05-.11,0-.22,0-.32-.01.02-.05.03-.12.05-.12.66,0,1.31.03,1.95.05.13-.02.26-.07.39-.07,7.13,0,14.27,0,21.4,0,1.62,0,3.24.03,4.85.04.3,0,.6-.03.98-.05-.15.21-.25.34-.34.47-.14-.02-.27-.03-.39-.04,0,.03-.01.05-.02.08.12.04.24.08.4.14-.35.24-.68.04-.99.11.12.04.25.07.4.12-.26.19-.53.33-.65.64,0,0-.02,0-.03.01-.04.06-.08.12-.14.16.04,0,.07,0,.1.01,0,.06,0,.13.01.22h-.39s-.1.07-.17.09c-.07.05-.15.09-.22.15-.09.08-.15.18-.25.3-.03,0-.07,0-.1.01-.01.03-.03.06-.04.08.02,0,.04,0,.06.01-.05.19-.11.36-.16.55-.03,0-.06-.01-.1,0,0,.03-.02.06-.02.09.13.03.26.04.45.02q0,.17-.33.21c.05.27.3.08.48.22-.09.04-.16.08-.22.08-.14,0-.27-.05-.4-.07-.07,0-.13,0-.19.02-.04.24-.14.46-.3.64v.09c.12.1.31.17.33.27.03.2-.04.42-.07.64.07.03.18.07.31.12-.02.16-.05.26-.23.15-.08-.05-.19-.09-.28-.09-.13,0-.26.02-.39.03-.03.03-.05.06-.08.09.06.01.13.02.19.04,0,.16-.07.17-.16.19,0,.03.02.05.05.08.2.05.23.15.05.3.01.15.02.29.03.44,0,.02,0,.04,0,.06.03.02.06.04.06.06-.03.29.2.22.36.29-.14-.24-.08-.42.13-.65,0,.26-.2.53.2.62-.14.14-.3.17-.45.18.04.02.08.05.11.08h.07s.02.09.03.13c.02.05.04.1.05.16,0,.02,0,.04,0,.06.2.05.41.1.62.16,0,.02,0,.03,0,.05h-.51c-.1.14-.12.17-.28.21,0,.02,0,.04.01.06.08,0,.15.02.21.02-.04.13-.12.13-.21.13,0,.02,0,.04-.01.06.08,0,.17.01.26.02.06.15.13.31.21.48-.06.02-.12.05-.25.1.36.02.66-.06.93.12-.04-.03-.45.07-.54.07-.18,0-.38-.03-.56.01.08.08.33.02.45.04.2.02.39.07.57.15-.14.04-.28.08-.41.14l.59.06s-.18.09-.23.1c-.11.03-.22.04-.32.01-.15-.04-.28-.17-.28-.33,0,.13-.46.15-.54.14-.21-.03-.41-.13-.61-.21-.86-.36-1.68-.34-2.58-.27-.17.02-.35.01-.52.06-.19.05-.37.15-.57.13-.13-.01-.25-.08-.36-.14-.45-.25-.9-.5-1.35-.75-.16-.09-.38-.17-.5-.03.09-.1,1.16.51,1.29.58.42.24.81.51,1.25.7,0-.11.07-.21.16-.27s.2-.08.31-.1c.81-.15,1.65-.17,2.43.11.05.02.09.04.13.07,0,0,0,.02.01.05h-.41c.17.14.17.15.42.14.44-.01.87.09,1.3.18.42.09.72.39,1.09.51-.1.4-.63.38-.71.87.29-.2.51-.36.75-.53.03.22.06.4.09.61.16-.07.27-.12.4-.18.05.08.09.14.15.24.04-.06.09-.1.09-.14,0-.21-.05-.43.28-.41.11-.32.55-.28.64-.64.04-.14.22-.25.38-.35-.07.25-.13.51-.2.76-.04.15-.14.24-.3.31-.2.08-.38.2-.56.31-.05.03-.06.12-.11.25-.12.04-.3.1-.57.19-.06,0-.03-.28-.21-.16-.06.04-.14.11-.13.16,0,.03.02.06.03.08.1.03.2.07.29.12.01,0,.03.01.04,0,.43,0,.85-.03,1.28,0,.51.04,1-.05,1.51-.04.21,0,.44-.04.53.17.1.22.15.48-.08.69,0,0,0,.02.03.1.1-.12.18-.22.25-.32.09-.12.13-.23.03-.37-.03-.04.06-.21.14-.26.3-.21.4.34.61.4.04.01.09.01.13.01.11,0,.24.02.35,0,.14-.03.07,0,.16-.12.1-.14.19-.27.35-.34.02,0,.04-.02.06,0,.03.01.03.05.03.08,0,.08,0,.17,0,.25.03-.11.13-.19.24-.23s.23-.04.34-.04c.52,0,1.03,0,1.55,0v-.15c.23.13.51.15.78.13.98-.06,1.76-.7,2.75-.57.27.04.55.07.82.11.07,0,.13.03.2.05.02,0,.05,0,.07,0,.11-.01.21-.03.32-.06.02,0,.05,0,.07,0,.05-.04.1-.07.15-.09.12-.03.24-.03.41-.05,0,.19-.02.35-.02.51.05.07.08.16.08.26,0,.09-.01.17-.03.26.03.04.01.12.01.17,0,.15-.01.3-.02.45,0,.07,0,.13,0,.2,0,.01-.01.02-.01.04-.01.24-.02.47,0,.71.03.46-.26.68-.57.88-.23.15-.41.26-.6.46s-.48.36-.74.46c-.08.03-.17.07-.22.13-.04.05-.06.11-.08.17-.17.49-.45.93-.73,1.36-.03.05-.06.1-.11.13-.07.05-.17.06-.25.06-.83.04-1.68.05-2.51-.02-.14-.01-.28-.03-.42-.02-.08-.07-.2-.1-.3-.12-.29-.08-.57-.21-.82-.39-.13-.09-.27-.21-.42-.19,0-.08-.07-.15-.15-.16.03.23.06.46.1.7,0,.07.02.14-.03.19-.04.04-.09.05-.15.05-.19,0-.38-.03-.55-.11.23.18.52.26.81.31.12.02.24.03.35.08s.2.16.33.18c.07,0,.14-.02.21-.02.17-.01.32.09.46.17.23.13.48.21.74.25.35.05.71,0,1.07,0,.22,0,.44,0,.65-.04.39-.06.66-.29.96-.52.3-.23.31-.24.6.06.05-.02.1-.04.16-.06.05-.02.09-.04.13-.06.03.03.06.04.06.06.07.24.11.42.03.67.14.12.2.32.19.5s-.06.36-.12.54c-.26.76-.57,1.52-.71,2.31-.09.51-.11,1.04-.33,1.51-.1.22-.25.41-.34.63-.12.27-.1.4.03.65.1.2.11.46.09.69-.02.29,0,.52.1.79.1.26.23.51.26.78.05.39-.1.76-.2,1.13-.11.4-.08.77-.03,1.18.15,1.16.17,2.34.06,3.51-.05.53-.13,1.06-.14,1.6s.05,1.08.26,1.57c.02.05.05.1.09.14.04-.04.03-.12.02-.17-.23-.93-.12-1.9-.05-2.85.04-.55.06-1.1.07-1.65s-.06-1.1,0-1.62c.31.48.55,1.12.67,1.68.12.53.14,1.06.16,1.6.01.32.05.66.17.96.09.24.23.46.36.68.12.21.22.43.34.64.42.78,1.02,1.42,1.33,2.25.48,1.28,1,2.61,1.4,3.92.37,1.23-.05,2.58.48,3.78.19.42.48.79.65,1.21.23.57.22,1.21.33,1.82.34,1.76,1.71,3.1,2.66,4.62,1.08,1.72,1.56,3.69,2.27,5.56.07.18.13.37.18.56.05.16.15.38.15.55.07.25.16.5.32.71.31.41.51.9.93,1.23.1.08.24.48.3.55.18.21.41.27.67.27.54,0,1.09-.06,1.62.11.1.03.26-.06.38-.12.15-.07.3-.16.45-.24.02.02.03.04.05.06-.03.06-.05.12-.08.19.08.02.15.03.23.05.08-.12.16-.25.24-.38.3,0,.58.07.81.29-.13.11-.25.11-.39.05-.07-.03-.18-.05-.24-.02-.27.12-.52.26-.81.35-.18.06-.31.21-.27.45.02.1,0,.21.04.33.08-.21.16-.43.24-.64.03,0,.05.02.08.02,0,.06-.04.13-.02.18.02.09.06.17.1.25.1-.04.23-.06.28-.14.07-.1.07-.24.1-.36.03-.17.07-.34.28-.35.21-.02.32.11.39.29.08.22.11.43-.07.62-.23.25-.51.42-.84.51-.12.03-.26-.02-.43-.05.06.16.11.28.16.41-.02.02-.04.04-.05.05-.1-.08-.22-.14-.31-.24-.13-.15-.24-.08-.41,0,.15.1.26.17.4.27-.16.24-.37.39-.65.41-.14,0-.28-.03-.41-.06-.37-.07-.73-.02-1.07.16-.2.11-.21.16-.11.39-.2.19-.36.44-.67.49-.06,0-.12.08-.17.14-.33.36-.76.37-1.11.02-.11-.11-.2-.22-.3-.35.06.16.1.33.11.5.14.05.26.15.37.3-.07.05-.12.11-.19.15-.26.13-.51.25-.77.37.12-.02.24-.05.36-.06.14-.02.29-.03.43-.04,0-.04,0-.12.02-.13.49-.19.93-.51,1.55-.55-.1.08-.15.13-.21.16-.39.2-.79.39-1.18.58-.05.02-.12.01-.18.02-.11.06-.2.14-.32.19-1.83.77-3.71,1.4-5.63,1.91-.12.03-.26.13-.36-.09.29-.04.54-.09.78-.27.13-.11.36-.09.54-.13.3-.07.63-.09.85-.37-.09.02-.18.04-.27.06-.27.06-.54.13-.81.2-.2.05-.44.06-.59.18-.24.19-.5.15-.75.18-.2.02-.39.04-.53.27.11,0,.18.01.24.02,0,.02,0,.04.01.06-.11.04-.21.07-.27.09-.23-.19-.4-.41-.62-.5-.34-.13-2.07-.4-3.08-.83-.14-.09-.45-.15-.67-.36-.11-.1-1.11-.79-1.3-1.17l-.06-.29s-.4-1.03-.42-1.1c-.02-.08-.21-2.52-.2-2.63.01-.19.03-.38.06-.56.04-.25.04-.53.06-.79.03-.35.05-.71.05-1.06,0-.33-.02-.66-.04-.99-.03-.5-.06-1.01-.09-1.51-.02-.3-.04-.6-.11-.9-.06-.29-.16-.58-.15-.88-.11.12-.1.31-.09.47.16,1.67.35,3.32.21,5.01-.06.75-.13,1.5-.09,2.26.02.31-.05.62-.02.92.04.32.14.63.23.95.1.33.18.66.33.97.15.31.26.65.53.9.11.1.22.18.37.23.23.08.42.24.64.35.19.1.4.17.59.26.09.04.07.1.24.17.39.18.35.17.65.32.32.16,2.6.76,2.66.86-.05.03-.08.05-.11.06-.85.18-1.71.35-2.56.52-.12.03-.25.05-.37.06ZM138.48,60.95c-.19,0-.39.08-.55-.12q.25-.06.55.12ZM111.4,30.46c.3-.05.6-.07.9-.11.16-.02.32-.04.47-.08.39-.11.55.02.53.53-.37-.03-.71-.06-1.06-.08-.1,0-.2-.02-.29.01-.29.09-.57.04-.93-.11.17-.08.27-.15.38-.17ZM111.06,30.06c-.15,0-.04-.02-.15,0-.29.14-.57-.03-.83-.16-.06-.03-.06-.18-.09-.27.56-.05,1.07-.1,1.58-.14,0,.09,0,.18.03.26.03.07.1.13.16.2-.24.21-.49-.02-.7.11ZM111.9,29.21c.24-.09.4-.02.56.09-.19.06-.38.13-.56-.09ZM112.39,29.07c-.17-.04-.49-.12-.53-.04-.13.09-.98-.09-1,.06-.16-.02-.31-.04-.47-.06-.18-.03-.37-.06-.56-.09.12-.34.12-.31.41-.35.27-.03.53-.13.8-.19.1-.02.21-.04.32-.03.26.04.51.09.82.15.06.16.2.32.45.37.1.02.18.12.29.21-.22.12-.37,0-.53-.03ZM109.94,29.14c.29.15.58.06.88.06.02,0,.03-.06.05-.09.29.05.57.1.92.16-.4.06-.72.24-1.11.14-.24-.06-.52,0-.77,0-.1,0-.22-.03-.2-.16.02-.13.15-.15.24-.1ZM114.18,19.44c.15.05.25.09.4.15-.13.11-.2.17-.28.25-.04-.13-.07-.23-.12-.39ZM115.51,21.16c-.27.06-.45-.07-.61-.23-.06-.06-.13-.15-.13-.22.02-.26.07-.53.11-.82.39.19.18.57.3.84.1-.04.19-.07.3-.12,0,.05.02.09,0,.12-.09.15-.14.29.02.44ZM152.44,32.14c-.1.34-.23.67-.28,1.02-.03.26-.22.37-.38.6-.11-.29-.2-.52-.29-.75-.03-.07-.04-.15-.05-.23-.02-.21-.06-.42.15-.57.15-.11.3-.24.45-.35.3-.21.6-.43.9-.63.08-.06.19-.08.28-.12.21.34-.19.46-.19.74,0,.25-.19.5-.31.75-.11.23-.23.45-.4.67.06-.29.09-.59.18-.87.05-.17.18-.31.28-.47-.21-.08-.29.04-.34.21ZM151.92,33.93c-.05.24-.09.46-.15.75-.14-.3-.03-.5,0-.71,0-.02.08-.03.15-.04ZM153.35,31.76q.09.39-.21.51c.07-.18.13-.32.21-.51ZM150.17,34.01c-.23.27-.42.29-.67.2.07.31-.29.12-.37.35-.05-.07-.09-.15-.14-.23-.04.07-.07.12-.11.2-.09-.07-.16-.13-.25-.2.19-.11.36-.21.5-.29.18,0,.34,0,.5,0,.15,0,.31-.02.54-.03ZM164.98,81.48c.11-.07.24-.1.38-.1-.53.38-1.1.67-1.71.89.04-.3.3-.34.49-.39.31-.09.58-.22.85-.39ZM164.25,81.54c.17-.28.46-.24.8-.33-.22.36-.58.17-.8.33ZM151.81,86.35s-.01-.07-.02-.11c.33-.05.65-.11.98-.16-.27.36-.64.16-.96.27ZM152.94,86.47c.34-.15.69-.09,1.05,0h-1.05ZM180.21,86.47h-25.62c.16-.1.26-.15.42-.25-.28.02-.48.04-.67.04-.1,0-.21,0-.3-.05-.08-.04-.18-.13-.18-.21,0-.06.11-.17.19-.19.22-.07.44-.1.66-.15.24-.05.49-.11.76-.18.01.16.02.3.03.45.31-.09.09-.32.16-.51,10.18-2.72,18.38-8.38,24.46-17.03.04.01.06.01.07.02,0,0,.02.02.02.03.01,5.93.02,11.87.03,17.8,0,.06-.01.12-.03.22ZM180.02,68.31c-2.74,3.89-5.97,7.3-9.85,10.07-.59.42-1.21.82-1.81,1.23-.31.21-.62.43-.93.64-.1.06-.21.1-.31.15.07-.09.14-.19.23-.25.37-.27.75-.51,1.11-.78.11-.08.19-.2.27-.29.09,0,.21.04.28,0,.27-.18.53-.38.81-.58-.13-.17-.27-.19-.46-.16-.14.02-.3-.06-.54-.13.07.13.1.17.15.25-.08,0-.19.03-.2.02-.09-.22-.28-.22-.46-.25-.05,0-.1-.03-.15-.04.02-.04.04-.08.06-.12.18,0,.36-.01.54,0,.17.01.35.05.53.03-.04-.02-.09-.06-.13-.07-.35-.06-.7-.13-1.05-.16-.13-.01-.33-.06-.38.18.02-.12-.7-.08-.75-.06-.2.07-.41.14-.6.24-.19.1-.36.22-.57.26-.16.03-.32.02-.48,0-.62-.06-1.12-.02-1.61-.43-2.13-1.81-2.27-4.43-3.27-6.86-.77-1.85-2.06-3.42-2.92-5.22-.72-1.51-1.08-3.16-1.78-4.69-.59-1.29-.1-2.8-.63-4.19-.17-.44-.35-.87-.51-1.31-.14-.39-.23-.79-.35-1.19-.24-.78-.54-1.56-1.05-2.21-.2-.25-.4-.52-.53-.82-.11-.27-.2-.55-.39-.78-.09-.1-.19-.19-.28-.3-.29-.35-.24-1.01-.25-1.44-.02-.55-.02-1.1-.18-1.63-.13-.44-.37-.83-.55-1.24-.19-.43-.31-.9-.37-1.37-.01-.1-.04-.21-.12-.28.18-.26.3-.75.3-1.06,0-.28-.12-.54-.18-.82-.07-.33-.09-.66-.08-.99,0-.16.02-.31,0-.46-.03-.2-.13-.4-.3-.52-.02-.02-.05-.04-.05-.07,0-.03.02-.05.04-.08.51-.54.58-1.27.72-1.96-.01-.07-.02-.04,0-.21.05-.46.23-.88.39-1.31s.25-.92.43-1.36c.12-.3.28-.62.19-.92-.1-.32.21-.71.35-.99.13-.24.31-.47.4-.72s.2-.48.44-.62c.42-.25.87-.5,1.37-.52s1.02.16,1.54.16c1.04.01,2.04-.36,3.08-.33.43.01.84.09,1.28.04s.88-.15,1.33-.1c.17.02.34.07.5.12.38.11.75.22,1.14.28s.78.05,1.17.08c.77.06,1.56.1,2.33,0s1.5-.32,2.21-.57c.32-.11.6-.23.94-.25.36-.02.73.02,1.09,0,.57-.03,1.12-.23,1.7-.25.52-.02,1.05.3,1.56.19.12-.03.22-.08.33-.12.48-.18,1.05-.19,1.55-.22.55-.04,1.09-.09,1.64-.14.11-.01.22-.06.33-.08.09-.01.19-.02.28,0,.26.07.42.04.57-.15.12-.15.2-.3,0-.46-.04-.03-.03-.11-.05-.17h-1.42s-.01-.04-.02-.06c.07-.03.14-.07.21-.08.28-.03.58.06.85-.11.02-.01.05,0,.07,0,.38.16.64-.11.93-.26.21-.11.07-.28.05-.44.15-.03.3-.06.48-.1v.38c0,12.77,0,25.53,0,38.3,0,.27-.07.48-.22.7ZM168.38,79.09c-.06-.06-.13-.12-.2-.18-.02.02-.06.03-.06.04.03.1.06.2.09.3q-.28.08-.37-.3.4-.36.58-.3c-.05.05-.1.08-.14.12-.02.12.32.11.09.32ZM187.33,49.02c-.37,3.31-1.13,6.52-2.3,9.64-1.17,3.12-2.7,6.05-4.58,8.82V20.74c.63.44,3.48,5.93,4.54,8.77,1.17,3.12,1.94,6.33,2.32,9.64.38,3.29.39,6.59.02,9.88Z"/>
        <path class="cls-5" d="M143.67,63.35c0-.24,0-.49-.02-.73,0-.13,0-.3-.05-.42-.02-.05-.05-.1-.08-.13-.01-.01-.13-.09-.13-.09.04.63.15,1.29.1,1.92-.03.48-.1.95-.21,1.42-.05.2-.1.39-.14.6-.04.22-.12.44-.22.64-.02.04-.04.07-.05.11,0,.04,0,.08,0,.12,0,.27-.14.51-.26.74-.02.04-.03.07-.05.11,0,.06-.03.12-.03.18.04.44-.23.89-.64,1.06-.41.17-.91.05-1.2-.29.05.11.1.22.15.33-.25.09-.53.08-.77-.04.25.22.6.3.92.24.02,0,.05-.01.07-.02-.02.01-.05.02-.07.03.04-.02.08-.02.11-.03.02,0,.03-.02.04-.03h.05s.06,0,.08-.01c.02,0,.03,0,.05.01h.44c0,.09.01.18.02.27.02.03.04.05.05.09.02.04.03.08.03.13,0,.04,0,.07,0,.11.09-.2.19-.41.28-.61-.26,1.06-.47,2.27.16,3.15-.11-.15-.09-.6-.11-.79-.11-.78-.17-1.39.11-2.15.05-.14.11-.27.16-.41.18-.48.26-.95.38-1.44.07-.3.19-.58.28-.87.18-.56.26-1.12.35-1.7.04-.2.11-.39.13-.59.02-.23.04-.45.04-.68,0-.07,0-.13,0-.2Z"/>
        <path class="cls-5" d="M161.41,81.26c-.1-1.03-.46-2.03-1.06-2.87-.91-1.28-2.31-2.18-3.01-3.58-.21-.43-.35-.89-.6-1.3-.32-.52-.81-.92-1.21-1.39-.97-1.13-1.38-2.59-1.78-4-.21-.74-.4-1.49-.68-2.21-.25-.65-.78-1.23-.98-1.87-.06-.2-.11-.41-.18-.62-.14-.39-.31-.77-.51-1.14-.24-.42-.53-.83-.65-1.3-.1-.39-.08-.8-.06-1.21.11-2.05.22-4.09.33-6.14-.08,0-.17,0-.25,0,.06,2.25-.07,4.5-.37,6.73-1.13-.92-2.03-2.1-2.74-3.36-.65-1.14-1.18-2.44-1.01-3.75-.04.44-.31.85-.69,1.06-.18-.2-.53-.08-.77-.21-.24-.13-.27-.45-.27-.73,0-.65-.02-1.31-.03-1.96-.3.43-.41.99-.29,1.5.05.22.15.44.16.67s-.07.49-.28.59c-.18.08-.39.02-.53-.11s-.21-.33-.23-.52c-.05-.45.15-.93.51-1.21,0,.17-.02.34-.02.5.18-.4.21-.86.1-1.28l-2.84,4.75c.81-.91,1.5-1.93,2.05-3.03.03.64.68,1.17,1.31,1.09,0,1.67-.33,3.35-.97,4.89-.17.4-.36.8-.46,1.23s-.09.9.11,1.28c.15-.22.09-.51.08-.78-.03-.54.16-1.09.51-1.49.52.89.62,1.97.57,3.01s-.22,2.06-.18,3.1c0,.17.04.37.2.42.2-1.96.01-3.94-.07-5.91s-.05-3.98.55-5.86c.35.26.86.31,1.25.12.42,2.23,1.92,4.09,3.45,5.77.14.15.28.31.31.51.03.14,0,.28-.04.42-.17.76-.4,1.51-.67,2.24-.25.67-.55,1.39-.37,2.08.32-1.07.64-2.14.95-3.22.06-.2.13-.41.3-.52.36-.25.63.26.75.52.13.29.28.58.4.87.1.22.11.45.21.68.57,1.27,1.26,2.27,1.64,3.65s.68,2.9,1.51,4.15c.42.63.95,1.16,1.41,1.75s.72,1.29,1.1,1.96c.92,1.64,2.87,2.62,3.44,4.41.21.66.32,1.27.62,1.91,0-.11-.01-.21-.02-.32ZM150.27,61.55v-.3c.11,0,.23.01.36.02,0,.11.01.2.02.28h-.37Z"/>
        <path class="cls-5" d="M155.18,57.23h0"/>
        <path class="cls-5" d="M139.22,20.57c-.06-.08-.12-.16-.19-.23,0-.01.01-.03.02-.04.1.05.2.1.33.17-.07.05-.12.08-.17.1Z"/>
        <path class="cls-5" d="M150.33,21.13c-.17-.02-.24-.11-.24-.26.1.05.27.05.24.26Z"/>
        <path class="cls-5" d="M150.31,22.94c.18-.13.3-.19.45-.15-.1.12-.22.16-.45.15Z"/>
        <path class="cls-5" d="M167.07,80.42c-.15.11-.3.21-.45.32-.02-.03-.03-.06-.05-.09.15-.11.29-.24.5-.23Z"/>
        <path class="cls-5" d="M142.66,27.93s0,.07,0,.1c.2,0,.4,0,.61,0,.03,0,.07-.02.1-.05.02-.02.03-.07.02-.1,0-.03-.05-.07-.08-.07-.22.03-.44.08-.66.12Z"/>
        <path class="cls-5" d="M153.7,85.95q-.43,0-.61.18c.19.14.19.14.34.01.02-.02.08-.02.11,0,.24.13.16-.05.15-.18Z"/>
        <path class="cls-5" d="M150.2,24.51c-.15.04-.28.07-.39.12-.05.03-.09.1-.11.17,0,.03.05.12.06.12.07-.02.14-.04.19-.08.09-.09.15-.19.25-.32Z"/>
        <path class="cls-5" d="M113.43,29.11s0,.06,0,.09c.1.04.21.07.31.11.04.02,0,.19.12.09.03-.03.02-.13.01-.19-.01-.06-.05-.11-.09-.19-.13.03-.24.06-.36.08Z"/>
        <path class="cls-5" d="M177.59,28.25s0-.06,0-.08c-.05-.03-.1-.07-.16-.09-.07-.03-.16-.11-.22.01-.06.14.07.17.16.19.07.02.15-.02.22-.03Z"/>
        <path class="cls-5" d="M168.7,78.59s-.02.08-.03.12c.11.04.23.09.35.13,0,0,.04-.09.07-.17-.15-.03-.27-.05-.38-.07Z"/>
        <path class="cls-5" d="M149.04,22.56c.07.2.22.12.36.12,0-.09-.02-.15-.02-.23-.13.04-.23.07-.34.11Z"/>
        <path class="cls-5" d="M149.71,25.18c-.24.02-.25.03-.21.32.25,0,.18-.18.21-.32Z"/>
        <path class="cls-5" d="M110.89,30.25c.19.06.37.1.59-.02-.23-.12-.41-.07-.59.02Z"/>
        <path class="cls-5" d="M110.5,28.38v-.11c-.16-.04-.3-.03-.47.11h.47Z"/>
        <path class="cls-5" d="M139.77,20.93q-.2-.15-.37.03c.14,0,.26-.02.37-.03Z"/>
        <path class="cls-5" d="M162.04,28.79q.19.1.35-.03c-.14.01-.25.02-.35.03Z"/>
        <path class="cls-5" d="M138.09,60.6q.17.09.33.07-.2-.15-.33-.07Z"/>
        <path class="cls-5" d="M145.92,20.81s-.03.04-.05.06c.09.06.18.13.27.18.02.01.08-.06.12-.09-.13-.05-.24-.1-.34-.15Z"/>
        <path class="cls-5" d="M152.9,84.74s0,.03,0,.05h.49s0-.03,0-.05h-.49Z"/>
        <path class="cls-5" d="M168.07,78.2q-.28-.04-.41.18c.15-.07.25-.11.41-.18Z"/>
        <path class="cls-5" d="M139.38,21.72s-.06.02-.09.02c-.03.12-.03.23.19.31-.04-.15-.07-.24-.09-.34Z"/>
        <path class="cls-5" d="M149.9,18.91c.18.08.29.13.41.18-.08-.14-.17-.24-.41-.18Z"/>
        <path class="cls-5" d="M138.41,60.41s0-.07,0-.11h-.25s0,.06,0,.08c.08,0,.16.02.25.02Z"/>
        <path class="cls-5" d="M138.31,59.96s-.08.08-.11.11c.04.04.07.09.11.1.02,0,.09-.05.09-.08,0-.03-.05-.07-.09-.13Z"/>
        <path class="cls-5" d="M149.41,26.84c-.08,0-.16-.02-.27-.03.07.22.17.16.27.03Z"/>
        <path class="cls-5" d="M115.51,19.85s.04-.07.06-.11c-.07-.03-.13-.05-.2-.07,0,0-.04.05-.04.05.06.04.12.08.18.13Z"/>
        <path class="cls-5" d="M149.59,21.88c-.11-.18-.2-.2-.33-.06.09.02.18.03.33.06Z"/>
        <path class="cls-5" d="M169.38,78.54c-.08-.13-.17-.14-.31-.11.07.16.16.18.31.11Z"/>
        <path class="cls-5" d="M139.58,26.28c.17.15.28.2.39,0h-.39Z"/>
        <path class="cls-5" d="M112.59,30.04h.34c-.13-.12-.21-.13-.34,0Z"/>
        <path class="cls-5" d="M143.18,24.49s-.04.07-.06.1c.08.04.16.09.25.13.02-.03.03-.06.05-.08-.08-.05-.16-.1-.23-.14Z"/>
        <path class="cls-5" d="M173.19,29.91c.14-.14.14-.23.07-.33-.01-.01-.04-.01-.09-.03,0,.1.01.19.02.36Z"/>
        <path class="cls-5" d="M150.64,23.77c-.08-.1-.13-.17-.18-.24q-.1.21.18.24Z"/>
        <path class="cls-5" d="M142.17,16.79q-.22.13-.24.29c.13-.05.23-.12.24-.29Z"/>
        <path class="cls-5" d="M109.69,29.67s.08.02.13.03c0-.07.02-.14.03-.21-.03,0-.09-.02-.09,0-.03.06-.04.13-.06.19Z"/>
        <path class="cls-5" d="M140.34,22.74c.06-.23-.05-.24-.15-.26-.01,0-.03.03-.06.06.06.05.11.11.21.2Z"/>
        <path class="cls-5" d="M112.04,29.59c-.09.07-.16.13-.23.19.11.01.19-.03.25-.07,0,0,0-.04-.03-.12Z"/>
        <path class="cls-5" d="M174.18,31.12c.07-.05.12-.08.25-.17-.16-.03-.24-.04-.38-.06.06.11.09.16.13.23Z"/>
        <path class="cls-5" d="M114.04,19.36q-.18-.07-.31.07c.13-.03.22-.05.31-.07Z"/>
        <path class="cls-5" d="M145.58,25.88l-.07-.03c-.03.07-.06.15-.09.22.02,0,.04.02.06.03.03-.07.06-.15.09-.22Z"/>
        <path class="cls-5" d="M141.24,28s0,.06,0,.08c.1.03.2.1.35-.06-.15,0-.25-.02-.35-.02Z"/>
        <path class="cls-5" d="M151.1,33.63c-.17-.09-.21-.01-.23.16.11-.07.17-.11.23-.16Z"/>
        <path class="cls-5" d="M146,33.49s-.04-.09-.11-.09c-.03,0-.08.06-.08.09,0,.04.05.09.09.1.07.02.1-.04.09-.09Z"/>
        <path class="cls-5" d="M144.22,59.39s.03-.07.03-.12c0-.02-.08,0-.09,0-.03.02.04.11.06.12Z"/>
        <path class="cls-5" d="M142.54,19.75s.01.04.02.06c.06-.02.12-.03.18-.05-.01-.03-.02-.06-.03-.09-.06.03-.12.05-.17.08Z"/>
        <path class="cls-5" d="M147.2,34.14s-.02.06-.03.09c.07.02.14.04.2.06,0-.02.02-.04.02-.06-.07-.03-.13-.06-.2-.09Z"/>
        <path class="cls-5" d="M149.17,25.99s.07-.06.11-.09c-.05-.05-.1-.09-.14-.14-.03.02-.05.04-.08.06.04.06.08.11.11.17Z"/>
        <path class="cls-5" d="M139.3,25.26s-.01.05-.02.07c.07.02.15.04.22.07,0-.02.01-.05.02-.07-.07-.02-.15-.04-.22-.07Z"/>
        <path class="cls-5" d="M122.34,80q.15.09.23-.08c-.09.03-.15.05-.23.08Z"/>
        <path class="cls-5" d="M140.37,21.25c.1.07.14.11.18.11.03,0,.07-.03.1-.04,0-.02,0-.03-.01-.05-.06,0-.13-.01-.27-.02Z"/>
        <path class="cls-5" d="M140.99,20.08s0,.05,0,.08c.07,0,.15.01.22.02,0-.02,0-.04,0-.06-.07-.01-.15-.02-.22-.03Z"/>
        <path class="cls-5" d="M139.43,23.48s-.04-.02-.07-.03c-.02.04-.06.07-.07.11,0,.05,0,.1.02.15.02,0,.04,0,.05,0,.02-.08.04-.16.06-.24Z"/>
        <path class="cls-5" d="M139.7,22.32s.03.06.04.09c.06-.03.12-.05.19-.08-.01-.03-.04-.08-.04-.08-.06.02-.12.05-.18.07Z"/>
        <path class="cls-5" d="M145.15,85c.17.04.27.07.37.09-.07-.18-.18-.15-.37-.09Z"/>
        <path class="cls-5" d="M140.08,20.49s-.05-.02-.07-.03c-.03.07-.05.14-.08.22.02,0,.04.02.06.02.03-.07.06-.14.09-.21Z"/>
      </g>
      <path class="cls-5" d="M125.24,81.78c.27.01.37-.26.62-.38,0,.14-.01.24-.02.36h.26c.19-.27.37-.54.56-.81.44.04.88.17.66.16-.15,0-.3-.03-.45-.02-.12.01-.25.03-.17.24.03.08-.06.22-.12.39-.14.07-.34.18-.58.29.1.15.26.14.39.17.16.03.32.06.47.07.14,0,.27-.03.42.03-.06,0-.13.02-.21.03-.02.34.41.22.5.46-.18.14-.29-.03-.42-.07-.14-.04-.29-.09-.43-.14-.14-.06-.27-.12-.41-.18-.14-.08-.27-.16-.41-.24-.22-.13-.44-.25-.66-.38h0Z"/>
      <g>
        <path class="cls-5" d="M144.77,32.59s-.05-.02-.07,0c.07.06.1.15.1.24s-.01.18-.01.27c0,.09.02.17,0,.26-.02.22-.19.42-.4.46-.1.02-.2.01-.3.02-.13,0-.26.04-.39.06-.38.06-.76-.02-1.14.04-.12.02-.25.06-.33.15.55-.04,1.11-.05,1.67-.01-.04.1-.18.09-.28.09-.24,0-.48.1-.69.21s-.42.26-.65.35c-.6.24-1.28.11-1.91-.07.05-.11.2-.15.3-.1-.18-.12-.36-.24-.54-.37.06-.07.17-.08.26-.06s.17.08.26.12c.23.09.48.04.72-.01.07-.02.15-.04.2-.09s.06-.15,0-.2c-.03-.02-.07-.03-.11-.03-.19,0-.41.07-.56-.05-.02-.02-.05-.04-.07-.04-.02,0-.04.02-.06.03-.1.07-.24.06-.36.01-.12-.05-.2-.16-.31-.22-.04-.02-.37-.13-.37-.15,0-.08,0-.13.01-.22h-.6c.12-.08.18-.11.22-.15.04-.04.07-.09.11-.13-.07-.1-.12-.19-.19-.26-.11-.09-.22-.2-.35-.23-.24-.05-.44-.16-.59-.32-.15-.16-.33-.31-.52-.41-.08-.05-.23.03-.39.05-.11-.21-.2-.44-.35-.63-.15-.2-.37-.34-.53-.53-.16-.19-.29-.41-.54-.49.26.31.49.65.73.98.03.04.06.08.08.12.17.24.33.47.5.71.11.16.2.36.42.4.04,0,.11.1.1.15-.01.18.16.16.23.23-.08,0-.16,0-.23,0-.03.1-.06.18-.08.26.07.04.14.07.23.12-.08.1-.15.17-.2.25-.09.13.12.1.11.17-.01.12-.05.23-.08.38-.05-.1-.06-.2-.11-.23-.22-.12-.23-.35-.31-.54-.07-.18-.32-.31-.16-.56.01-.02-.05-.13-.09-.15-.31-.1-.35-.36-.41-.62,0-.05-.06-.08-.09-.12v.38c-.28-.04-.55-.08-.86-.12,0-.53,0-1.06-.03-1.59,0-.12,0-.22.08-.31.03-.03.13-.06.14-.1.01-.05-.08-.15-.1-.2-.14-.28-.14-.61-.13-.91,0-.27,0-.54,0-.81,0-.05,0-.1.03-.13.02-.03.06-.05.09-.06.41-.16.86-.08,1.3-.1.57-.03,1.14-.25,1.69-.09.1.03.22.06.28-.03-.13-.11-.3-.18-.48-.2-.31-.04-.63.04-.94.09-.62.11-1.26.1-1.89.15s-1.27.18-1.8.53c-.3.2-.61.48-.97.45-.42-.04-.73-.49-1.15-.46.14.12.29.23.43.35-.8,0-1.59.01-2.39.02-.11,0-.24.02-.28.12.05.04.13.04.2.03.72-.08,1.45-.07,2.17.02.29.04.57.09.84.19.62.24,1.19.67,1.88.68.31,0,.6.05.86.22.02.36.05.71.05,1.06,0,.36-.04.72-.06,1.09-.38.07-.76.13-1.15.15-.42.02-.82-.07-1.23-.11-.55-.05-1.05-.09-1.5-.44-.06-.04-.15-.08-.21-.06-.17.05-.39-.07-.51.1.32.1.63.2.94.29.08.03.17.06.25.08.31.07.63.16.95.2.47.06.94.13,1.41.13.46,0,.92-.09,1.39-.1.25,0,.5.05.71.24.05.03.1.07.14.11.08.03.16.07.23.14-.05,0-.08.01-.12.02.01.03.02.05.04.08,0,.01.03.05.04.07.08.06.14.13.21.21.28.34.26.76.36,1.17.02.04.03.08.04.12.01.03.1.07.13.1.05.05.09.1.12.16.07.12.13.25.19.37.04,0,.07-.02.1-.04-.03.02.13.36.15.39.05.15.05.33.07.48.05.34.11.69.18,1.02.15.68.35,1.35.6,1.99.04.1.08.21.12.31.2.48.43.96.45,1.48.05,1.02-.68,1.94-.67,2.96,0,.27.06.54.04.81-.04.62-.45,1.15-.57,1.76-.02.1-.03.21.04.28.29-.28.25-.77.46-1.11.18-.29.55-.51.53-.85,0-.1-.05-.2-.09-.3-.19-.52-.15-1.1-.02-1.64s.34-1.05.5-1.58c.03-.11.07-.23.05-.34-.01-.12-.07-.22-.12-.33-.3-.58-.55-1.18-.75-1.79-.15-.47-.25-.95-.37-1.43-.1-.37-.18-.74-.25-1.12-.02-.12-.05-.23-.06-.35s.04-.23.06-.34c.01-.09-.01-.16-.01-.24,0-.17.27-.16.38-.16.22,0,.39-.12.61-.16.1-.01.19,0,.29.02.87.17,1.7.48,2.57.14.27-.1.53-.23.8-.33.17-.06.35-.11.53-.15.2-.05.46-.07.63-.19.06-.04.11-.11.17-.16.06-.06.13-.11.2-.14.03-.02.06-.03.09-.05.32-.3.3-.91.09-1.25-.01-.02-.03-.04-.05-.05ZM135.52,29.63s-.09,0-.13-.01c-.33-.08-.65-.16-.98-.24-.28-.07-.61-.1-.86-.24-.11-.06-.22-.17-.33-.25.67-.37,1.33-.83,2.11-.92.2-.02.28.07.28.26,0,.22.01.45.02.67,0,.02,0,.03,0,.08,0,.11,0,.23,0,.34,0,.09,0,.29-.12.31ZM139.15,33.72h.44c-.17.15-.28.3-.44,0Z"/>
        <path class="cls-5" d="M138.09,32.8c.09.05.18.1.31.17-.24,0-.25,0-.31-.17Z"/>
      </g>
      <path class="cls-5" d="M138.52,46.55s.05,0,.08,0c-.4,1.35-.5,2.8-.28,4.19.02.15.06.32.18.42.11.09.26.1.41.11.6.03-.6-.03,0,0-.63.01.55.13-.08.14-.12,0-.25,0-.35.09-.1.09-.12.25-.12.39-.04,1.47-.08,2.95-.12,4.42-.31-.58-.22-1.28-.16-1.94.17-1.7.16-3.42-.04-5.12-1.86,2.15-2.8,4.93-3.69,7.63-.05.16-.11.33-.24.44-.25.2-.23.18-.52.07.31.14.33-.09.49-.38.32-.47.16-.24.3-.62.2-.57.25-.67.32-1.02,0-.02.3-.8.41-1.18.33-1.15.85-2.26,1.51-3.25.29-.43.61-.85.87-1.31.49-.88.72-1.89.94-2.87-.06-.08.01-.2.1-.23Z"/>
      <path class="cls-5" d="M127.4,77.89c-.05.47-.14.91-.37,1.33-.05.09-.42.73-.43,1.01.03.02.06.03.09.06-.05.05-.32.21-.32.06,0-.13.05-.25.09-.38.12-.41.1-.86.34-1.21.06.07.12.13.19.18-.01,0,.11-.48.12-.53.03-.2.06-.39.08-.59.05-.38.1-.77.22-1.14.25-.74.7-1.34,1.14-1.96.24-.34.49-.69.66-1.07s.35-.79.61-1.15c.05-.07.11-.14.18-.19.07-.05.16-.08.23-.13.08-.06.13-.16.2-.24.15-.17.3-.33.46-.48.06.18-.06.37-.19.52-.28.33-.61.61-.88.95-.27.34-.47.73-.67,1.12-.1.2-.21.39-.33.58-.03.04-.26.45-.3.45.07.01-.38.77-.41.82-.13.21-.26.41-.38.62-.19.32-.26.61-.3.98-.01.11-.02.21-.03.32,0,.03,0,.06,0,.09Z"/>
      <path class="cls-5" d="M130.78,27.64c-.15-.03-.29-.05-.44-.08-.94-.21-1.75-.83-2.69-.99-.3-.05-.61-.05-.91-.11-.35-.07-.68-.21-1.01-.36s-.59-.23-.94-.27c-.36-.04-.69-.17-1.02-.28-.3-.11-.58-.3-.88-.42-1.12-.43-2.15-1.33-2.97-2.17-.07-.07-.17-.14-.25-.08.17.14.32.3.45.48-.83-.17-1.64-.54-2.38-.94-.05-.03-.11-.06-.17-.06s-.12.03-.14.09c.3.16.62.31.92.47,1.01.51,2.09.73,2.99,1.44.18.14.34.29.52.42.08.06.16.11.24.16.1.06.19.12.29.18.73.41,1.58.66,2.37.91.16.05.33.1.5.11.09,0,.19,0,.27.04.09.03.16.11.24.16.11.08.23.13.36.17.3.11.58.19.9.21.34.02.69,0,1.02.12.13.05.26.12.38.19.15.07.3.14.45.2.39.16.76.43,1.18.52.38.08.81-.01,1.16.21.09.05.16.13.26.17.09.04.22.07.28-.01-.13-.21-.41-.33-.64-.39-.11-.03-.22-.05-.33-.07Z"/>
      <path class="cls-5" d="M145.61,51.08c-.25.07-.05.25-.09.42-.43-.23-.87-.16-1.31-.04-.15.04-.35.01-.5-.04-.32-.12-.65-.09-.97-.09-.2,0-.4,0-.61-.03.26-.05.51-.11.84-.18-.17-.14-.27-.22-.37-.3.02-.14.04-.27.08-.46.11.11.21.2.3.29.09.09.17.19.28.26.13.09.28.2.43-.08.04.26.11.42.37.32-.11-.12-.21-.24-.32-.36.01-.01.02-.02.04-.04.16.1.32.2.48.3.02-.02.03-.03.05-.05-.04-.09-.08-.18-.13-.29.04.01.08.01.1.03.13.11.25.22.39.35,0,0-.02.05-.03.1.22.03.44.06.66.09-.08-.13.25-.28-.02-.5-.13-.1-.03-.43-.27-.46-.07-.21-.12-.37-.18-.55.07.03.16.07.29.12.12-.46.27-.9.91-.69-.04.07-.08.15-.13.23-.07-.05-.13-.11-.19-.12-.06,0-.16.04-.18.09-.14.28-.3.57-.2.9.05.16.06.34.2.48.07.07.05.21.07.32h.01Z"/>
      <path class="cls-5" d="M145.6,51.09c.26.04.53.1.79-.03.16-.08.31-.17.38-.35.02-.06.04-.12.08-.17.2-.27.28-.56.07-.86.25-.02.49-.04.8-.06.08.04.16.17.12.33-.06.23-.13.45-.21.68-.03.1-.18.15-.11.3,0,.01-.12.09-.19.13-.06.04-.12.07-.16.17.16,0,.32.02.48.03,0,.03,0,.05,0,.08-.37.05-.76-.08-1.1.1-.04.24-.08.47-.12.7,0,0-.07,0-.13,0,.06-.25.21-.49-.04-.73-.1,0-.22.01-.35,0-.18-.02-.32-.1-.29-.32,0,0-.01.01-.01.01ZM147.28,49.67c-.05.3-.09.57-.14.85.11.01.22.02.46.05-.36-.37.17-.49.09-.81-.07.02-.14.05-.2.04-.06-.01-.11-.06-.2-.12ZM147,51.01c.07-.1.11-.17.18-.27-.25-.02-.22.1-.18.27Z"/>
      <path class="cls-5" d="M127.27,22.81c.1-.06.24-.02.33.04.17.11.35.31.49.46.17.17.33.36.51.53.4.37.84.49,1.38.48.58-.01,1.09.19,1.66.3.02,0,.04.03.09.07-.09.02-.16.06-.21.05-.15-.03-.29-.1-.43-.13-.29-.06-.59-.11-.89-.15-.37-.05-.75-.09-1.13-.13-.23-.03-.42-.12-.57-.32-.18-.24-.38-.47-.6-.67-.19-.17-.53-.28-.64-.52Z"/>
      <path class="cls-5" d="M122.27,21.23s-.1.03-.2.03c-.34,0-.68-.05-1.01-.16-.47-.15-.91-.4-1.36-.6s-.88-.34-1.33-.49c-.06-.02-.12-.05-.17-.08,0-.03.02-.05.02-.08.19.04.38.05.56.12.57.2,1.2.38,1.71.71.22.15,1.11.34,1.31.39.12.03.28.02.39.07.07.03.09.06.09.07Z"/>
      <path class="cls-5" d="M131.91,69.61c-.1.17.09.39-.02.54-.02.03-.05.06-.08.1-.03.05-.03.11-.05.17-.03.08-.19.28-.25.35-.16.19-.18.27-.3.49-.03.06-.09.2-.18.18s-.08-.13-.05-.2c.12-.27.27-.52.44-.76.15-.21.3-.39.34-.65.01-.07.1-.14.14-.21Z"/>
      <path class="cls-5" d="M144.56,44c.23-.36.55-.28.88-.25-.04.12-.07.22-.11.34-.08,0-.17.01-.26.02.07.22.14.42.19.57-.15.12-.27.21-.4.32-.12-.22.04-.4.09-.58-.13-.14-.26-.27-.4-.42Z"/>
      <path class="cls-5" d="M152.73,62.63c.18.19.36.38.59.4.08.24.11.45.2.63.06.11.19.21.31.27.2.1.29.05.37-.17.04-.1.08-.19.17-.28v.5c-.13.05-.28.16-.4.14-.27-.04-.49-.19-.64-.43-.08-.12-.16-.24-.24-.36.01-.01.11-.07.1-.09-.03-.07-.08-.17-.15-.19-.23-.06-.29-.22-.3-.42h0Z"/>
      <path class="cls-5" d="M146.15,53.41c-.09-.19-.18-.37-.27-.56-.09-.2-.1-.39-.02-.61.07-.17.05-.38.07-.61.34.58.27,1.18.22,1.79Z"/>
      <path class="cls-5" d="M142.8,49.11c.17.18.12.45.39.6-.02-.2-.04-.32-.05-.45.02,0,.04,0,.05-.01.1.25.2.5.31.78-.32-.02-.46-.3-.75-.47.08.24.13.42.19.6-.03.01-.05.02-.08.03-.06-.14-.09-.29-.17-.42-.08-.13-.2-.24-.28-.4.04.02.08.04.14.07.07-.1.15-.2.24-.33Z"/>
      <path class="cls-5" d="M125.12,80.27c.13.29.23.01.35,0,.1.1.2.21.31.33.07-.08.12-.14.2-.22v.46c-.07-.02-.15-.05-.27-.08.02.11.03.19.05.28-.43.17-.54-.29-.85-.38.07-.14.13-.26.2-.4ZM125.59,81.02q.05-.49-.32-.51c.26.13,0,.42.32.51Z"/>
      <path class="cls-5" d="M145.17,41.97c0,.18-.04.37.01.54.05.17.2.31.33.51-.26-.09-.45-.15-.65-.22-.14.16-.23.42-.5.46-.02-.02-.04-.04-.06-.06.11-.13.22-.25.36-.41,0-.01-.01-.08-.03-.16.21-.02.36-.08.36-.34,0-.1.06-.21.1-.31.02,0,.05,0,.07,0Z"/>
      <path class="cls-5" d="M127.94,30.06c.19-.02.31.05.47.17.28.2.6.37.93.48.47.15.97.22,1.5.34-.26.1-.5.03-.71-.01-.4-.07-.78-.19-1.17-.32-.19-.06-.35-.2-.52-.31-.16-.11-.32-.22-.49-.34Z"/>
      <path class="cls-5" d="M113.25,19.51c-.1-.03-.21-.06-.31-.08-.07-.01-.14,0-.22,0,.02.34.27.47.52.58.14.06.21.12.16.27-.23-.09-.47-.18-.7-.27.02-.21-.09-.36-.28-.47.06-.04.13-.07.23-.13-.1-.04-.17-.06-.25-.09.03-.02.05-.04.07-.04.2.02.4.04.6.06.11.01.19.06.19.19Z"/>
      <path class="cls-5" d="M125.35,21.83c.21.22.5.3.77.42.32.14.65.25.97.43-.06,0-.13.02-.18,0-.43-.16-.86-.33-1.29-.49-.17-.06-.25-.19-.25-.37h0Z"/>
      <path class="cls-5" d="M125.35,21.82c-.2.11-.37-.01-.54-.07-.31-.1-.61-.22-.92-.33.55-.08.98.23,1.45.4,0,0,0-.01,0-.01Z"/>
      <path class="cls-5" d="M133.65,31.73c-.38-.13-.77-.25-1.15-.38.47-.14.79.19,1.19.27-.01.04-.02.07-.03.11Z"/>
      <path class="cls-5" d="M133.49,57.75c.43-.05.1-.02.56-.08.13.09.02.19-.04.33-.09-.1-.17-.19-.33-.17-.31.03.3-.05-.01-.05,0,0-.17-.02-.17-.03Z"/>
      <path class="cls-5" d="M152.74,62.62c-.06.02-.18.07-.19.05-.13-.19-.37-.3-.42-.56-.02-.12-.1-.22-.2-.4.12.06.22.08.23.12.08.35.36.55.57.81,0,0,0,0,0,0Z"/>
      <path class="cls-5" d="M150.7,52.49c.16.3.23.61.11.93-.1-.3-.2-.6-.11-.93Z"/>
      <path class="cls-5" d="M116.01,18.89c.26-.35.42-.35.73,0h-.73Z"/>
      <path class="cls-5" d="M113.79,28.03c.34-.09.72-.02,1.1.19-.21-.03-.4-.06-.59-.07-.17-.01-.36.08-.52-.12Z"/>
      <path class="cls-5" d="M144.68,49.02c.03.2.13.4.08.62-.24-.06-.45-.12-.73-.19.23-.12.4.04.57-.02v-.43s.05,0,.08.01Z"/>
      <path class="cls-5" d="M135.09,31.81c-.39.11-.77.11-1.13-.08.38.03.76.06,1.13.08Z"/>
      <path class="cls-5" d="M144.33,49.75c.32.16.48.53.33.8-.06-.15-.1-.3-.17-.43-.06-.12-.28-.16-.16-.36Z"/>
      <path class="cls-5" d="M123.63,21.38s-.03.02-.05.02c-.06,0-.11,0-.17-.02-.33-.06-.66-.08-.99-.12.05,0,.1-.05.14-.06.07-.02.16,0,.23,0,.16.01.32.03.47.05.04,0,.41.04.36.13Z"/>
      <path class="cls-5" d="M114.41,16.61h.7c-.36.23-.66.24-.96.07.09-.03.18-.05.27-.08,0,0-.01,0-.01,0Z"/>
      <path class="cls-5" d="M146.72,49.81c.14.28.11.35-.37.71.14-.27.25-.48.37-.71Z"/>
      <path class="cls-5" d="M131.43,31.06c.25.02.5.03.75.05,0,.03,0,.07,0,.1-.25-.01-.49-.03-.74-.04,0-.04,0-.07,0-.11Z"/>
      <path class="cls-5" d="M165.98,79.27c-.22.06-.44.13-.65.19-.01-.03-.02-.07-.03-.1.22-.07.44-.15.65-.22.01.04.02.08.03.13Z"/>
      <path class="cls-5" d="M145.77,53.96c.13-.19.19-.36.4-.42-.08.4-.11.44-.4.42Z"/>
      <path class="cls-5" d="M147.08,52.41c-.15-.21-.24-.34-.35-.5.26.06.33.15.35.5Z"/>
      <line class="cls-5" x1="134.42" y1="52.81" x2="134.42" y2="52.81"/>
      <path class="cls-5" d="M144.88,50.94c.03-.13.06-.25.09-.36.14.09.14.09.16.36h-.25Z"/>
      <path class="cls-5" d="M144.14,50.35c-.06-.11-.13-.23-.2-.36q.21.03.2.36Z"/>
      <path class="cls-5" d="M151.91,60.97c.02.16.03.33.05.49-.02,0-.03,0-.05,0-.03-.16-.06-.32-.09-.49.03,0,.06,0,.09-.01Z"/>
      <path class="cls-5" d="M141.43,56.33c-.12.15-.14.38-.39.39,0-.26.2-.32.39-.39Z"/>
      <path class="cls-5" d="M165.74,79.64h-.46c.19-.1.32-.18.46,0Z"/>
      <path class="cls-5" d="M146.55,53.04c0-.11-.02-.22-.04-.4.15.16.08.28.04.4Z"/>
      <path class="cls-5" d="M146.47,49.35c.23-.03.18.11.19.21-.18.04-.14-.11-.19-.21Z"/>
      <path class="cls-5" d="M136.63,31.74c-.08-.16-.15-.32-.23-.48.24.1.22.3.22.49,0,0,0,0,0,0Z"/>
      <path class="cls-5" d="M140.69,34.61c.11-.1.22-.19.45-.02-.2,0-.32.01-.45.02,0,0,0,0,0,0Z"/>
      <path class="cls-5" d="M141.05,56.71c-.05.16-.17.25-.32.32.02-.19.14-.28.32-.32Z"/>
      <path class="cls-5" d="M134.42,52.81s0,0,0,0"/>
      <path class="cls-5" d="M115.66,16.73c-.14,0-.29.13-.47-.08.2.03.33.06.47.08,0,0,0,0,0,0Z"/>
      <path class="cls-5" d="M154.41,63.29c.03-.08.06-.16.09-.24.02,0,.04.01.07.02-.02.08-.04.17-.06.25-.03-.01-.06-.02-.1-.03Z"/>
      <path class="cls-5" d="M137.17,32.01c.05.04.11.08.16.13-.02.02-.04.04-.06.07-.05-.05-.1-.09-.16-.14.02-.02.04-.04.06-.05Z"/>
      <path class="cls-5" d="M146.48,49.85s-.09.09-.13.14l-.06-.05c.04-.05.07-.1.11-.16.03.02.06.04.08.06Z"/>
      <path class="cls-5" d="M132.09,31.62c-.07.01-.13.02-.2.04,0-.02,0-.03-.01-.05.07-.02.13-.05.2-.07,0,.03.01.06.02.09Z"/>
      <path class="cls-5" d="M147.04,68.98c.3.02.61-.04.91-.11.16-.04.33-.05.48-.1.07-.02.2-.07.23-.13.05-.08.04-.18-.1-.16.14-.02.31-.34.41-.43.03-.03.06-.06.05-.1,0-.02-.02-.04-.02-.06-.05-.13.09-.35.12-.48.08-.41-.02-.89-.05-1.3,0-.11-.05-.26-.17-.25.19.61.15,1.29-.1,1.88-.1.24-.24.47-.3.72-.05.22-.02.41-.27.42-.17,0-.34,0-.5,0h-.83c-.02-.14-.03-.25-.05-.36l-.05-.02c-.03.12-.06.24-.09.38h-1.42c.12.16.24.11.34.11.3-.02.6-.04.91-.04.1,0,.25.05.3.12.16.23.44.38.44.72.02-.14.02-.28-.02-.39-.04-.12-.13-.23-.24-.41Z"/>
      <path class="cls-5" d="M145.87,63.8c.03.59.23,1.11.56,1.56-.22.44-.22.45-.14.92-.17-.12-.24-.3-.22-.5.02-.16.06-.32.06-.48,0-.11-.03-.22-.07-.32-.2-.38-.26-.77-.19-1.18Z"/>
      <path class="cls-5" d="M142.58,73.37c-.1-.36-.19-.71-.29-1.08.28.14.43.61.29,1.08Z"/>
      <path class="cls-5" d="M142.68,74.25s-.1-.08-.1-.12c0-.2-.07-.42.08-.65.15.27.08.51.09.74-.03.01-.05.02-.08.03Z"/>
      <path class="cls-5" d="M146.43,61.95c-.02.38-.27.67-.38,1.02-.05-.41.19-.7.39-1.01h0Z"/>
      <path class="cls-5" d="M147.14,68c-.31-.01-.43-.17-.45-.61.15.2.31.42.45.61Z"/>
      <path class="cls-5" d="M148.86,76.22s0-.05,0-.07"/>
      <path class="cls-5" d="M140.67,68.55q-.16-.19-.12-.55c.04.22.08.39.11.55,0,0,.01,0,.01,0Z"/>
      <path class="cls-5" d="M146.44,61.96c.06-.12.12-.25.18-.37.03.02.05.03.08.05-.04.14-.13.25-.27.32,0,0,0,0,0,0Z"/>
      <path class="cls-5" d="M143.72,83.43s0,0,0,0"/>
      <path class="cls-5" d="M161.01,83.14q-.14.13-.34.08c.11-.02.23-.05.34-.07,0,0,0,0,0,0Z"/>
      <path class="cls-5" d="M145.92,63.41v-.23s.03,0,.05,0c0,.08-.02.15-.03.23,0,0-.02,0-.02,0Z"/>
      <path class="cls-5" d="M173.81,20.47c-.36.14-.72.29-1.09.41-.18.06-.52-.26-.53-.49,0-.1.02-.2.02-.3,0-.05-.02-.11-.03-.18.09.01.19.03.3.05.08-.15.08-.4.33-.3.06.02.06.17.09.3.2.11.36.09.85-.07-.1.18-.16.32-.25.47.1.04.2.07.3.1h0Z"/>
      <path class="cls-5" d="M175.7,19.59c.56-.29,1.17-.46,1.59-.94.35.15.47.27.41.45-.05.14-.13.27-.22.39-.02.03-.11.01-.23.02.1-.14.19-.22.22-.32.02-.08-.04-.18-.06-.27-.08.02-.17.02-.23.07-.23.2-.47.38-.79.42-.12.02-.24.13-.35.21-.13.09-.26.19-.45.32-.1-.36-.1-.82-.06-.75.27-.07.42-.17.58-.31.13-.12.35-.15.52-.22.07-.03.16-.04.2-.09.27-.35.69-.37,1.09-.43-.09.06-.17.17-.26.18-.42,0-.63.36-.93.55-.04.03-.08.09-.12.09-.37-.05-.53.31-.83.4-.06.02-.09.12-.13.18.02.02.04.04.06.07Z"/>
      <path class="cls-5" d="M173.82,20.47c-.06-.15.03-.24.13-.32.14-.13.28-.25.42-.38.17-.17.3-.36.32-.66-.15.06-.26.11-.37.15-.04.21-.03.45-.36.49.08-.19.3-.31.13-.54-.05-.07.08-.28.15-.42.11-.19.33-.22.49-.17.36.12.64-.02.93-.17.07-.04.14-.06.22-.1,0-.21.21-.46.29-.36,0,0,0,0,0,0-.03.06-.07.11-.08.17-.07.34-.3.5-.61.59-.23.06-.45.14-.7.21.12.26.05.46-.09.63-.24.3-.47.62-.84.8-.02.01-.03.06-.04.1,0,0,0,0,0,0Z"/>
      <path class="cls-5" d="M175.22,20.74c.14-.25.28-.5.42-.76.02,0,.04,0,.05,0,0,.11-.01.22-.02.36.25,0,.38-.21.55-.32.08-.05.15-.13.23-.15.21-.05.37-.14.45-.37.1.03.19.06.29.1-.02.04-.02.08-.04.1-.23.15-.47.29-.69.45-.13.09-.23.22-.36.31-.1.07-.22.18-.32.17-.21-.02-.38.02-.54.19,0-.03-.02-.06-.03-.08Z"/>
      <path class="cls-5" d="M154.11,26.95s-.01-.03,0-.04c.17-.34.46-.5.78-.64.02.03.04.06.06.09-.28.19-.56.39-.84.58,0,0,0,0,0,0Z"/>
      <path class="cls-5" d="M177.19,17.68c-.23.23-.52.29-.89.41.25-.39.59-.35.9-.4,0,0-.01-.01-.01-.01Z"/>
      <path class="cls-5" d="M172.99,21.44c-.24-.11-.26-.16-.18-.46.17.12.17.28.18.46Z"/>
      <path class="cls-5" d="M177.76,18.57h-.26s0-.02,0-.02c.09-.02.18-.03.27-.05,0,.02,0,.05,0,.07Z"/>
      <path class="cls-5" d="M159.83,30.85c-.63.2-1.27-.01-1.9.07.63-.11,1.27-.11,1.9-.07Z"/>
      <path class="cls-5" d="M160.29,30.67c.36-.06.73-.13,1.09-.19-.35.16-.69.32-1.09.27,0-.02,0-.05,0-.07Z"/>
      <path class="cls-5" d="M155.92,31.57c.2-.05.33-.08.46-.11,0,.02.01.05.02.07-.13.02-.22.2-.48.04Z"/>
      <path class="cls-5" d="M145.76,18.33c-.31,0-.63-.05-.93,0-.22.05-.44.03-.65.04-.38.02-.77-.02-1.16-.04-.03,0-.06-.04-.1-.06q.34-.16.71-.12c.04-.07.08-.14.12-.22,0,0,0,0,0,0,.29.29.64.33,1,.1h-.27c.12-.13.21-.24.32-.37-.05-.1-.11-.21-.19-.36.28.16.28-.28.56-.16-.27.31-.35.65-.19,1.03.17.09.21-.07.3-.17.16.1.33.2.49.3h0Z"/>
      <path class="cls-5" d="M145.76,18.33c.39-.04.79-.09,1.24-.14-.11-.16-.19-.28-.31-.44-.29.12-.58.25-.92.39.7-.66,1.09-.62,1.45.13-.49.11-.98.1-1.47.05,0,0,0,0,0,0Z"/>
      <path class="cls-5" d="M148.79,19.79c.23.05.35.3.26.5-.11.24-.23.47-.37.75.1.06.21.12.33.18-.24.05-.3.04-.37-.06-.1-.14-.09-.33.01-.49.09-.16.17-.33.25-.49.07-.15.06-.28-.11-.38Z"/>
      <path class="cls-5" d="M147.18,19.82c-.12-.12-.24-.24-.34-.34.12-.19.22-.34.37-.57-.02.36-.03.64-.04.92,0,0,0,0,0,0Z"/>
      <path class="cls-5" d="M142.62,18.05c.19-.29.49-.33.79-.29.12.01.22.12.34.19,0,0,0,0,0,0-.06,0-.13.04-.18.02-.33-.13-.64-.03-.95.07,0,0,0,0,0,0Z"/>
      <path class="cls-5" d="M146.72,18.48c.34.05.18.34.3.49-.3-.06-.18-.34-.3-.49Z"/>
      <path class="cls-5" d="M148.91,19.59c-.13.07-.26.14-.41-.08h.4s0,.05,0,.08Z"/>
      <path class="cls-5" d="M145.01,22.01q.25.17.19.4c-.06-.14-.11-.24-.19-.4Z"/>
      <path class="cls-5" d="M146.3,22.33l.22.05s-.01.05-.02.07c-.07-.02-.14-.04-.21-.06,0-.02,0-.04.01-.06Z"/>
      <path class="cls-5" d="M144.96,21.51c.02-.08.03-.15.05-.23.01,0,.03,0,.04,0v.24s-.06,0-.09-.01Z"/>
      <path class="cls-5" d="M145.16,17.9c-.01-.08-.03-.17-.04-.25.02,0,.04,0,.06-.01.02.08.03.17.05.25-.02,0-.05,0-.07.01Z"/>
      <path class="cls-5" d="M146.55,23.95c-.06,0-.12.01-.18.02,0-.02,0-.04-.01-.06.06-.01.12-.03.18-.04v.09Z"/>
      <path class="cls-5" d="M144.94,27c.11-.01.21-.23.36.03-.13.02-.24.03-.36.05v-.08Z"/>
      <path class="cls-5" d="M143.06,22.19c.07-.08.12-.21.2-.22.16-.03.35-.17.54.07-.25.06-.41.31-.73.15Z"/>
      <path class="cls-5" d="M152.79,31.93q-.06-.2.12-.39c-.06.18-.1.28-.13.39,0,0,0,0,0,0Z"/>
    </g>
    <path class="cls-7" d="M144.85,87.12c-23.74,0-43.06-19.32-43.06-43.06S121.11,1,144.85,1s43.06,19.32,43.06,43.06-19.32,43.06-43.06,43.06ZM144.85,1.6c-23.41,0-42.46,19.05-42.46,42.46s19.05,42.46,42.46,42.46,42.46-19.05,42.46-42.46S168.26,1.6,144.85,1.6Z"/>
    <path class="cls-3" d="M180.45,86.71h-71.02V16.37h71.02v70.34ZM109.67,86.46h70.53V16.61h-70.53v69.85Z"/>
  </g>
  <path class="cls-5" d="M148.02,71.46c.07-.03.61-1.55.46-2.85"/>
  <g>
    <path class="cls-2" d="M18.85,30.98l1.88,9.83c.03.14-.08.26-.22.26h-1.19c-.11,0-.2-.08-.22-.18l-.93-5.25c-.04-.21-.32-.25-.41-.06l-2.73,5.49-3.03-6.09-1.08,6.09h-1.64l2.05-10.71,3.7,7.19,3.41-6.62c.1-.19.37-.15.41.06Z"/>
    <path class="cls-2" d="M27.25,30.79l4.41,9.96c.06.15-.04.31-.2.31h-1.19c-.09,0-.16-.05-.2-.13l-.85-1.85c-.04-.08-.11-.13-.2-.13h-3.93c-.09,0-.16.05-.2.13l-.85,1.85c-.04.08-.11.13-.2.13h-1.19c-.16,0-.27-.16-.2-.31l4.41-9.96c.08-.17.32-.17.4,0ZM25.85,37.59h2.4c.16,0,.26-.16.2-.31l-1.2-2.75c-.08-.18-.33-.18-.4,0l-1.2,2.75c-.06.15.04.31.2.31Z"/>
    <path class="cls-2" d="M33.47,30.39h1.87s.03,0,.04,0c3.09.47,4.75,2.24,4.97,5.31,0,.01,0,.03,0,.04-.22,3.07-1.87,4.84-4.97,5.31-.01,0-.03,0-.04,0h-1.87c-.12,0-.22-.1-.22-.22v-10.23c0-.12.1-.22.22-.22ZM35.36,39.44c2.2-.42,3.34-1.66,3.43-3.71-.09-2.05-1.24-3.29-3.43-3.71h-.47v7.42h.47Z"/>
    <path class="cls-2" d="M42.1,30.39h5.66c.12,0,.22.1.22.22v.95c0,.12-.1.22-.22.22h-4.02c-.12,0-.22.1-.22.22v3.74c0,.12.1.22.22.22h2.85c.12,0,.22.1.22.22v1.18c0,.12-.1.22-.22.22h-2.85c-.12,0-.22.1-.22.22v1.42c0,.12.1.22.22.22h4.02c.12,0,.22.1.22.22v1.18c0,.12-.1.22-.22.22h-5.66c-.12,0-.22-.1-.22-.22v-10.23c0-.12.1-.22.22-.22Z"/>
    <path class="cls-4" d="M50.23,39.65l.98-3.58c.04-.14-.07-.28-.21-.28h-.82v-.37c.44,0,.85-.01,1.24-.03.27-.01.52-.04.76-.06.16-.02.28.13.24.28l-1.27,4.56s-.02.08-.02.11c0,.03,0,.06,0,.08,0,.09.04.16.11.23.07.07.15.1.25.1.24,0,.5-.15.77-.45s.53-.72.76-1.24l.3.14c-.23.64-.56,1.16-.98,1.54-.42.39-.85.58-1.3.58-.28,0-.5-.08-.67-.24s-.26-.37-.26-.64c0-.08.01-.17.03-.29s.06-.26.1-.43ZM51.83,32.28c0-.19.07-.36.2-.49.14-.13.3-.2.5-.2s.36.07.49.2c.13.13.2.3.2.49s-.07.36-.2.49c-.13.14-.3.2-.49.2s-.36-.07-.5-.2c-.14-.14-.21-.3-.21-.49Z"/>
    <path class="cls-4" d="M55.35,41.06h-.65c-.14,0-.25-.14-.21-.28l1.27-4.72c.04-.14-.07-.28-.21-.28h-.83v-.37c.51,0,.95-.01,1.32-.04.24-.02.47-.04.69-.07.15-.02.28.12.24.27l-.3,1.12c.33-.48.68-.84,1.05-1.08s.76-.36,1.17-.36.76.1,1.01.29c.25.19.37.46.37.79,0,.08,0,.18-.03.3s-.04.23-.07.34l-.97,3.24c-.01.06-.03.1-.03.13,0,.03-.01.05-.01.07,0,.08.03.15.08.2.06.05.13.07.22.07.26,0,.51-.14.76-.42.24-.28.49-.71.73-1.29l.29.12c-.28.74-.59,1.28-.94,1.62s-.76.51-1.22.51c-.3,0-.53-.07-.7-.21-.17-.14-.26-.33-.26-.58,0-.08,0-.17.03-.28s.04-.22.07-.33l.89-3.01c.03-.12.05-.22.07-.31.01-.09.02-.15.02-.2,0-.21-.05-.36-.15-.45s-.26-.15-.48-.15c-.44,0-.87.23-1.31.69s-.75,1.03-.94,1.73l-.75,2.76c-.03.1-.11.16-.21.16Z"/>
    <path class="cls-1" d="M63.87,30.34h1.2c.12,0,.22.1.22.22v10.29c0,.12-.1.22-.22.22h-1.2c-.12,0-.22-.1-.22-.22v-10.29c0-.12.1-.22.22-.22Z"/>
    <path class="cls-1" d="M66.96,30.34h6.6c.12,0,.22.1.22.22v.95c0,.12-.1.22-.22.22h-2.26c-.12,0-.22.1-.22.22v8.84c0,.12-.1.22-.22.22h-1.2c-.12,0-.22-.1-.22-.22v-8.84c0-.12-.1-.22-.22-.22h-2.26c-.12,0-.22-.1-.22-.22v-.95c0-.12.1-.22.22-.22Z"/>
    <path class="cls-1" d="M77.55,30.79l4.41,9.96c.06.15-.04.31-.2.31h-1.19c-.09,0-.16-.05-.2-.13l-.85-1.85c-.04-.08-.11-.13-.2-.13h-3.93c-.09,0-.16.05-.2.13l-.85,1.85c-.04.08-.11.13-.2.13h-1.19c-.16,0-.27-.16-.2-.31l4.41-9.96c.08-.17.32-.17.4,0ZM76.15,37.59h2.4c.16,0,.26-.16.2-.31l-1.2-2.75c-.08-.18-.33-.18-.4,0l-1.2,2.75c-.06.15.04.31.2.31Z"/>
    <path class="cls-1" d="M83.77,30.39h1.2c.12,0,.22.1.22.22v8.61c0,.12.1.22.22.22h3.32c.12,0,.22.1.22.22v1.18c0,.12-.1.22-.22.22h-4.96c-.12,0-.22-.1-.22-.22v-10.23c0-.12.1-.22.22-.22Z"/>
    <path class="cls-1" d="M87.88,30.34h1.26c.09,0,.17.06.2.14l1.78,4.53c.07.19.34.19.41,0l1.77-4.53c.03-.08.11-.14.2-.14h1.26c.16,0,.26.16.2.3l-2.7,6.76s-.02.05-.02.08v3.36c0,.12-.1.22-.22.22h-1.45c-.12,0-.22-.1-.22-.22v-3.36s0-.06-.02-.08l-2.7-6.76c-.06-.14.05-.3.2-.3Z"/>
    <path class="cls-6" d="M71.45,47.1h1.87s.03,0,.04,0c3.09.47,4.75,2.24,4.97,5.31,0,.01,0,.03,0,.04-.22,3.07-1.87,4.84-4.97,5.31-.01,0-.03,0-.04,0h-1.87c-.12,0-.22-.1-.22-.22v-10.23c0-.12.1-.22.22-.22ZM73.34,56.14c2.2-.42,3.34-1.66,3.43-3.71-.09-2.05-1.24-3.29-3.43-3.71h-.47v7.42h.47Z"/>
    <path class="cls-6" d="M83.85,47.36l4.41,9.96c.06.15-.04.31-.2.31h-1.19c-.09,0-.16-.05-.2-.13l-.85-1.85c-.04-.08-.11-.13-.2-.13h-3.93c-.09,0-.16.05-.2.13l-.85,1.85c-.04.08-.11.13-.2.13h-1.19c-.16,0-.27-.16-.2-.31l4.41-9.96c.08-.17.32-.17.4,0ZM82.45,54.16h2.4c.16,0,.26-.16.2-.31l-1.2-2.75c-.08-.18-.33-.18-.4,0l-1.2,2.75c-.06.15.04.31.2.31Z"/>
    <path class="cls-6" d="M87.88,47.07h1.26c.09,0,.17.06.2.14l1.78,4.53c.07.19.34.19.41,0l1.77-4.53c.03-.08.11-.14.2-.14h1.26c.16,0,.26.16.2.3l-2.7,6.76s-.02.05-.02.08v3.36c0,.12-.1.22-.22.22h-1.45c-.12,0-.22-.1-.22-.22v-3.36s0-.06-.02-.08l-2.7-6.76c-.06-.14.05-.3.2-.3Z"/>
  </g>
</svg>