<svg width="111" height="152" viewBox="0 0 111 152" fill="none" xmlns="http://www.w3.org/2000/svg">
<g clip-path="url(#clip0_3_2)">
<path d="M111.36 25.16H93.3401V28.1H111.36V25.16Z" fill="black"/>
<path d="M33.7 44.24V11.65H44.2699V16.35H38.7399V25.26H42.4099V29.71H38.7399V39.4H44.2699V44.24H33.7Z" fill="black"/>
<path d="M75.6099 44.24L70.0699 27.75L68.5099 22.51V44.24H65.1899V11.65H68.3699L73.4099 28.38L74.8799 33.67V11.65H78.2099V44.24H75.6099Z" fill="black"/>
<path d="M41.2399 60.42H36.2V93.01H41.2399V60.42Z" fill="black"/>
<path d="M9.24001 140.34L8.7 138.63C8.01 140.1 6.6 140.83 5.13 140.83C1.7 140.83 -0.5 138.33 -0.5 134.42V113.67C-0.5 110.15 2.19 107.26 5.81 107.26C9.43 107.26 11.92 110.15 11.92 113.67V119.69H7.23V113.47C7.23 112.69 6.79 112.15 5.91 112.15C5.07 112.15 4.53999 112.69 4.53999 113.47V134.85C4.53999 135.69 5.08 136.27 5.91 136.27C6.79 136.27 7.28 135.68 7.28 134.85V128.2H6.00999V124.28H12.17V140.33H9.24001V140.34Z" fill="black"/>
<path d="M40.9101 140.34L37.2401 125.61L36.11 121.16V140.34H31.8101V107.75H36.6001L39.83 122.38L40.8101 126.93V107.75H45.0701V140.34H40.9101Z" fill="black"/>
<path d="M73.4999 63.72V92.99H70.0299V63.72H65.6799V60.4H77.7099V63.72H73.4999Z" fill="black"/>
<path d="M103.99 80.12V92.99H100.47V80.12L95.4299 60.4H98.9599L102.43 75.57L105.9 60.4H109.28L103.99 80.12Z" fill="black"/>
<path d="M80.7 121.44H62.6799V125.27H80.7V121.44Z" fill="black"/>
<path d="M73.61 114.35H69.78V132.37H73.61V114.35Z" fill="black"/>
<path d="M4.58003 39.49C7.95003 39.49 8.17004 38.65 8.13004 27.95C8.17004 17.29 7.95003 16.45 4.58003 16.45V39.49ZM3.56003 44.29H-0.219971V11.65H3.56003C12.44 11.7 13.11 15.2 13.11 27.99C13.1 40.73 12.44 44.24 3.56003 44.29Z" fill="black"/>
<path d="M7.80003 74.95C5.74003 71.33 4.62003 70 4.62003 66.24C4.62003 65.11 5.30003 64.57 6.14003 64.57C6.92003 64.57 7.51003 65.16 7.51003 66.24V68.71L11.86 68.3V66.72C11.86 62.41 9.56004 59.92 6.13004 59.92C1.72004 59.92 -0.369965 63.2 -0.369965 67.26C-0.369965 71.03 2.22004 75.53 4.13004 78.56C6.04004 81.84 7.21004 84.14 7.21004 87.08C7.21004 88.3 6.67004 89.04 5.60004 89.04C4.47004 89.04 3.94003 88.26 3.94003 87.08V84.44L-0.469971 84.86V86.69C-0.469971 91.05 1.93003 93.49 5.84003 93.49C9.02003 93.49 12.1 91.38 12.1 86.29C12.1 82.49 9.95003 78.62 7.80003 74.95Z" fill="black"/>
</g>
<defs>
<clipPath id="clip0_3_2">
<rect width="111" height="152" fill="white"/>
</clipPath>
</defs>
</svg>
