<?xml version="1.0" encoding="UTF-8"?>
<svg id="Livello_2" data-name="Livello 2" xmlns="http://www.w3.org/2000/svg" viewBox="0 0 2488.19 375">
  <defs>
    <style>
      .cls-1 {
        stroke-miterlimit: 10;
      }

      .cls-1, .cls-2 {
        stroke: #fff;
      }

      .cls-3 {
        fill: none;
        stroke-width: 1.85px;
      }

      .cls-3, .cls-4 {
        stroke: #000;
      }

      .cls-4 {
        stroke-width: 1.2px;
      }

      .cls-4, .cls-5 {
        fill: #fff;
      }

      .cls-2 {
        stroke-width: 3px;
      }

      .cls-5 {
        stroke-width: 0px;
      }
    </style>
  </defs>
  <g id="Livello_1-2" data-name="Livello 1">
    <g>
      <path class="cls-5" d="m1005.91,23.74h-44.52l-18.45,43.5h44.5l18.47-43.5Z"/>
      <path class="cls-5" d="m1721.85,23.74h-44.5l-18.47,43.5h44.5l18.47-43.5Z"/>
      <g>
        <path class="cls-5" d="m249.28,239.9L232.94,5.8h-6.64L51.96,235.02c-12.26,16.13-25.38,26.03-39,29.44l-1.94.49-5.52,16.54h82.33l5.97-17.29-10.29-1.29c-6.22-.82-10.01-2.79-11.3-5.88-1.18-2.87-1.42-9.94,10.41-25.31l28.21-36.66h103.17v.07h-12.86l2.79,45.62c.93,13.15-5.31,20.81-18.05,22.15l-8.49,1-6.06,17.58h95.22l5.36-16.05-3.78-.96c-12.77-3.26-17.89-9.92-18.88-24.56l.03-.02Zm-48.87-64.91h-74.27l68.54-92.77,5.73,92.77Z"/>
        <path class="cls-5" d="m372.13,234.27l2.38-3.16-8.82-5.5-2.03,2.18c-10.88,11.61-26.59,27.05-37.28,27.05-1.85,0-3.01-.34-3.46-1.02-.51-.74-1.78-4.03,2.81-15.64L415.64,10.61l-84.78,14.66,21.7,11.17c7.85,4.06,9.54,7.26,4.9,19.25l-71.06,179.09c-6.73,17.16-7.17,30.82-1.23,39.51,4.19,6.13,11.23,9.38,20.35,9.38,20.72,0,40.64-14.79,66.63-49.43l-.02.04Z"/>
        <path class="cls-5" d="m583.44,111.24c0-10.79-6.22-23.4-23.76-23.4-14.77,0-29.12,7.55-43.78,23.06-11.99-7.65-26.79-11.7-43.03-11.7-42.87,0-79.08,34.03-79.08,74.31,0,16.87,6.81,32.07,20.81,46.48l.75.76c-25.55,10.18-38.03,24.04-38.03,42.12,0,9.07,3.81,17.45,11.03,24.26l.53.49c-27.58,10.12-40.47,23.87-40.47,43.01,0,17.69,14.8,38.79,85.29,38.79,81.68,0,103.25-43.1,103.25-65.89,0-25.52-27.09-32.94-50.71-36.55l-51.66-7.69c-19.96-2.85-19.96-8.18-19.96-11.05,0-4.43,6.08-13.06,22.28-17.81,8.92,2.96,18.79,4.59,27.93,4.59,43.07,0,79.44-33.87,79.44-73.94,0-14.89-5.53-28.77-15.65-39.51,6.11-5.71,11.66-9.45,16.94-11.37-2.14,3.03-2.32,7.11-2.3,8.54.47,11.45,9.05,16.65,16.82,16.65,10.83,0,23.4-10.54,23.4-24.13h-.04Zm-143.89,236.61c-45.14,0-54.61-12.17-54.61-22.37s11.72-22.57,23.04-28.34c3.27.98,6.75,1.63,10.05,2.23l62.77,9.54c17.01,2.36,17.01,8.91,17.01,11.05,0,2.85-1.63,27.87-58.26,27.87v.02Zm64.12-193.76c0,31.08-19.21,59.36-40.32,59.36-18.14,0-28.97-12.34-28.97-33,0-31.82,18.66-59.72,39.94-59.72,18.09,0,29.34,12.79,29.34,33.36h.01Z"/>
        <path class="cls-5" d="m665.86,98.45c-26.11,0-52.89,13.02-73.42,35.76-20.59,22.77-32.38,52.57-32.38,81.76,0,41.38,25.59,69.19,63.69,69.19,26.12,0,52.94-13.1,73.6-35.94,20.7-22.88,32.56-52.75,32.56-81.94,0-41.16-25.74-68.81-64.05-68.81v-.02Zm-39.55,164.07c-20.92,0-25.31-19.34-25.31-35.56,0-37.19,25.69-105.87,62.3-105.87,21.2,0,25.67,19.14,25.67,35.19,0,37.32-25.84,106.23-62.66,106.23Z"/>
        <path class="cls-5" d="m888.34,128.08c0-17.14-11.63-27.79-30.37-27.79-15.04,0-32.15,10.94-51.81,33.25l15.64-37.79-85.72,16.87,21.33,10.99c7.86,4.06,9.55,7.26,4.88,19.26l-53.93,138.62h40.38l35.92-92.43c24.89-38.64,45.19-59.83,60.43-63.13-2.07,2.47-3.96,7.24-3.96,11.66,0,11.01,8.93,19.01,21.21,19.01,14.31,0,25.96-12.81,25.96-28.54h.04Z"/>
        <path class="cls-5" d="m975.89,95.77l-85.65,16.85,21.34,10.99c7.38,3.83,10.07,6.8,4.9,19.21l-37.36,91.92c-6.93,17.12-7.49,30.79-1.61,39.51,4.15,6.17,11.19,9.43,20.35,9.43,20.7,0,41.36-15.24,67-49.43l2.37-3.16-8.78-5.5-2.03,2.12c-12.06,12.61-27.21,27.08-37.3,27.08-1.81,0-2.97-.36-3.46-1.09-.51-.74-1.8-4.06,2.79-15.17l57.44-142.81v.02Z"/>
        <path class="cls-5" d="m1069.9,226.33c-15.13,16.43-26.51,24.09-35.8,24.09-2.25,0-6.35-.43-8.38-3.39-1.85-2.7-1.7-7.04.42-12.55l42.67-110.84h48l8.29-21.53h-48.4l27.99-75.43-13.28,15.55c-30.95,36.25-75.57,64.62-94.86,74.58l-13.28,6.86h43.72l-39.85,103.84c-8.75,22.73-4.72,36.05.2,43.21,5.58,8.14,15.31,12.63,27.35,12.63,21.99,0,42.42-17.02,62.48-51.99l1.91-3.34-7.35-3.66-1.85,2.01.02-.02Z"/>
        <path class="cls-5" d="m1288.06,231.12l-8.8-5.5-2.03,2.14c-12.08,12.61-27.23,27.08-37.3,27.08-1.81,0-2.97-.36-3.46-1.09-.51-.74-1.8-4.06,2.77-15.13l34.8-82.76c7.72-18.2,8.25-33.22,1.5-43.43-5.89-8.91-17.07-13.62-32.31-13.62-18.54,0-40.51,13.48-63.65,38.66l49.97-126.88-84.77,14.66,21.7,11.17c7.85,4.06,9.54,7.26,4.88,19.27l-87.99,225.78h40.39l35.17-90.92c27.99-41.03,53.37-63.62,71.48-63.62,2.88,0,6.67.54,8.38,3.1,1.87,2.79,1.34,8.11-1.49,14.99l-36.63,89.73c-8.79,21.44-5.73,33.29-1.59,39.44,4.17,6.22,11.21,9.52,20.33,9.52,20.16,0,39.97-14.79,66.25-49.42l2.4-3.16v-.02Z"/>
        <path class="cls-5" d="m1572.76,227.74c-12.06,12.61-27.21,27.08-37.3,27.08-1.81,0-2.98-.36-3.47-1.09-.51-.74-1.8-4.06,2.78-15.13l34.79-82.78c7.66-18.3,8.05-33.45,1.14-43.85-5.75-8.64-16.16-13.19-30.13-13.19-23.09,0-47.82,21.39-68.63,46.04l4.68-6.15.15-.93c1.85-12.3-.18-21.99-6-28.75-5.83-6.77-15.13-10.21-27.62-10.21-20.88,0-42.95,17.38-62.22,38.77l17.25-41.83-85.71,16.87,21.33,10.99c7.86,4.06,9.54,7.26,4.88,19.27l-53.93,138.62h40.38l35.17-90.58c27.16-40.67,52.67-63.98,70.01-63.98,2,0,4.68.43,6.13,2.54,2,2.9,1.62,8.45-1.09,15.6l-52.42,136.4h39.98l35.54-91.67c26.81-39.96,52.04-62.88,69.28-62.88,2.07,0,4.84.45,6.33,2.67,1.98,2.92,1.52,8.42-1.27,15.42l-36.63,89.72c-8.8,21.44-5.73,33.29-1.6,39.44,4.17,6.22,11.21,9.52,20.34,9.52,20.16,0,39.97-14.79,66.25-49.42l2.39-3.16-8.8-5.5-2.03,2.12h.04Z"/>
        <path class="cls-5" d="m1691.83,95.77l-85.64,16.85,21.33,10.99c7.38,3.83,10.07,6.8,4.9,19.21l-37.35,91.92c-6.93,17.12-7.49,30.79-1.61,39.51,4.15,6.17,11.19,9.43,20.35,9.43,20.7,0,41.36-15.24,66.99-49.43l2.38-3.16-8.78-5.5-2.03,2.12c-12.06,12.61-27.21,27.08-37.3,27.08-1.81,0-2.97-.36-3.46-1.09-.51-.74-1.8-4.06,2.79-15.17l57.43-142.81v.02Z"/>
        <path class="cls-5" d="m1836.99,111.86c-7.13-5.79-19.79-12.66-39.69-12.66-56.69,0-100.68,63.37-100.68,117.88,0,40.91,24,67.36,61.12,67.36,28.61,0,54.86-17.76,72.02-48.74l2.03-3.68-9.11-3.41-1.65,1.74c-14.86,15.57-31.29,23.78-47.55,23.78-22.6,0-35.56-15.89-35.56-43.61,0-35.99,25.09-89.4,59.72-89.4,8.2,0,17.81,2.41,19.54,13.26h-8.16l-.64,2.83c-1.96,8.73-.24,17.29,4.72,23.47,3.9,4.88,9.49,7.67,15.31,7.67,11.27,0,23.4-10.63,23.4-27.79,0-10.58-5.41-21.03-14.84-28.68l.02-.02Z"/>
      </g>
      <path class="cls-5" d="m1886.39,367.25c-18.48,0-27.91-11.32-27.91-24.14,0-10.94,8.3-21.5,20.37-21.5,10.56,0,18.48,7.17,18.48,17.73,0,3.02-.75,6.03-1.51,7.54h-6.79l-1.89,5.66c22.25,1.89,49.41-13.58,84.86-50.54-3.02-62.99-13.2-142.19-18.86-164.82-2.64-10.56-6.04-14.71-22.25-24.52l50.92-13.96c9.43,38.09,20.37,108.62,21.12,162.18l-9.05,10.18.75,7.17c56.2-59.97,77.7-120.32,76.57-146.34h-13.95c-1.89-3.02-3.02-7.17-3.02-11.69,0-10.18,7.54-20.37,21.88-20.37,13.2,0,19.99,9.05,19.99,26.4,0,29.04-23.39,85.99-84.49,155.77-53.93,61.86-90.52,85.24-125.22,85.24Zm328.76-267.79c40.36,0,62.23,29.8,62.23,67.14,0,61.48-51.67,117.68-105.61,117.68-39.98,0-61.86-30.17-61.86-67.51,0-61.48,51.3-117.3,105.23-117.3Zm-40.73,168.97c41.49,0,68.27-73.55,68.27-113.15,0-25.27-10.18-39.98-30.17-39.98-41.11,0-67.89,73.17-67.89,112.77,0,25.65,10.18,40.36,29.8,40.36Zm222.88-15.84l14.71-19.61,8.67-22.25h-1.13c-31.31,45.64-60.72,73.92-85.24,73.92-30.17,0-41.11-24.89-26.03-60.35l34.7-81.47c5.66-13.58,3.39-19.23-6.79-24.52l-12.45-6.41,70.91-13.96-55.44,133.9c-9.81,23.39-1.89,31.3,8.3,31.3,18.1,0,41.87-23.38,69.78-64.87l36.59-95.05h34.32l-53.56,135.4c-6.79,17.35-3.02,21.88,4.15,21.88,10.56,0,24.14-11.32,41.11-29.04l3.02,1.89c-24.89,32.81-44.88,49.41-65.25,49.41-15.84,0-24.52-10.56-20.37-30.17Z"/>
      <circle class="cls-1" cx="184" cy="118" r="5.9"/>
      <circle class="cls-1" cx="184" cy="118" r="2.5"/>
      <circle class="cls-1" cx="175" cy="154" r="5.9"/>
      <circle class="cls-1" cx="175" cy="154" r="2.5"/>
      <circle class="cls-1" cx="127" cy="223" r="5.9"/>
      <circle class="cls-1" cx="127" cy="223" r="2.5"/>
      <circle class="cls-1" cx="157" cy="161" r="5.9"/>
      <circle class="cls-1" cx="157" cy="161" r="2.5"/>
      <rect class="cls-1" x="220.5" y=".5" width="10" height="10"/>
      <rect class="cls-1" x="227.5" y=".5" width="10" height="10"/>
      <rect class="cls-1" x="188.5" y="76.5" width="10" height="10"/>
      <rect class="cls-1" x="194.5" y="169.5" width="10" height="10"/>
      <rect class="cls-1" x="105.5" y="190.5" width="10" height="10"/>
      <rect class="cls-1" x="194.5" y="190.5" width="10" height="10"/>
      <rect class="cls-1" x="209.5" y="190.5" width="10" height="10"/>
      <rect class="cls-1" x="199.5" y="238.5" width="10" height="10"/>
      <rect class="cls-1" x="172.5" y="258.5" width="10" height="10"/>
      <rect class="cls-1" x="164.5" y="276.5" width="10" height="10"/>
      <rect class="cls-1" x="261.5" y="276.5" width="10" height="10"/>
      <rect class="cls-1" x="266.5" y="260.5" width="10" height="10"/>
      <rect class="cls-1" x="326.5" y="20.5" width="10" height="10"/>
      <rect class="cls-1" x="344.5" y="29.5" width="10" height="10"/>
      <rect class="cls-1" x="351.5" y="49.5" width="10" height="10"/>
      <rect class="cls-1" x="277.5" y="238.5" width="10" height="10"/>
      <rect class="cls-1" x="330.5" y="246.5" width="10" height="10"/>
      <rect class="cls-1" x="298.5" y="278.5" width="10" height="10"/>
      <rect class="cls-1" x="360.5" y="221.5" width="10" height="10"/>
      <rect class="cls-1" x="465.5" y="93.5" width="10" height="10"/>
      <rect class="cls-1" x="468.5" y="115.5" width="10" height="10"/>
      <rect class="cls-1" x="510.5" y="105.5" width="10" height="10"/>
      <rect class="cls-1" x="560.5" y="82.5" width="10" height="10"/>
      <rect class="cls-1" x="578.5" y="105.5" width="10" height="10"/>
      <rect class="cls-1" x="555.5" y="130.5" width="10" height="10"/>
      <rect class="cls-1" x="540.5" y="118.5" width="10" height="10"/>
      <rect class="cls-1" x="540.5" y="103.5" width="10" height="10"/>
      <rect class="cls-1" x="538.5" y="151.5" width="10" height="10"/>
      <rect class="cls-1" x="498.5" y="144.5" width="10" height="10"/>
      <rect class="cls-1" x="429.5" y="178.5" width="10" height="10"/>
      <rect class="cls-1" x="389.5" y="169.5" width="10" height="10"/>
      <rect class="cls-1" x="410.5" y="214.5" width="10" height="10"/>
      <rect class="cls-1" x="458.5" y="208.5" width="10" height="10"/>
      <rect class="cls-1" x="460.5" y="230.5" width="10" height="10"/>
      <rect class="cls-1" x="434.5" y="225.5" width="10" height="10"/>
      <rect class="cls-1" x="410.5" y="241.5" width="10" height="10"/>
      <rect class="cls-1" x="434.5" y="255.5" width="10" height="10"/>
      <rect class="cls-1" x="488.5" y="263.5" width="10" height="10"/>
      <rect class="cls-1" x="531.5" y="299.5" width="10" height="10"/>
      <rect class="cls-1" x="373.5" y="256.5" width="10" height="10"/>
      <rect class="cls-1" x="385.5" y="282.5" width="10" height="10"/>
      <rect class="cls-1" x="400.5" y="292.5" width="10" height="10"/>
      <rect class="cls-1" x="415.5" y="294.5" width="10" height="10"/>
      <rect class="cls-1" x="475.5" y="304.5" width="10" height="10"/>
      <rect class="cls-1" x="493.5" y="314.5" width="10" height="10"/>
      <rect class="cls-1" x="434.5" y="343.5" width="10" height="10"/>
      <rect class="cls-1" x="380.5" y="319.5" width="10" height="10"/>
      <rect class="cls-1" x="344.5" y="333.5" width="10" height="10"/>
      <rect class="cls-1" x="429.5" y="364.5" width="10" height="10"/>
      <rect class="cls-1" x="662.5" y="93.5" width="10" height="10"/>
      <rect class="cls-1" x="731.5" y="107.5" width="10" height="10"/>
      <rect class="cls-1" x="817.5" y="90.5" width="10" height="10"/>
      <rect class="cls-1" x="799.5" y="130.5" width="10" height="10"/>
      <rect class="cls-1" x="748.5" y="116.5" width="10" height="10"/>
      <rect class="cls-1" x="757.5" y="137.5" width="10" height="10"/>
      <rect class="cls-1" x="703.5" y="276.5" width="10" height="10"/>
      <rect class="cls-1" x="743.5" y="276.5" width="10" height="10"/>
      <rect class="cls-1" x="780.5" y="183.5" width="10" height="10"/>
      <rect class="cls-1" x="843.5" y="118.5" width="10" height="10"/>
      <rect class="cls-1" x="837.5" y="135.5" width="10" height="10"/>
      <rect class="cls-1" x="857.5" y="151.5" width="10" height="10"/>
      <rect class="cls-1" x="883.5" y="123.5" width="10" height="10"/>
      <rect class="cls-1" x="848.5" y="95.5" width="10" height="10"/>
      <rect class="cls-1" x="884.5" y="108.5" width="10" height="10"/>
      <rect class="cls-1" x="971.5" y="89.5" width="10" height="10"/>
      <rect class="cls-1" x="937.5" y="62.5" width="10" height="10"/>
      <rect class="cls-1" x="1652.5" y="61.5" width="10" height="10"/>
      <rect class="cls-1" x="983.5" y="62.5" width="10" height="10"/>
      <rect class="cls-1" x="1698.5" y="61.5" width="10" height="10"/>
      <rect class="cls-1" x="1804.5" y="129.5" width="10" height="10"/>
      <rect class="cls-1" x="1814.5" y="129.5" width="10" height="10"/>
      <rect class="cls-1" x="1819.5" y="162.5" width="10" height="10"/>
      <rect class="cls-1" x="1846.5" y="137.5" width="10" height="10"/>
      <rect class="cls-1" x="1784.5" y="94.5" width="10" height="10"/>
      <rect class="cls-5" x="1899.5" y="275" width="10" height="10"/>
      <rect class="cls-1" x="1784.5" y="116.5" width="10" height="10"/>
      <rect class="cls-1" x="1732.5" y="210.5" width="10" height="10"/>
      <rect class="cls-1" x="1691.5" y="220.5" width="10" height="10"/>
      <rect class="cls-1" x="1753.5" y="278.5" width="10" height="10"/>
      <rect class="cls-1" x="1769.5" y="249.5" width="10" height="10"/>
      <rect class="cls-1" x="1818.5" y="223.5" width="10" height="10"/>
      <rect class="cls-1" x="1825.5" y="227.5" width="10" height="10"/>
      <rect class="cls-1" x="1000.5" y="18.5" width="10" height="10"/>
      <rect class="cls-1" x="1715.5" y="17.5" width="10" height="10"/>
      <rect class="cls-1" x="1100.5" y="18.5" width="10" height="10"/>
      <rect class="cls-1" x="1071.5" y="96.5" width="10" height="10"/>
      <rect class="cls-1" x="1120.5" y="96.5" width="10" height="10"/>
      <rect class="cls-1" x="1110.5" y="118.5" width="10" height="10"/>
      <rect class="cls-1" x="1052.5" y="118.5" width="10" height="10"/>
      <rect class="cls-1" x="1139.5" y="20.5" width="10" height="10"/>
      <rect class="cls-1" x="1226.5" y="5.5" width="10" height="10"/>
      <rect class="cls-1" x="1159.5" y="30.5" width="10" height="10"/>
      <rect class="cls-1" x="1167.5" y="47.5" width="10" height="10"/>
      <rect class="cls-1" x="1078.5" y="276.5" width="10" height="10"/>
      <rect class="cls-1" x="1120.5" y="276.5" width="10" height="10"/>
      <rect class="cls-1" x="1154.5" y="185.5" width="10" height="10"/>
      <rect class="cls-1" x="1221.5" y="121.5" width="10" height="10"/>
      <rect class="cls-1" x="1231.5" y="140.5" width="10" height="10"/>
      <rect class="cls-1" x="1310.5" y="107.5" width="10" height="10"/>
      <rect class="cls-1" x="1329.5" y="119.5" width="10" height="10"/>
      <rect class="cls-1" x="1334.5" y="137.5" width="10" height="10"/>
      <rect class="cls-1" x="1279.5" y="276.5" width="10" height="10"/>
      <rect class="cls-1" x="1319.5" y="276.5" width="10" height="10"/>
      <rect class="cls-1" x="1356.5" y="184.5" width="10" height="10"/>
      <rect class="cls-1" x="1414.5" y="124.5" width="10" height="10"/>
      <rect class="cls-1" x="1429.5" y="140.5" width="10" height="10"/>
      <rect class="cls-1" x="1377.5" y="276.5" width="10" height="10"/>
      <rect class="cls-1" x="1417.5" y="276.5" width="10" height="10"/>
      <rect class="cls-1" x="1454.5" y="181.5" width="10" height="10"/>
      <rect class="cls-1" x="1513.5" y="124.5" width="10" height="10"/>
      <rect class="cls-1" x="1527.5" y="140.5" width="10" height="10"/>
      <rect class="cls-1" x="1466.5" y="140.5" width="10" height="10"/>
      <rect class="cls-1" x="1471.5" y="132.5" width="10" height="10"/>
      <rect class="cls-1" x="1434.5" y="94.5" width="10" height="10"/>
      <rect class="cls-1" x="1532.5" y="94.5" width="10" height="10"/>
      <rect class="cls-1" x="1565.5" y="147.5" width="10" height="10"/>
      <rect class="cls-1" x="1528.5" y="235.5" width="10" height="10"/>
      <rect class="cls-1" x="1488.5" y="235.5" width="10" height="10"/>
      <rect class="cls-1" x="1513.5" y="278.5" width="10" height="10"/>
      <rect class="cls-1" x="1537.5" y="249.5" width="10" height="10"/>
      <rect class="cls-1" x="1570.5" y="220.5" width="10" height="10"/>
      <rect class="cls-1" x="1602.5" y="107.5" width="10" height="10"/>
      <rect class="cls-1" x="1686.5" y="90.5" width="10" height="10"/>
      <rect class="cls-1" x="1618.5" y="116.5" width="10" height="10"/>
      <rect class="cls-1" x="1628.5" y="136.5" width="10" height="10"/>
      <rect class="cls-1" x="1576.5" y="225.5" width="10" height="10"/>
      <rect class="cls-1" x="1375.5" y="132.5" width="10" height="10"/>
      <rect class="cls-1" x="1392.5" y="90.5" width="10" height="10"/>
      <rect class="cls-1" x="1194.5" y="234.5" width="10" height="10"/>
      <rect class="cls-1" x="1221.5" y="278.5" width="10" height="10"/>
      <rect class="cls-1" x="1241.5" y="249.5" width="10" height="10"/>
      <rect class="cls-1" x="1274.5" y="220.5" width="10" height="10"/>
      <rect class="cls-1" x="1281.5" y="225.5" width="10" height="10"/>
      <rect class="cls-1" x="1269.5" y="150.5" width="10" height="10"/>
      <rect class="cls-1" x="1233.5" y="94.5" width="10" height="10"/>
      <rect class="cls-1" x="1175.5" y="132.5" width="10" height="10"/>
      <rect class="cls-1" x="1233.5" y="236.5" width="10" height="10"/>
      <rect class="cls-1" x="1064.5" y="118.5" width="10" height="10"/>
      <rect class="cls-1" x="1021.5" y="118.5" width="10" height="10"/>
      <rect class="cls-1" x="985.5" y="212.5" width="10" height="10"/>
      <rect class="cls-1" x="1023.5" y="222.5" width="10" height="10"/>
      <rect class="cls-1" x="1030.5" y="244.5" width="10" height="10"/>
      <rect class="cls-1" x="1066.5" y="218.5" width="10" height="10"/>
      <rect class="cls-1" x="1073.5" y="223.5" width="10" height="10"/>
      <rect class="cls-1" x="1007.5" y="278.5" width="10" height="10"/>
      <rect class="cls-1" x="977.5" y="118.5" width="10" height="10"/>
      <rect class="cls-1" x="956.5" y="18.5" width="10" height="10"/>
      <rect class="cls-1" x="1671.5" y="17.5" width="10" height="10"/>
      <rect class="cls-1" x="901.5" y="116.5" width="10" height="10"/>
      <rect class="cls-1" x="912.5" y="135.5" width="10" height="10"/>
      <rect class="cls-1" x="870.5" y="237.5" width="10" height="10"/>
      <rect class="cls-1" x="1586.5" y="237.5" width="10" height="10"/>
      <rect class="cls-1" x="913.5" y="232.5" width="10" height="10"/>
      <rect class="cls-1" x="1629.5" y="232.5" width="10" height="10"/>
      <rect class="cls-1" x="919.5" y="249.5" width="10" height="10"/>
      <rect class="cls-1" x="1635.5" y="249.5" width="10" height="10"/>
      <rect class="cls-1" x="951.5" y="222.5" width="10" height="10"/>
      <rect class="cls-1" x="1667.5" y="222.5" width="10" height="10"/>
      <rect class="cls-1" x="960.5" y="227.5" width="10" height="10"/>
      <rect class="cls-1" x="1676.5" y="227.5" width="10" height="10"/>
      <rect class="cls-1" x="888.5" y="278.5" width="10" height="10"/>
      <rect class="cls-1" x="1604.5" y="278.5" width="10" height="10"/>
      <rect class="cls-1" x="684.5" y="151.5" width="10" height="10"/>
      <rect class="cls-1" x="595.5" y="226.5" width="10" height="10"/>
      <rect class="cls-1" x="620.5" y="257.5" width="10" height="10"/>
      <rect class="cls-1" x="615.5" y="280.5" width="10" height="10"/>
      <rect class="cls-1" x="724.5" y="159.5" width="10" height="10"/>
      <rect class="cls-1" x="555.5" y="216.5" width="10" height="10"/>
      <rect class="cls-1" x="657.5" y="115.5" width="10" height="10"/>
      <rect class="cls-1" x="379.5" y="276.5" width="10" height="10"/>
      <rect class="cls-1" x="523.5" y="115.5" width="10" height="10"/>
      <rect class="cls-1" x="368.5" y="226.5" width="10" height="10"/>
      <rect class="cls-1" x="321.5" y="233.5" width="10" height="10"/>
      <rect class="cls-1" x="410.5" y="5.5" width="10" height="10"/>
      <rect class="cls-1" x="245.5" y="238.5" width="10" height="10"/>
      <rect class="cls-1" x="72.5" y="233.5" width="10" height="10"/>
      <rect class="cls-1" x="5.5" y="260.5" width="10" height="10"/>
      <rect class="cls-1" x="87.5" y="260.5" width="10" height="10"/>
      <rect class="cls-1" x="81.5" y="258.5" width="10" height="10"/>
      <rect class="cls-1" x=".5" y="276.5" width="10" height="10"/>
      <rect class="cls-1" x="82.5" y="276.5" width="10" height="10"/>
      <rect class="cls-1" x="40.5" y="238.5" width="10" height="10"/>
      <rect class="cls-1" x="122.5" y="169.5" width="10" height="10"/>
      <line class="cls-3" x1="1057.5" y1="123.57" x2="1073.5" y2="123.57"/>
      <circle class="cls-4" cx="208" cy="191" r="5.9"/>
      <circle class="cls-1" cx="208" cy="191" r="2.5"/>
      <circle class="cls-4" cx="213" cy="207" r="5.9"/>
      <circle class="cls-1" cx="213" cy="207" r="2.5"/>
      <circle class="cls-4" cx="186" cy="272" r="5.9"/>
      <circle class="cls-1" cx="186" cy="272" r="2.5"/>
      <circle class="cls-4" cx="20" cy="272" r="5.9"/>
      <circle class="cls-1" cx="20" cy="272" r="2.5"/>
      <circle class="cls-4" cx="184" cy="274" r="5.9"/>
      <circle class="cls-1" cx="184" cy="274" r="2.5"/>
      <circle class="cls-4" cx="18" cy="274" r="5.9"/>
      <circle class="cls-1" cx="18" cy="274" r="2.5"/>
      <circle class="cls-4" cx="79" cy="262" r="5.9"/>
      <circle class="cls-1" cx="79" cy="262" r="2.5"/>
      <circle class="cls-4" cx="81" cy="271" r="5.9"/>
      <circle class="cls-1" cx="81" cy="271" r="2.5"/>
      <circle class="cls-4" cx="257" cy="265" r="5.9"/>
      <circle class="cls-1" cx="257" cy="265" r="2.5"/>
      <circle class="cls-4" cx="349" cy="27" r="5.9"/>
      <circle class="cls-1" cx="349" cy="27" r="2.5"/>
      <circle class="cls-4" cx="383" cy="37" r="5.9"/>
      <circle class="cls-1" cx="383" cy="37" r="2.5"/>
      <circle class="cls-4" cx="510" cy="80" r="5.9"/>
      <circle class="cls-1" cx="510" cy="80" r="2.5"/>
      <circle class="cls-4" cx="757" cy="115" r="5.9"/>
      <circle class="cls-1" cx="757" cy="115" r="2.5"/>
      <circle class="cls-4" cx="789" cy="121" r="5.9"/>
      <circle class="cls-1" cx="789" cy="121" r="2.5"/>
      <circle class="cls-4" cx="764" cy="113" r="5.9"/>
      <circle class="cls-1" cx="764" cy="113" r="2.5"/>
      <circle class="cls-4" cx="817" cy="171" r="5.9"/>
      <circle class="cls-1" cx="817" cy="171" r="2.5"/>
      <circle class="cls-4" cx="837" cy="125" r="5.9"/>
      <circle class="cls-1" cx="837" cy="125" r="2.5"/>
      <circle class="cls-4" cx="841" cy="131" r="5.9"/>
      <circle class="cls-1" cx="841" cy="131" r="2.5"/>
      <circle class="cls-4" cx="849" cy="141" r="5.9"/>
      <circle class="cls-1" cx="849" cy="141" r="2.5"/>
      <circle class="cls-4" cx="905" cy="114" r="5.9"/>
      <circle class="cls-1" cx="905" cy="114" r="2.5"/>
      <circle class="cls-4" cx="970" cy="48" r="5.9"/>
      <circle class="cls-1" cx="970" cy="48" r="2.5"/>
      <circle class="cls-4" cx="979" cy="42" r="5.9"/>
      <circle class="cls-1" cx="979" cy="42" r="2.5"/>
      <circle class="cls-4" cx="967" cy="33" r="5.9"/>
      <circle class="cls-1" cx="967" cy="33" r="2.5"/>
      <circle class="cls-4" cx="982" cy="57" r="5.9"/>
      <circle class="cls-1" cx="982" cy="57" r="2.5"/>
      <circle class="cls-4" cx="1621" cy="114" r="5.9"/>
      <circle class="cls-1" cx="1621" cy="114" r="2.5"/>
      <circle class="cls-4" cx="1686" cy="48" r="5.9"/>
      <circle class="cls-1" cx="1686" cy="48" r="2.5"/>
      <circle class="cls-4" cx="1695" cy="42" r="5.9"/>
      <circle class="cls-1" cx="1695" cy="42" r="2.5"/>
      <circle class="cls-4" cx="1683" cy="33" r="5.9"/>
      <circle class="cls-1" cx="1683" cy="33" r="2.5"/>
      <circle class="cls-4" cx="1698" cy="57" r="5.9"/>
      <circle class="cls-1" cx="1698" cy="57" r="2.5"/>
      <circle class="cls-4" cx="1085" cy="59" r="5.9"/>
      <circle class="cls-1" cx="1085" cy="59" r="2.5"/>
      <circle class="cls-4" cx="1023" cy="114" r="5.9"/>
      <circle class="cls-1" cx="1023" cy="114" r="2.5"/>
      <circle class="cls-4" cx="1109" cy="79" r="5.9"/>
      <circle class="cls-1" cx="1109" cy="79" r="2.5"/>
      <circle class="cls-4" cx="1107" cy="96" r="5.9"/>
      <circle class="cls-1" cx="1107" cy="96" r="2.5"/>
      <circle class="cls-4" cx="1104" cy="120" r="5.9"/>
      <circle class="cls-1" cx="1104" cy="120" r="2.5"/>
      <circle class="cls-4" cx="1061" cy="126" r="5.9"/>
      <circle class="cls-1" cx="1061" cy="126" r="2.5"/>
      <circle class="cls-4" cx="1069" cy="132" r="5.9"/>
      <circle class="cls-1" cx="1069" cy="132" r="2.5"/>
      <circle class="cls-4" cx="993" cy="143" r="5.9"/>
      <circle class="cls-1" cx="993" cy="143" r="2.5"/>
      <circle class="cls-4" cx="1164" cy="28" r="5.9"/>
      <circle class="cls-1" cx="1164" cy="28" r="2.5"/>
      <circle class="cls-4" cx="1198" cy="36" r="5.9"/>
      <circle class="cls-1" cx="1198" cy="36" r="2.5"/>
      <circle class="cls-4" cx="1195" cy="171" r="5.9"/>
      <circle class="cls-1" cx="1195" cy="171" r="2.5"/>
      <circle class="cls-4" cx="1398" cy="171" r="5.9"/>
      <circle class="cls-1" cx="1398" cy="171" r="2.5"/>
      <circle class="cls-4" cx="1438" cy="130" r="5.9"/>
      <circle class="cls-1" cx="1438" cy="130" r="2.5"/>
      <circle class="cls-4" cx="1495" cy="171" r="5.9"/>
      <circle class="cls-1" cx="1495" cy="171" r="2.5"/>
      <circle class="cls-4" cx="1189" cy="200" r="5.9"/>
      <circle class="cls-1" cx="1189" cy="200" r="2.5"/>
      <circle class="cls-4" cx="944" cy="121" r="5.9"/>
      <circle class="cls-1" cx="944" cy="121" r="2.5"/>
      <circle class="cls-4" cx="1392" cy="200" r="5.9"/>
      <circle class="cls-1" cx="1392" cy="200" r="2.5"/>
      <circle class="cls-4" cx="1489" cy="200" r="5.9"/>
      <circle class="cls-1" cx="1489" cy="200" r="2.5"/>
      <circle class="cls-4" cx="1099" cy="244" r="5.9"/>
      <circle class="cls-1" cx="1099" cy="244" r="2.5"/>
      <circle class="cls-4" cx="1122" cy="261" r="5.9"/>
      <circle class="cls-1" cx="1122" cy="261" r="2.5"/>
      <circle class="cls-4" cx="1338" cy="115" r="5.9"/>
      <circle class="cls-1" cx="1338" cy="115" r="2.5"/>
      <circle class="cls-4" cx="1660" cy="121" r="5.9"/>
      <circle class="cls-1" cx="1660" cy="121" r="2.5"/>
      <circle class="cls-4" cx="1811" cy="127" r="5.9"/>
      <circle class="cls-1" cx="1811" cy="127" r="2.5"/>
      <circle class="cls-4" cx="1820" cy="144" r="5.9"/>
      <circle class="cls-1" cx="1820" cy="144" r="2.5"/>
      <circle class="cls-4" cx="820" cy="114" r="5.9"/>
      <circle class="cls-1" cx="820" cy="114" r="2.5"/>
      <circle class="cls-4" cx="747" cy="259" r="5.9"/>
      <circle class="cls-1" cx="747" cy="259" r="2.5"/>
      <circle class="cls-4" cx="723" cy="249" r="5.9"/>
      <circle class="cls-1" cx="723" cy="249" r="2.5"/>
      <circle class="cls-4" cx="540" cy="110" r="5.9"/>
      <circle class="cls-1" cx="540" cy="110" r="2.5"/>
      <circle class="cls-4" cx="544" cy="114" r="5.9"/>
      <circle class="cls-1" cx="544" cy="114" r="2.5"/>
      <circle class="cls-4" cx="551" cy="130" r="5.9"/>
      <circle class="cls-1" cx="551" cy="130" r="2.5"/>
      <circle class="cls-4" cx="422" cy="194" r="5.9"/>
      <circle class="cls-1" cx="422" cy="194" r="2.5"/>
      <circle class="cls-4" cx="399" cy="219" r="5.9"/>
      <circle class="cls-1" cx="399" cy="219" r="2.5"/>
      <circle class="cls-4" cx="413" cy="224" r="5.9"/>
      <circle class="cls-1" cx="413" cy="224" r="2.5"/>
      <path class="cls-4" d="m441,244.1c3.26,0,5.9,2.64,5.9,5.9s-2.64,5.9-5.9,5.9-5.9-2.64-5.9-5.9,2.64-5.9,5.9-5.9Z"/>
      <circle class="cls-1" cx="441" cy="250" r="2.5"/>
      <circle class="cls-4" cx="383" cy="284" r="5.9"/>
      <circle class="cls-1" cx="383" cy="284" r="2.5"/>
      <circle class="cls-4" cx="402" cy="313" r="5.9"/>
      <circle class="cls-1" cx="402" cy="313" r="2.5"/>
      <circle class="cls-4" cx="416" cy="325" r="5.9"/>
      <circle class="cls-1" cx="416" cy="325" r="2.5"/>
      <circle class="cls-4" cx="416" cy="325" r="5.9"/>
      <circle class="cls-1" cx="416" cy="325" r="2.5"/>
      <circle class="cls-4" cx="257" cy="272" r="5.9"/>
      <circle class="cls-1" cx="257" cy="272" r="2.5"/>
      <circle class="cls-4" cx="208" cy="198" r="5.9"/>
      <circle class="cls-1" cx="208" cy="198" r="2.5"/>
      <circle class="cls-4" cx="1065" cy="122" r="5.9"/>
      <circle class="cls-1" cx="1065" cy="122" r="2.5"/>
      <circle class="cls-4" cx="1328" cy="114" r="5.9"/>
      <circle class="cls-1" cx="1328" cy="114" r="2.5"/>
      <circle class="cls-4" cx="1373" cy="115" r="5.9"/>
      <circle class="cls-1" cx="1373" cy="115" r="2.5"/>
      <circle class="cls-4" cx="1298" cy="250" r="5.9"/>
      <circle class="cls-1" cx="1298" cy="250" r="2.5"/>
      <circle class="cls-4" cx="1396" cy="250" r="5.9"/>
      <circle class="cls-1" cx="1396" cy="250" r="2.5"/>
      <circle class="cls-4" cx="1323" cy="263" r="5.9"/>
      <circle class="cls-1" cx="1323" cy="263" r="2.5"/>
      <circle class="cls-4" cx="1421" cy="263" r="5.9"/>
      <circle class="cls-1" cx="1421" cy="263" r="2.5"/>
      <line class="cls-2" x1="2472.5" y1="280" x2="1904.5" y2="280"/>
    </g>
  </g>
</svg>